<?xml version="1.0" encoding="UTF-8" standalone="no"?>
<!-- Created with Inkscape (http://www.inkscape.org/) -->
<svg id="svg3744" xmlns:rdf="http://www.w3.org/1999/02/22-rdf-syntax-ns#" xmlns="http://www.w3.org/2000/svg" height="16" width="16" version="1.0" xmlns:cc="http://creativecommons.org/ns#" xmlns:xlink="http://www.w3.org/1999/xlink" xmlns:dc="http://purl.org/dc/elements/1.1/">
 <defs id="defs3746">
  <radialGradient id="radialGradient4098-62" gradientUnits="userSpaceOnUse" cx="8.5" cy="12.429" r="5.5" gradientTransform="matrix(1.5565 -3.8147e-8 3.1952e-8 1.3038 -4.7305 -3.7753)">
   <stop id="stop4181" style="stop-color:#ededed" offset="0"/>
   <stop id="stop4183" style="stop-color:#707070" offset="1"/>
  </radialGradient>
  <linearGradient id="linearGradient4100-968" y2="-13" gradientUnits="userSpaceOnUse" y1="-17.991" gradientTransform="translate(0,20)" x2="8" x1="8">
   <stop id="stop4175" style="stop-color:#fff;stop-opacity:0.712" offset="0"/>
   <stop id="stop4177" style="stop-color:#bbb;stop-opacity:0" offset="1"/>
  </linearGradient>
 </defs>
 <metadata id="metadata3749">
  <rdf:RDF>
   <cc:Work rdf:about="">
    <dc:format>image/svg+xml</dc:format>
    <dc:type rdf:resource="http://purl.org/dc/dcmitype/StillImage"/>
   </cc:Work>
  </rdf:RDF>
 </metadata>
 <g id="layer1">
  <path id="path4090" style="opacity:.2;fill:#848484" d="m8 0c-4.416 0-8 3.584-8 8s3.584 8 8 8 8-3.584 8-8-3.584-8-8-8zm0 1c3.864 0 7 3.136 7 7s-3.136 7-7 7-7-3.136-7-7 3.136-7 7-7z"/>
  <path id="path4092" style="fill:url(#radialGradient4098-62)" d="m14 8.5a5.5 5.5 0 1 1 -11 0 5.5 5.5 0 1 1 11 0z" transform="matrix(1.2727 0 0 1.2727 -2.8182 -2.8182)"/>
  <path id="path4094" style="fill:url(#linearGradient4100-968)" d="m8 1c-2.9938 0-5.5315 1.8862-6.5312 4.5312 1.4484 0.899 3.8279 1.4688 6.5312 1.4688 2.703 0 5.083-0.5698 6.531-1.4688-1-2.645-3.537-4.5312-6.531-4.5312z"/>
  <path id="path4096" style="opacity:.5;stroke-linejoin:round;stroke:#272727;stroke-linecap:round;fill:none" d="m15-12a7 7 0 1 1 -14 0 7 7 0 1 1 14 0z" transform="translate(0,20)"/>
 </g>
</svg>
