<?xml version="1.0" encoding="UTF-8" standalone="no"?>
<!-- Created with Inkscape (http://www.inkscape.org/) -->
<svg id="svg11300" xmlns:rdf="http://www.w3.org/1999/02/22-rdf-syntax-ns#" style="enable-background:new" xmlns="http://www.w3.org/2000/svg" height="38" width="41" version="1.0" xmlns:cc="http://creativecommons.org/ns#" xmlns:xlink="http://www.w3.org/1999/xlink" xmlns:dc="http://purl.org/dc/elements/1.1/">
 <title id="title3835">Touchpad</title>
 <metadata id="metadata154">
  <rdf:RDF>
   <cc:Work rdf:about="">
    <dc:format>image/svg+xml</dc:format>
    <dc:type rdf:resource="http://purl.org/dc/dcmitype/StillImage"/>
    <dc:title>Touchpad</dc:title>
    <dc:creator>
     <cc:Agent>
      <dc:title>Lapo Calamandrei</dc:title>
     </cc:Agent>
    </dc:creator>
    <dc:contributor>
     <cc:Agent>
      <dc:title/>
     </cc:Agent>
    </dc:contributor>
    <dc:source/>
    <cc:license rdf:resource=""/>
    <dc:subject>
     <rdf:Bag/>
    </dc:subject>
   </cc:Work>
  </rdf:RDF>
 </metadata>
 <defs id="defs3">
  <linearGradient id="linearGradient2972">
   <stop id="stop2974" style="stop-color:#babdb6" offset="0"/>
   <stop id="stop2976" style="stop-color:#555753" offset="1"/>
  </linearGradient>
  <radialGradient id="radialGradient3766-2-5-1" gradientUnits="userSpaceOnUse" cy="224.27" cx="312.09" gradientTransform="matrix(3.7131 0 0 3.5635 -838.85 -725)" r="8">
   <stop id="stop3762-0-6-6" style="stop-color:#eeeeec" offset="0"/>
   <stop id="stop3764-5-1-4" style="stop-color:#d3d7cf" offset="1"/>
  </radialGradient>
  <linearGradient id="linearGradient2910" y2="195" gradientUnits="userSpaceOnUse" y1="177" gradientTransform="matrix(1.9474 0 0 1.9444 -291.47 -291.58)" x2="304" x1="304">
   <stop id="stop3745-6" style="stop-opacity:.2" offset="0"/>
   <stop id="stop3747-2" style="stop-color:#fff" offset="1"/>
  </linearGradient>
  <linearGradient id="linearGradient3092" y2="92.75" gradientUnits="userSpaceOnUse" x2="338" y1="82.375" x1="302">
   <stop id="stop3102" style="stop-color:#babdb6" offset="0"/>
   <stop id="stop3104" style="stop-color:#eeeeec" offset=".25"/>
   <stop id="stop3106" style="stop-color:#d3d7cf" offset=".5"/>
   <stop id="stop3108" style="stop-color:#fff" offset=".75"/>
   <stop id="stop3110" style="stop-color:#babdb6" offset="1"/>
  </linearGradient>
  <linearGradient id="linearGradient2978" y2="89.251" xlink:href="#linearGradient2972" gradientUnits="userSpaceOnUse" x2="315.81" y1="82.209" x1="315.81"/>
 </defs>
 <g id="layer1" transform="translate(-300,-54)">
  <g id="layer5" style="display:none">
   <rect id="rect6282" style="enable-background:accumulate;display:inline;fill:#eeeeec" height="256" width="256" y="28" x="16"/>
  </g>
  <g id="layer6" style="display:none">
   <rect id="rect6284" style="enable-background:accumulate;display:inline;fill:#eeeeec" height="48" width="48" y="50" x="296"/>
   <rect id="rect6592" style="enable-background:accumulate;display:inline;fill:#eeeeec" height="32" width="32" y="126" x="303"/>
   <rect id="rect6749" style="enable-background:accumulate;display:inline;fill:#eeeeec" height="22" width="22" y="177" x="303"/>
   <rect id="rect6833" style="enable-background:accumulate;display:inline;fill:#eeeeec" height="16" width="16" y="219" x="303"/>
   <rect id="rect8104" style="enable-background:accumulate;display:inline;fill:#eeeeec" height="24" width="24" y="176" x="302"/>
   <text id="context" style="font-size:18.301px;enable-background:new;font-family:Bitstream Vera Sans;display:inline;fill:#000000" xml:space="preserve" y="21.513618" x="20.970737"><tspan id="tspan2716" x="20.970737" y="21.513618">devices</tspan></text>
   <text id="icon-name" style="font-size:18.301px;enable-background:new;font-family:Droid Sans;line-height:125%;font-weight:bold;display:inline;fill:#000000" xml:space="preserve" y="21.513618" x="141.97073"><tspan id="tspan3023" x="141.97073" y="21.513618">input-touchpad</tspan></text>
  </g>
  <g id="layer2">
   <rect id="rect2846-28-6-4" style="opacity:.3;stroke-linejoin:round;stroke-width:3;color:#000000;stroke:url(#linearGradient2910);stroke-linecap:round;enable-background:accumulate;fill:none" rx="4" ry="4" height="35" width="38" y="55.5" x="301.5"/>
   <rect id="rect2846-28-66" style="stroke-linejoin:round;color:#000000;stroke:#babdb6;stroke-linecap:round;enable-background:accumulate;fill:url(#radialGradient3766-2-5-1)" rx="3" ry="3" height="33" width="36" y="56.5" x="302.5"/>
   <rect id="rect3694-0-0" style="opacity:.3;stroke-linejoin:round;color:#000000;stroke:#fff;stroke-linecap:round;enable-background:accumulate;fill:none" rx="2" ry="2" height="25" width="34" y="57.5" x="303.5"/>
   <g id="g4205">
    <path id="rect3694-0-0-9" style="opacity:.1;block-progression:tb;text-indent:0;color:#000000;enable-background:accumulate;text-transform:none" d="m303 84.5v2c0 1.3677 1.1323 2.5 2.5 2.5h14.5v-2h-14.5c-0.0657 0-0.1232-0.02642-0.1875-0.03125-1.3-0.098-2.31-1.141-2.31-2.469z"/>
    <path id="rect3694-0-0-9-8" style="opacity:.1;block-progression:tb;text-indent:0;color:#000000;enable-background:accumulate;text-transform:none" d="m338 84.5v2c0 1.3677-1.1323 2.5-2.5 2.5h-14.5v-2h14.5c0.0657 0 0.1232-0.02642 0.1875-0.03125 1.3-0.098 2.31-1.141 2.31-2.469z"/>
   </g>
   <g id="g2958" style="stroke:url(#linearGradient2978)">
    <path id="rect2846-28-66-1" style="stroke-linejoin:round;enable-background:accumulate;color:#000000;stroke:url(#linearGradient2978);stroke-linecap:round;fill:url(#linearGradient3092)" d="m302.5 80.5v6c0 1.662 1.338 3 3 3h30c1.662 0 3-1.338 3-3v-6c0 1.662-1.338 3-3 3h-30c-1.662 0-3-1.338-3-3z"/>
    <path id="path3112" style="stroke:url(#linearGradient2978);stroke-width:1px;fill:none" d="m320.5 83.5v6"/>
   </g>
   <path id="path3161-2" style="opacity:.5;color:#000000;stroke:#fff;stroke-linecap:round;enable-background:accumulate;fill:none" d="m303.5 83.875v2.625c0 1.1249 0.87506 2 2 2h14v-4h-14c-0.74347 0-1.4016-0.2674-2-0.625z"/>
   <path id="path3161-2-0" style="opacity:.5;color:#000000;stroke:#fff;stroke-linecap:round;enable-background:accumulate;fill:none" d="m337.5 83.875v2.625c0 1.1249-0.87506 2-2 2h-14v-4h14c0.74347 0 1.4016-0.2674 2-0.625z"/>
   <path id="rect2846-28-66-0" style="opacity:.4;block-progression:tb;text-indent:0;color:#000000;enable-background:accumulate;text-transform:none;fill:#fff" d="m303 82.656v1.3125c0.84 0.64 1.86 1.032 3 1.032h14v-1h-14c-1.202 0-2.2695-0.51633-3-1.3438z"/>
   <path id="rect2846-28-66-0-6" style="opacity:.4;block-progression:tb;text-indent:0;color:#000000;enable-background:accumulate;text-transform:none;fill:#fff" d="m338 82.656v1.3125c-0.84 0.64-1.86 1.032-3 1.032h-14v-1h14c1.202 0 2.2695-0.51633 3-1.3438z"/>
   <path id="path4233" style="opacity:.1;stroke:#000;stroke-linecap:round;stroke-width:1px;fill:none" d="m309.5 81.5h22.003"/>
   <path id="path4235" style="opacity:.1;stroke:#000;stroke-linecap:round;stroke-width:1px;fill:none" d="m336.5 76.504v-13.009"/>
   <rect id="rect4237" style="color:#000000;enable-background:accumulate;fill:#729fcf" height="1" width=".99954" y="81" x="307"/>
   <rect id="rect4237-6" style="color:#000000;enable-background:accumulate;fill:#729fcf" height="1" width=".99954" y="81" x="333"/>
   <rect id="rect4237-6-8" style="color:#000000;enable-background:accumulate;fill:#729fcf" height="1" width=".99954" y="78" x="336"/>
   <rect id="rect4237-6-8-5" style="color:#000000;enable-background:accumulate;fill:#729fcf" height="1" width=".99954" y="61" x="336"/>
   <g id="layer4-3" transform="translate(284.98 57.984)">
    <g id="g4694" transform="translate(-2)">
     <rect id="rect2021" style="stroke-linejoin:round;stroke-dashoffset:1.2;stroke:#c00;stroke-linecap:round;stroke-width:.99649;fill:#ef2929" rx="1.4868" ry="1.4868" height="12.004" width="12.004" y="16.498" x="31.498"/>
     <rect id="rect3795" style="opacity:.3;stroke-linejoin:round;stroke-dashoffset:1.2;stroke:#fff;stroke-linecap:round;fill:none" rx=".48614" ry=".48614" height="10" width="10" y="17.5" x="32.5"/>
     <path id="path4682" style="stroke:#fff;stroke-linecap:round;stroke-width:1.5;fill:none" d="m35 20 5 5"/>
     <path id="path4684" style="stroke:#fff;stroke-linecap:round;stroke-width:1.5;fill:none" d="m40 20-5 5"/>
    </g>
   </g>
  </g>
  <g id="g10306" style="enable-background:new" transform="translate(-457.73 -1.3749)">
   <g id="layer3" style="display:none">
    <rect id="rect6282-8" style="enable-background:accumulate;display:inline;fill:#eeeeec" height="256" width="256" y="20" x="20"/>
    <rect id="rect6284-8" style="enable-background:accumulate;display:inline;fill:#eeeeec" height="48" width="48" y="39.996" x="296.06"/>
    <rect id="rect6592-5" style="enable-background:accumulate;display:inline;fill:#eeeeec" height="32" width="32" y="116" x="303"/>
    <rect id="rect6749-0" style="enable-background:accumulate;display:inline;fill:#eeeeec" height="22" width="22" y="167.06" x="303"/>
    <rect id="rect6833-9" style="enable-background:accumulate;display:inline;fill:#eeeeec" height="16" width="16" y="209" x="303"/>
    <rect id="rect5028" style="enable-background:accumulate;display:inline;fill:#eeeeec" height="24" width="24" y="165.95" x="301.96"/>
   </g>
   <g id="layer1-6">
    <rect id="256x256" style="enable-background:accumulate;display:none;fill:#eeeeec" height="256" width="256" y="171.6" x="23.5"/>
    <rect id="48x48" style="enable-background:accumulate;display:none;fill:#eeeeec" height="48" width="48" y="171.6" x="-38.5"/>
    <rect id="24x24" style="enable-background:accumulate;display:none;fill:#eeeeec" height="24" width="24" y="171.6" x="-123.5"/>
    <rect id="16x16" style="enable-background:accumulate;display:none;fill:#eeeeec" height="16" width="16" y="171.6" x="-155.5"/>
    <rect id="32x32" style="enable-background:accumulate;display:none;fill:#eeeeec" height="32" width="32" y="171.6" x="-87.5"/>
   </g>
  </g>
 </g>
</svg>
