<?xml version="1.0" encoding="UTF-8" standalone="no"?>
<!-- Created with Inkscape (http://www.inkscape.org/) -->
<svg id="svg1975" xmlns:rdf="http://www.w3.org/1999/02/22-rdf-syntax-ns#" xmlns="http://www.w3.org/2000/svg" height="48" width="48" version="1.0" xmlns:cc="http://web.resource.org/cc/" xmlns:xlink="http://www.w3.org/1999/xlink" xmlns:dc="http://purl.org/dc/elements/1.1/">
 <metadata id="metadata1980">
  <rdf:RDF>
   <cc:Work rdf:about="">
    <dc:format>image/svg+xml</dc:format>
    <dc:type rdf:resource="http://purl.org/dc/dcmitype/StillImage"/>
    <dc:contributor>
     <cc:Agent>
      <dc:title>Philippe Rouquier
Jakub Steiner
Andreas Nilsson</dc:title>
     </cc:Agent>
    </dc:contributor>
    <dc:creator>
     <cc:Agent>
      <dc:title>Ulisse Perusin</dc:title>
     </cc:Agent>
    </dc:creator>
    <dc:title>Brasero</dc:title>
    <cc:license rdf:resource="http://creativecommons.org/licenses/GPL/2.0/"/>
   </cc:Work>
   <cc:License rdf:about="http://creativecommons.org/licenses/GPL/2.0/">
    <cc:permits rdf:resource="http://web.resource.org/cc/Reproduction"/>
    <cc:permits rdf:resource="http://web.resource.org/cc/Distribution"/>
    <cc:requires rdf:resource="http://web.resource.org/cc/Notice"/>
    <cc:permits rdf:resource="http://web.resource.org/cc/DerivativeWorks"/>
    <cc:requires rdf:resource="http://web.resource.org/cc/ShareAlike"/>
    <cc:requires rdf:resource="http://web.resource.org/cc/SourceCode"/>
   </cc:License>
  </rdf:RDF>
 </metadata>
 <defs id="defs1978">
  <linearGradient id="linearGradient3193">
   <stop id="stop3195" style="stop-color:#ff4d19;" offset="0"/>
   <stop id="stop3197" style="stop-color:#ff4d19;stop-opacity:0.17490494;" offset="1"/>
  </linearGradient>
  <radialGradient id="radialGradient3250" gradientUnits="userSpaceOnUse" cy="41.636" cx="23.335" gradientTransform="matrix(1 0 0 .25 0 31.227)" r="22.627">
   <stop id="stop23421" style="stop-color:#000000;" offset="0"/>
   <stop id="stop23423" style="stop-color:#000000;stop-opacity:0;" offset="1"/>
  </radialGradient>
  <linearGradient id="linearGradient3276" y2="34.308" gradientUnits="userSpaceOnUse" x2="32.511" gradientTransform="matrix(1.1905 0 0 1.1905 -4.3089 -3.8333)" y1="11.188" x1="14.997">
   <stop id="stop3034" style="stop-color:#EBEBEB;" offset="0"/>
   <stop id="stop3036" style="stop-color:#FFFFFF;" offset=".5"/>
   <stop id="stop3038" style="stop-color:#EBEBEB;" offset="1"/>
  </linearGradient>
  <linearGradient id="linearGradient3278" y2="14.203" gradientUnits="userSpaceOnUse" x2="35.391" gradientTransform="matrix(1.1905 0 0 1.1905 -4.3089 -3.8333)" y1="32.416" x1="12.274">
   <stop id="stop3043" style="stop-color:#FBFBFB;" offset="0"/>
   <stop id="stop3045" style="stop-color:#B6B6B6;" offset=".5"/>
   <stop id="stop3047" style="stop-color:#E4E4E4;" offset="1"/>
  </linearGradient>
  <linearGradient id="linearGradient3280" y2="11.67" gradientUnits="userSpaceOnUse" x2="15.889" gradientTransform="translate(.5 -.35355)" y1="24.92" x1="25.986">
   <stop id="stop4411" style="stop-color:#ffffff;" offset="0"/>
   <stop id="stop4413" style="stop-color:#ffffff;stop-opacity:0;" offset="1"/>
  </linearGradient>
  <linearGradient id="linearGradient3282" y2="54.698" gradientUnits="userSpaceOnUse" x2="48.799" gradientTransform="matrix(.99276 0 .00069739 .99543 .081879 -1.2191)" y1="3.61" x1="10.502">
   <stop id="stop6038" style="stop-color:#ffffff;" offset="0"/>
   <stop id="stop6040" style="stop-color:#ffffff;stop-opacity:0;" offset="1"/>
  </linearGradient>
  <linearGradient id="linearGradient3284" y2="18.367" gradientUnits="userSpaceOnUse" x2="17.743" y1="31.495" x1="28.703">
   <stop id="stop6030" style="stop-color:#ffffff;" offset="0"/>
   <stop id="stop6032" style="stop-color:#ffffff;stop-opacity:0;" offset="1"/>
  </linearGradient>
  <linearGradient id="linearGradient3303" y2="40.504" xlink:href="#linearGradient3193" gradientUnits="userSpaceOnUse" x2="11.766" gradientTransform="matrix(.98863 0 0 0.983 .22135 .026636)" y1="19.355" x1="8.0008"/>
  <linearGradient id="linearGradient3327" y2="42.131" xlink:href="#linearGradient3193" gradientUnits="userSpaceOnUse" x2="14.014" y1="20.983" x1="7.0854"/>
  <linearGradient id="linearGradient3339" y2="21.817" xlink:href="#linearGradient3193" gradientUnits="userSpaceOnUse" x2="24.452" y1="8.6697" x1="22.804"/>
  <linearGradient id="linearGradient3341" y2="23.209" gradientUnits="userSpaceOnUse" x2="23.359" y1="17.026" x1="23.413">
   <stop id="stop3345" style="stop-color:#fce94f;stop-opacity:0.8326996;" offset="0"/>
   <stop id="stop3347" style="stop-color:#fec446;" offset="1"/>
  </linearGradient>
  <linearGradient id="linearGradient3355" y2="35.157" xlink:href="#linearGradient3193" gradientUnits="userSpaceOnUse" x2="16.148" gradientTransform="matrix(.98863 0 0 0.983 .22135 .026636)" y1="16.274" x1="11.391"/>
  <linearGradient id="linearGradient3363" y2="29.433" gradientUnits="userSpaceOnUse" x2="27.001" y1="10.07" x1="24.456">
   <stop id="stop3405" style="stop-color:#f5a200;stop-opacity:0.88973385;" offset="0"/>
   <stop id="stop3407" style="stop-color:#f55f00;" offset="1"/>
  </linearGradient>
  <linearGradient id="linearGradient3383" y2="36.802" xlink:href="#linearGradient3193" gradientUnits="userSpaceOnUse" x2="38.559" y1="9.6719" x1="35.673"/>
  <linearGradient id="linearGradient3391" y2="33.675" xlink:href="#linearGradient3193" gradientUnits="userSpaceOnUse" x2="37.591" y1="17.268" x1="34.352"/>
  <linearGradient id="linearGradient3401" y2="31.996" xlink:href="#linearGradient3193" gradientUnits="userSpaceOnUse" x2="41.335" y1="12.519" x1="38.884"/>
  <linearGradient id="linearGradient3199" y2="45.574" xlink:href="#linearGradient3193" gradientUnits="userSpaceOnUse" x2="15.29" gradientTransform="matrix(1.0015 0 0 .99922 .023526 -.069318)" y1="31.256" x1="7.735"/>
  <linearGradient id="linearGradient3203" y2="32.045" xlink:href="#linearGradient3193" gradientUnits="userSpaceOnUse" x2="22.547" gradientTransform="matrix(.40740 0 0 .51709 14.505 9.2939)" y1="9.3393" x1="24.533"/>
  <linearGradient id="linearGradient3209" y2="30.322" xlink:href="#linearGradient3193" gradientUnits="userSpaceOnUse" x2="20.155" gradientTransform="matrix(.48888 0 0 .49065 20.006 26.123)" y1="9.1634" x1="24.533"/>
 </defs>
 <path id="path23417" style="opacity:0.55;marker-end:none;fill-rule:evenodd;color:#000000;marker-start:none;marker-mid:none;fill:url(#radialGradient3250);" d="m45.962 41.636a22.627 5.6569 0 1 1 -45.255 0 22.627 5.6569 0 1 1 45.255 0z" transform="matrix(.79550 0 0 1.0607 .43750 -2.1617)"/>
 <path id="path1066" style="opacity:0.9;stroke-linejoin:round;fill-rule:nonzero;stroke:url(#linearGradient3391);stroke-linecap:round;stroke-miterlimit:4;stroke-dasharray:none;stroke-width:0.99999994;fill:url(#linearGradient3401);" d="m24.843 43.059c1.981 2.68 16.754 3.095 20.137-13.201 3.136-15.107-8.976-27.928-13.473-29.36 4 11.767 4.334 32.276-6.664 42.561z"/>
 <path id="path3207" style="opacity:0.94636015;fill-rule:evenodd;fill:url(#linearGradient3209);" d="m40.985 22.945c-0.506 4.246-15.241 14.25-10 18.054 5.751 0.093 10.743-6.595 10-18.054z"/>
 <path id="path3365" style="opacity:0.9;stroke-linejoin:miter;stroke-opacity:0.90494301;stroke:url(#linearGradient3383);stroke-linecap:round;stroke-miterlimit:4;stroke-dasharray:none;stroke-width:1;fill:none;" d="m33.312 2.6562c2.029 5.607 3.846 11.977 4.032 18.406 0.21 7.291-1.615 14.552-7.375 19.938-0.021 0.011-0.042 0.022-0.063 0.031-0.314 0.259-0.283 0.325-0.281 0.344s0.057 0.165 0.344 0.375c0.573 0.419 1.976 0.829 3.656 0.594 3.361-0.471 7.95-3.202 10.406-11.782 1.732-7.208-1.265-15.017-4.875-20.781-1.805-2.8818-3.77-5.2331-5.281-6.6872-0.235-0.2264-0.351-0.2569-0.563-0.4376z" xlink:href="#path1066" transform="translate(-.035601 -.15625)"/>
 <g id="layer1" transform="matrix(.83637 0 -.21868 0.888 7.3767 5.984)">
  <path id="path3040" style="fill-rule:nonzero;fill:url(#linearGradient3276);" d="m24.262 2.8333c-11.547 0-20.833 9.2857-20.833 20.834 0.0002 11.547 9.286 20.833 20.833 20.833 11.548 0 20.834-9.286 20.834-20.833 0-11.548-9.286-20.834-20.834-20.834v0.0003zm0 25.834c-2.738 0-5-2.262-5-5s2.262-5 5-5c2.739 0 5 2.262 5 5s-2.261 5-5 5z"/>
  <path id="path3049" style="fill-rule:nonzero;stroke:#808080;stroke-miterlimit:4;stroke-width:1.16036713;fill:url(#linearGradient3278);" d="m24.262 2.8333c-11.547 0-20.833 9.2857-20.833 20.834 0.0002 11.547 9.286 20.833 20.833 20.833 11.548 0 20.834-9.286 20.834-20.833 0-11.548-9.286-20.834-20.834-20.834v0.0003zm0.059 25.944c-2.738 0-4.721-2.317-4.721-5.055s1.939-5.111 4.677-5.111c2.739 0 4.64 2.345 4.64 5.083s-1.858 5.083-4.596 5.083z"/>
  <path id="path3531" style="fill-rule:nonzero;fill:url(#linearGradient3280);" d="m23.411 3.4588c-10.762 0.4059-19.3 9.2172-19.3 20.082-0.0001 4.926 1.7471 9.403 4.6668 12.887l11.117-9.411c-0.721-0.843-1.049-2.043-1.049-3.226 0-3.39 2.304-5.567 5.567-5.567 1.484 0 2.971 0.673 3.859 1.746l11.367-9.285c-3.675-4.4243-9.244-7.2262-15.476-7.2262-0.261 0-0.494-0.0098-0.752 0z"/>
  <path id="path3051" style="opacity:0.51098902;fill-rule:nonzero;fill:#eeeeec;" d="m24.19 13.532c-5.489 0-9.793 4.606-9.749 10.135 0.045 5.66 4.548 10.135 9.909 10.135 5.489 0 9.793-4.607 9.749-10.135-0.044-5.66-4.548-10.135-9.909-10.135zm0.124 15.663c-2.936 0-5.381-2.501-5.405-5.528-0.024-3.028 2.382-5.529 5.317-5.529 2.936 0 5.382 2.501 5.405 5.529 0.024 3.027-2.381 5.528-5.317 5.528z"/>
  <path id="path5264" style="opacity:0.54644811;stroke:url(#linearGradient3282);stroke-miterlimit:4;stroke-width:1.16036701;fill:none;" d="m24.256 3.9595c-10.894 0-19.648 8.7835-19.64 19.708 0.0074 10.922 8.774 19.706 19.668 19.706s19.648-8.784 19.641-19.707c-0.008-10.924-8.775-19.708-19.669-19.708v0.0005z"/>
  <path id="path6026" style="opacity:0.67213111;stroke-linejoin:miter;marker-end:none;color:#000000;marker-start:none;stroke-dashoffset:0;stroke:url(#linearGradient3284);stroke-linecap:butt;stroke-miterlimit:4;stroke-width:1.09311533;marker-mid:none;fill:none;" d="m30.406 24.931a6.0988 6.0988 0 1 1 -12.198 0 6.0988 6.0988 0 1 1 12.198 0z" transform="matrix(.95475 0 .017577 1.022 .62510 -1.8117)"/>
 </g>
 <path id="path1067" style="opacity:0.9;stroke-linejoin:round;fill-rule:evenodd;stroke:url(#linearGradient3363);stroke-linecap:round;stroke-miterlimit:4;stroke-dasharray:none;stroke-width:0.99999994;fill:url(#linearGradient3341);" d="m23.523 3.5013c-0.061 4.426-1.853 7.2027-3.2 10.26-2.439 5.536-3.331 11.29 2.135 14.679 5.26-1.277 14.537-13.478 1.065-24.939z"/>
 <path id="path1064" style="stroke-linejoin:round;opacity:0.9;fill-rule:nonzero;stroke:url(#linearGradient3355);stroke-linecap:square;stroke-miterlimit:4;stroke-dasharray:none;stroke-width:0.99999988;fill:url(#linearGradient3303);" d="m12.689 29.64c1.884 4.364 4.977 5.911 6.522 10.489 0.65 1.784 0.064 3.773-1.393 5.129-1.522 1.417-3.497 1.424-5.493 0.989-4.5075-0.984-7.1561-4.336-8.4923-8.269-4.8784-14.362 4.5263-26.288 13.805-36.411-2.878 9.036-8.5916 18.072-4.949 28.073z"/>
 <path id="path3329" style="opacity:0.9;stroke-linejoin:miter;stroke:url(#linearGradient3339);stroke-linecap:butt;stroke-miterlimit:4;stroke-dasharray:none;stroke-width:1.00124776;fill:none;" d="m24.406 5.8438c-0.056 4.042-0.384 7.7522-2.031 9.9372-1.266 1.681-2.634 3.782-2.906 5.781-0.259 1.902 0.334 3.764 3.156 5.75 0.999-0.344 2.246-1.128 3.406-2.374 1.299-1.396 2.464-3.254 3.063-5.407 1.082-3.889 0.245-8.704-4.688-13.687z" xlink:href="#path1067" transform="matrix(.99030 0 0 1.0073 .27449 -.011281)"/>
 <path id="path3293" style="stroke-linejoin:miter;stroke:url(#linearGradient3327);stroke-linecap:square;stroke-miterlimit:6.4;stroke-dasharray:none;stroke-width:1;fill:none;" d="m15.438 4.7188c-1.567 1.5427-3.291 3.5176-4.969 6.1252-2.7142 4.217-5.1789 9.339-6.344 13.625-0.9242 3.399-0.7154 10.675 0.5 13.75 1.5375 3.661 4.1923 6.247 8.031 7.843v0.032c1.527 0.656 3.174 0.339 4.438-0.844 1.205-1.128 1.662-2.729 1.156-4.125-0.722-2.151-1.831-3.552-3.062-5.063-1.232-1.51-2.603-3.135-3.532-5.562-2.4456-6.392-0.352-11.391 0.532-15.188 0.874-3.703 2.038-7.1322 3.25-10.593z" xlink:href="#path1064" transform="translate(.046636 -.21875)"/>
 <path id="path2220" style="opacity:0.94636015;fill-rule:evenodd;fill:url(#linearGradient3199);" d="m8.0787 21c-5.9146 14.907 2.1993 22.988 6.8603 21.903 4.82-5.633-8.4322-7.653-6.8603-21.903z"/>
 <path id="path3201" style="opacity:0.94636015;fill-rule:evenodd;fill:url(#linearGradient3203);" d="m25.322 12c-0.422 4.475-6.035 7.991-1.667 12 1.993-0.477 5.416-3.945 1.667-12z"/>
</svg>
