<?xml version="1.0" encoding="UTF-8" standalone="no"?>
<!-- Created with Inkscape (http://www.inkscape.org/) -->
<svg id="svg7854" xmlns:rdf="http://www.w3.org/1999/02/22-rdf-syntax-ns#" xmlns="http://www.w3.org/2000/svg" height="48" width="48" version="1.0" xmlns:cc="http://web.resource.org/cc/" xmlns:xlink="http://www.w3.org/1999/xlink" xmlns:dc="http://purl.org/dc/elements/1.1/">
 <defs id="defs7856">
  <linearGradient id="linearGradient5817">
   <stop id="stop5819" style="stop-color:#fff" offset="0"/>
   <stop id="stop5821" style="stop-color:#fff;stop-opacity:0" offset="1"/>
  </linearGradient>
  <radialGradient id="radialGradient6719" xlink:href="#linearGradient5060" gradientUnits="userSpaceOnUse" cy="486.65" cx="605.71" gradientTransform="matrix(-2.7744 0 0 1.9697 112.76 -872.89)" r="117.14"/>
  <linearGradient id="linearGradient5060">
   <stop id="stop5062" offset="0"/>
   <stop id="stop5064" style="stop-opacity:0" offset="1"/>
  </linearGradient>
  <radialGradient id="radialGradient6717" xlink:href="#linearGradient5060" gradientUnits="userSpaceOnUse" cy="486.65" cx="605.71" gradientTransform="matrix(2.7744 0 0 1.9697 -1891.6 -872.89)" r="117.14"/>
  <linearGradient id="linearGradient6715" y2="609.51" gradientUnits="userSpaceOnUse" x2="302.86" gradientTransform="matrix(2.7744 0 0 1.9697 -1892.2 -872.89)" y1="366.65" x1="302.86">
   <stop id="stop5050" style="stop-opacity:0" offset="0"/>
   <stop id="stop5056" offset=".5"/>
   <stop id="stop5052" style="stop-opacity:0" offset="1"/>
  </linearGradient>
  <linearGradient id="linearGradient5497" y2="19.573" gradientUnits="userSpaceOnUse" x2="15.876" gradientTransform="matrix(1 0 0 1.0126 0 1.7922)" y1="39.987" x1="15.876">
   <stop id="stop5493" style="stop-color:#959792" offset="0"/>
   <stop id="stop5501" style="stop-color:#838681" offset=".25"/>
   <stop id="stop5499" style="stop-color:#abaca9" offset=".62437"/>
   <stop id="stop5771" style="stop-color:#fff" offset=".79696"/>
   <stop id="stop5495" style="stop-color:#90928d" offset="1"/>
  </linearGradient>
  <linearGradient id="linearGradient5514" y2="49.359" gradientUnits="userSpaceOnUse" x2="23.892" gradientTransform="matrix(1 0 0 .99858 0 2.0574)" y1="21.859" x1="21.5">
   <stop id="stop5510" style="stop-color:#fff" offset="0"/>
   <stop id="stop5512" style="stop-color:#fff;stop-opacity:0" offset="1"/>
  </linearGradient>
  <linearGradient id="linearGradient5540" y2="23.059" gradientUnits="userSpaceOnUse" x2="35.315" y1="38.791" x1="38.907">
   <stop id="stop5536" style="stop-color:#888a85" offset="0"/>
   <stop id="stop5538" style="stop-color:#6b6d68" offset="1"/>
  </linearGradient>
  <linearGradient id="linearGradient6838" y2="8.625" gradientUnits="userSpaceOnUse" x2="30.25" gradientTransform="matrix(1.053 0 0 1 -2.245 0)" y1="10.232" x1="30.25">
   <stop id="stop6834" style="stop-color:#555753" offset="0"/>
   <stop id="stop6836" style="stop-color:#838680" offset="1"/>
  </linearGradient>
  <radialGradient id="radialGradient6848" gradientUnits="userSpaceOnUse" cy="31.953" cx="34.312" gradientTransform="matrix(1 0 0 1.5548 0 -17.727)" r="2.2812">
   <stop id="stop6844" style="stop-color:#d8d9d7" offset="0"/>
   <stop id="stop6846" style="stop-color:#7c7f79" offset="1"/>
  </radialGradient>
  <filter id="filter6876" height="1.1596" width="1.2482" y="-.079811" x="-.12409">
   <feGaussianBlur id="feGaussianBlur6878" stdDeviation="0.28308036"/>
  </filter>
  <linearGradient id="linearGradient5617" y2="29.516" gradientUnits="userSpaceOnUse" x2="33.781" y1="35.5" x1="34.125">
   <stop id="stop5613" style="stop-color:#5e5e5e" offset="0"/>
   <stop id="stop5615" style="stop-color:#929292" offset="1"/>
  </linearGradient>
  <linearGradient id="linearGradient5679" y2="31.648" gradientUnits="userSpaceOnUse" x2="11.655" gradientTransform="translate(2.6056 -.14901)" y1="25.804" x1="12.164">
   <stop id="stop5635" style="stop-color:#f8f8f8" offset="0"/>
   <stop id="stop5637" style="stop-color:#c7c7c1" offset="1"/>
  </linearGradient>
  <linearGradient id="linearGradient5681" y2="24.03" gradientUnits="userSpaceOnUse" x2="18.973" gradientTransform="translate(-1.0625)" y1="39.454" x1="20.882">
   <stop id="stop5662" style="stop-color:#cbcbcb" offset="0"/>
   <stop id="stop5664" style="stop-color:#9f9f9f" offset="1"/>
  </linearGradient>
  <linearGradient id="linearGradient5689" y2="34.937" gradientUnits="userSpaceOnUse" x2="17.688" y1="25.374" x1="16.207">
   <stop id="stop5685" style="stop-color:#fff" offset="0"/>
   <stop id="stop5687" style="stop-color:#fff;stop-opacity:0" offset="1"/>
  </linearGradient>
  <filter id="filter5733" height="1.7146" width="1.1526" y="-.35729" x="-.076276">
   <feGaussianBlur id="feGaussianBlur5735" stdDeviation="0.60003059"/>
  </filter>
  <linearGradient id="linearGradient5743" y2="26.118" gradientUnits="userSpaceOnUse" x2="26.719" y1="16.572" x1="27.445">
   <stop id="stop5739" style="stop-color:#babdb6" offset="0"/>
   <stop id="stop5741" style="stop-color:#dddedb" offset="1"/>
  </linearGradient>
  <linearGradient id="linearGradient5757" y2="43.938" gradientUnits="userSpaceOnUse" x2="14.632" gradientTransform="translate(-.093174 -1.0625)" y1="34.454" x1="14.444">
   <stop id="stop5625" style="stop-color:#fff" offset="0"/>
   <stop id="stop5627" style="stop-color:#fff;stop-opacity:0" offset="1"/>
  </linearGradient>
  <radialGradient id="radialGradient5791" gradientUnits="userSpaceOnUse" cy="29.84" cx="30.128" gradientTransform="matrix(1.7481 0 0 1.7805 -23.043 -23.568)" r="6.9986">
   <stop id="stop5787" style="stop-color:#f1f1f0" offset="0"/>
   <stop id="stop5789" style="stop-color:#555753" offset="1"/>
  </radialGradient>
  <linearGradient id="linearGradient5815" y2="10.435" xlink:href="#linearGradient5817" gradientUnits="userSpaceOnUse" x2="38.537" y1="8.6672" x1="38.449"/>
  <linearGradient id="linearGradient5823" y2="12.291" xlink:href="#linearGradient5817" gradientUnits="userSpaceOnUse" x2="38.626" y1="8.6672" x1="38.449"/>
  <linearGradient id="linearGradient5827" y2="10.435" xlink:href="#linearGradient5817" gradientUnits="userSpaceOnUse" x2="38.537" gradientTransform="translate(.015625 -.023438)" y1="8.6672" x1="38.449"/>
  <linearGradient id="linearGradient5831" y2="9.8352" xlink:href="#linearGradient5817" gradientUnits="userSpaceOnUse" x2="42.913" y1="9.4375" x1="40.546"/>
  <linearGradient id="linearGradient5662" y2="30.147" gradientUnits="userSpaceOnUse" x2="9.5376" y1="43.938" x1="9.955">
   <stop id="stop5658" style="stop-color:#4e83c7" offset="0"/>
   <stop id="stop5665" style="stop-color:#4573a9" offset=".24324"/>
   <stop id="stop5660" style="stop-color:#729fcf" offset="1"/>
  </linearGradient>
 </defs>
 <metadata id="metadata7859">
  <rdf:RDF>
   <cc:Work rdf:about="">
    <dc:format>image/svg+xml</dc:format>
    <dc:type rdf:resource="http://purl.org/dc/dcmitype/StillImage"/>
    <dc:creator>
     <cc:Agent>
      <dc:title>Jakub Steiner</dc:title>
     </cc:Agent>
    </dc:creator>
    <dc:source>http://jimmac.musichall.cz</dc:source>
    <cc:license rdf:resource="http://creativecommons.org/licenses/GPL/2.0/"/>
    <dc:title>File Roller</dc:title>
    <dc:subject>
     <rdf:Bag>
      <rdf:li>file</rdf:li>
      <rdf:li>roller</rdf:li>
      <rdf:li>compressed</rdf:li>
      <rdf:li>handler</rdf:li>
      <rdf:li>unzip</rdf:li>
      <rdf:li>tar</rdf:li>
      <rdf:li>archive</rdf:li>
      <rdf:li>extract</rdf:li>
      <rdf:li>compress</rdf:li>
     </rdf:Bag>
    </dc:subject>
   </cc:Work>
   <cc:License rdf:about="http://creativecommons.org/licenses/GPL/2.0/">
    <cc:permits rdf:resource="http://web.resource.org/cc/Reproduction"/>
    <cc:permits rdf:resource="http://web.resource.org/cc/Distribution"/>
    <cc:requires rdf:resource="http://web.resource.org/cc/Notice"/>
    <cc:permits rdf:resource="http://web.resource.org/cc/DerivativeWorks"/>
    <cc:requires rdf:resource="http://web.resource.org/cc/ShareAlike"/>
    <cc:requires rdf:resource="http://web.resource.org/cc/SourceCode"/>
   </cc:License>
  </rdf:RDF>
 </metadata>
 <g id="layer1">
  <g id="g3952" style="opacity:.6" transform="matrix(.020031 0 0 .014190 39.92 42.113)">
   <rect id="rect3954" style="opacity:.40206;color:#000000;fill:url(#linearGradient6715)" height="478.36" width="1339.6" y="-150.7" x="-1559.3"/>
   <path id="path3956" style="opacity:.40206;color:#000000;fill:url(#radialGradient6717)" d="m-219.62-150.68v478.33c142.88 0.9 345.4-107.17 345.4-239.2 0-132.02-159.44-239.13-345.4-239.13z"/>
   <path id="path3958" style="opacity:.40206;color:#000000;fill:url(#radialGradient6719)" d="m-1559.3-150.68v478.33c-142.8 0.9-345.4-107.17-345.4-239.2 0-132.02 159.5-239.13 345.4-239.13z"/>
  </g>
  <path id="path5759" style="stroke-linejoin:round;fill-rule:evenodd;color:#000000;stroke:#204a87;fill:#3465a4" d="m20.671 38.122l18.567 0.28c0.36 0 0.423 0.677 0.423 0.677-0.747 2.79-3.874 4.356-5.966 4.356l-23.57 0.032c7.234-0.452 7.737-0.885 8.307-4.039 0.489-0.988 1.401-1.306 2.239-1.306z"/>
  <path id="path5472" style="stroke-width:.99715;color:black;stroke:#555753;stroke-linecap:square;fill:url(#linearGradient5497)" d="m10 20.525c-3.588 0-6.5 4.99-6.5 11.138s2.912 10.87 6.5 10.87c0.086 0 0.165-0.026 0.25-0.032v0.032h22.22v-22.034s-14.813 0.188-22.47 0.026z"/>
  <path id="path4585" style="stroke-width:.99715;color:black;stroke:url(#radialGradient5791);stroke-linecap:square;fill:url(#linearGradient5540)" d="m43.125 29.562a6.5 10.938 0 1 1 -13 0 6.5 10.938 0 1 1 13 0z" transform="matrix(1 0 0 1.0057 -3.625 1.7686)"/>
  <path id="path5503" style="opacity:.41714;stroke-width:.99715;color:black;stroke:url(#linearGradient5514);stroke-linecap:square;fill:none" d="m32.474 21.499s-14.974 0.174-21.948 0.028c-3.2673 0-5.9194 4.474-5.9194 9.987s2.6521 9.987 5.9194 9.987c0.078 0 0.151-0.023 0.228-0.028v0.028h21.72c3.267 0 5.919-4.474 5.919-9.987s-2.652-9.987-5.919-9.987v-0.028z"/>
  <path id="path5477" style="fill-rule:evenodd;stroke:#555753;fill:url(#linearGradient5743)" d="m22.188 8.5034c-1.054 0-1.895 0.46-2.376 1.25l-5.281 9.9686-0.375 0.75h0.813 1.125 0.312l0.125-0.281 4.907-9.281c0.097-0.157 0.424-0.407 0.75-0.407l21.671 0.008c0.21-0.015 0.285 0.199 0.211 0.297l-10.914 19.883-0.25 0.437 0.438 0.25 0.875 0.469 0.437 0.219 0.25-0.438 11.063-20.156c0.37-0.626 0.241-1.321-0.063-1.8749-0.336-0.6143-1.024-1.1129-1.906-1.0937h-21.812z"/>
  <rect id="rect6826" style="color:black;stroke:#2e3436;stroke-linecap:square;fill:url(#linearGradient6838)" rx="2" ry="2" height="4" width="19.875" y="7.5" x="22.5"/>
  <path id="path6850" style="opacity:.38286;color:#000000;filter:url(#filter6876);stroke:#2e3436;stroke-linecap:square;stroke-width:1.1361;fill:#2e3436" d="m35.562 31.953a1.7812 3.0469 0 1 1 -3.562 0 1.7812 3.0469 0 1 1 3.562 0z" transform="matrix(1 0 0 .77472 -.50758 8.1057)"/>
  <path id="path6840" style="color:black;stroke:url(#linearGradient5617);stroke-linecap:square;fill:url(#radialGradient6848)" d="m35.562 31.953a1.7812 3.0469 0 1 1 -3.562 0 1.7812 3.0469 0 1 1 3.562 0z"/>
  <path id="rect5631" style="color:#000000;stroke:url(#linearGradient5681);stroke-linecap:square;fill:url(#linearGradient5679)" d="m8.4947 23.5h15.029c0.471 0 0.914 0.505 0.538 1.007-2.6 4.317-1.635 10.006 0.063 14.14 0 0.472-0.38 0.851-0.851 0.851l-15.217 1.313c-0.4713 0-0.6945-0.536-0.6945-1.007-0.2385-4.746-3.7041-11.546 0.4817-16.095 0 0 0.179-0.209 0.6505-0.209z"/>
  <path id="path5677" style="color:#000000;stroke:url(#linearGradient5689);stroke-linecap:square;fill:none" d="m8.4688 24.5c-1.7562 1.974-1.9483 4.366-1.5938 7.062 0.3598 2.737 1.3072 5.596 1.4375 8.188 0.0002 0.01 0.0002 0.021 0 0.031l14.656-1.281c-1.588-4.108-2.423-9.524-0.03-14h-14.469z" xlink:href="#rect5631"/>
  <path id="path5691" style="opacity:.20571;filter:url(#filter5733);fill-rule:evenodd" d="m8 29.579l5.082 0.177 0.398 1.37 10.032 0.751 0.221 1.061-15.247-0.221-0.486-3.138z"/>
  <path id="rect337" style="stroke-linejoin:round;fill-rule:evenodd;color:#000000;stroke:#204a87;fill:url(#linearGradient5662)" d="m21.954 32.404h-8.996c-0.333 0-0.72-0.178-1.003-0.413-0.122-0.101-0.413-2.122-0.49-2.183-0.255-0.204-0.558-0.355-0.814-0.356l-7.7207-0.044c-0.3602 0-0.4237 0.677-0.4237 0.677-0.1401 5.33 1.9424 13.344 7.7984 13.32l23.57 0.033c-7.234-0.453-9.112-6.574-9.682-9.727-0.489-0.989-1.401-1.307-2.239-1.307z"/>
  <path id="path5619" style="opacity:.37714;color:#000000;stroke:url(#linearGradient5757);fill:none" d="m3.5006 30.469c-0.0192 2.462 0.4375 5.491 1.5312 7.843 1.1413 2.456 2.7418 4.042 5.1872 4.032l17.719 0.031c-2.851-1.873-4.004-4.988-4.781-8.187-0.303-0.613-0.717-0.719-1.281-0.719h-9c-0.696 0-1.237-0.283-1.688-0.657-0.301-0.25-0.277-0.356-0.312-0.437-0.036-0.081-0.046-0.132-0.063-0.187-0.034-0.112-0.067-0.228-0.094-0.344-0.052-0.233-0.105-0.484-0.156-0.75-0.042-0.22-0.06-0.422-0.094-0.594l-6.9684-0.031z"/>
  <path id="path5745" style="color:#000000;fill:#fff" d="m45.697 10.258a1.0607 1.0607 0 1 1 -2.122 0 1.0607 1.0607 0 1 1 2.122 0z" transform="matrix(.30995 0 0 .30995 31.494 6.4918)"/>
  <path id="path5752" style="fill:#fff;fill-rule:evenodd" d="m20.815 10.479l-4.949 9.502h-0.398l5.347-9.502z"/>
  <path id="path5754" style="fill:#fff;fill-rule:evenodd" d="m45.255 11.186l-9.9 18.208-0.265-0.442 10.165-17.766z"/>
  <path id="path5793" style="color:#000000;fill:#fff" d="m45.697 10.258a1.0607 1.0607 0 1 1 -2.122 0 1.0607 1.0607 0 1 1 2.122 0z" transform="matrix(.25265 0 0 .25265 9.7197 7.1513)"/>
  <path id="path5795" style="opacity:.53143;fill:#fff;fill-rule:evenodd" d="m39.156 38.938c-0.25 1.812-2.718 3.593-5.062 4.031 1.517-0.612 3.773-1.293 5.062-4.031z"/>
  <path id="path5797" style="opacity:.53143;color:#000000;fill:url(#linearGradient5823)" d="m38.188 8.0185c-0.524 0.1361-0.938 0.7331-0.938 1.4375 0 0.791 0.506 1.446 1.125 1.469h0.031 2.25 0.032c0.618-0.023 1.125-0.678 1.124-1.469 0-0.7906-0.506-1.4147-1.124-1.4375h-0.25-1.813-0.219c-0.011 0-0.02-0.0004-0.031 0-0.067 0.0025-0.123-0.0166-0.187 0z"/>
  <path id="path5829" style="opacity:.48571;color:#000000;fill:url(#linearGradient5831)" d="m41.719 9.4375a0.70312 1.1562 0 1 1 -1.407 0 0.70312 1.1562 0 1 1 1.407 0z" transform="matrix(1.2222 0 0 1 -9.2655 .022097)"/>
  <path id="path6880" style="fill:#babdb6;fill-rule:evenodd" d="m43.875 9h-2.516c-0.664 0-0.595 1 0 1h2.25l0.266-1z"/>
  <path id="path5804" style="opacity:.53143;color:#000000;fill:url(#linearGradient5815)" d="m24.312 8.0312c-0.658 0-1.249 0.6325-1.25 1.4376 0 0.8052 0.576 1.5152 1.235 1.5152l1.56 0.034c-0.419-0.189-0.936-0.705-0.936-1.5401 0-0.8198 0.567-1.3238 0.898-1.4714-0.31-0.0446-1.22 0.0247-1.507 0.0247z"/>
  <rect id="rect5825" style="color:#000000;fill:url(#linearGradient5827)" rx=".09375" ry=".09375" height=".1875" width="2.7812" y="9.1641" x="41.234"/>
  <path id="path5747" style="color:#000000;fill:#fff" d="m40.204 8.5833c-0.182 0-0.329 0.1477-0.329 0.3296 0 0.0455 0.024 0.0842 0.041 0.1236-0.14 0.2759-0.09 0.7924 0.474 1.2775-0.351-0.443-0.379-0.8118-0.268-1.0921 0.028 0.0079 0.051 0.0206 0.082 0.0206 0.182 0 0.33-0.1476 0.33-0.3296 0-0.1819-0.148-0.3296-0.33-0.3296z"/>
 </g>
</svg>
