<?xml version="1.0" encoding="UTF-8" standalone="no"?>
<!-- Created with Inkscape (http://www.inkscape.org/) -->
<svg id="svg2" xmlns:rdf="http://www.w3.org/1999/02/22-rdf-syntax-ns#" xmlns="http://www.w3.org/2000/svg" height="256" width="256" version="1.1" xmlns:cc="http://creativecommons.org/ns#" xmlns:xlink="http://www.w3.org/1999/xlink" xmlns:dc="http://purl.org/dc/elements/1.1/">
 <defs id="defs4">
  <linearGradient id="linearGradient3611" y2="252.44" gradientUnits="userSpaceOnUse" x2="128.29" y1="7.0228" x1="128.29">
   <stop id="stop3607" style="stop-color:#d3d7cf;" offset="0"/>
   <stop id="stop3609" style="stop-color:#ffffff;" offset="1"/>
  </linearGradient>
  <linearGradient id="linearGradient3041" y2="47.689" gradientUnits="userSpaceOnUse" y1="25.019" gradientTransform="matrix(0 9.4698 -9.0921 0 473.28 -556.22)" x2="55.074" x1="55.074">
   <stop id="stop2901" style="stop-color:#555753;" offset="0"/>
   <stop id="stop2903" style="stop-color:#2e3436;" offset="1"/>
  </linearGradient>
 </defs>
 <metadata id="metadata7">
  <rdf:RDF>
   <cc:Work rdf:about="">
    <dc:format>image/svg+xml</dc:format>
    <dc:type rdf:resource="http://purl.org/dc/dcmitype/StillImage"/>
    <dc:title/>
   </cc:Work>
  </rdf:RDF>
 </metadata>
 <g id="layer1" transform="translate(-16.182 112.24)">
  <text id="text3849" style="font-size:144px;font-family:Bitstream Vera Sans;font-weight:normal;font-style:normal;fill:#ffffff;" xml:space="preserve" transform="translate(16.182 -112.24)" y="83.263916" x="83.842659"><tspan id="tspan3851" x="83.842659" y="83.263916"/></text>
  <rect id="rect2823" ry="49.497" style="stroke-linejoin:round;stroke:#555753;stroke-linecap:butt;stroke-miterlimit:4;stroke-dasharray:none;stroke-width:5;fill:url(#linearGradient3611);" transform="translate(16.182 -112.24)" height="240.42" width="242.44" y="9.5228" x="7.0711"/>
  <path id="path17399" style="fill:url(#linearGradient3041);" d="m165.29 59.189c-22.545 1.0635-30.881-5.1075-42.263-23.674-2.2953-3.7446-4.7022-7.5115-7.8941-11.274h-40.68c-2.321 7.44-9.031 12.816-16.947 12.816-9.8419 0-17.817-8.3114-17.817-18.558 0-10.246 7.9756-18.558 17.817-18.558 7.9155 0 14.626 5.38 16.947 12.816h22.691c3.1619-8.566 5.7661-18.374 11.618-25.037 6.7314-7.6635 17.019-10.738 34.056-9.8843 2.4112-7.2836 9.0482-12.516 16.856-12.516 9.8377 0 17.817 8.3069 17.817 18.558s-7.9756 18.558-17.817 18.558c-8.0228 0-14.806-5.5185-17.041-13.11-16.093-0.85348-22.292 2.2342-25.733 6.1486-3.3721 3.8384-5.882 10.916-8.0742 17.284h101.44v-15.479l35.541 21.221-35.541 21.225v-15.479h-81.163c9.4986 14.295 10.953 24.554 36.188 23.433v-10.715h30.53v31.793h-30.53v-9.567h-0.005z"/>
 </g>
</svg>
