<?xml version="1.0" encoding="UTF-8" standalone="no"?>
<!-- Created with Inkscape (http://www.inkscape.org/) -->
<svg id="svg2" xmlns:rdf="http://www.w3.org/1999/02/22-rdf-syntax-ns#" xmlns="http://www.w3.org/2000/svg" height="48" width="48" version="1.0" xmlns:cc="http://creativecommons.org/ns#" xmlns:xlink="http://www.w3.org/1999/xlink" xmlns:dc="http://purl.org/dc/elements/1.1/">
 <defs id="defs4">
  <filter id="filter5296" height="1.6682" width="1.1963" y="-.33412" x="-.098147">
   <feGaussianBlur id="feGaussianBlur5298" stdDeviation="0.81788793"/>
  </filter>
  <linearGradient id="linearGradient9633">
   <stop id="stop9635" style="stop-color:#eeeeec;" offset="0"/>
   <stop id="stop9639" style="stop-color:#888a85;" offset="1"/>
  </linearGradient>
  <linearGradient id="linearGradient2909">
   <stop id="stop2911" style="stop-color:white;stop-opacity:0;" offset="0"/>
   <stop id="stop2917" style="stop-color:white;" offset=".5"/>
   <stop id="stop2913" style="stop-color:white;stop-opacity:0;" offset="1"/>
  </linearGradient>
  <linearGradient id="linearGradient3474" y2="14.998" gradientUnits="userSpaceOnUse" x2="24.999" gradientTransform="matrix(1 0 0 .99556 0 -3.9311)" y1="35.355" x1="24.749">
   <stop id="stop3470" style="stop-color:#fdfdfc;" offset="0"/>
   <stop id="stop3472" style="stop-color:white;stop-opacity:0.37121212;" offset="1"/>
  </linearGradient>
  <radialGradient id="radialGradient4700" xlink:href="#linearGradient9633" gradientUnits="userSpaceOnUse" cy="17" cx="0" gradientTransform="matrix(4.0958 0 0 3.1013 -9.5392 -94.543)" r="2"/>
  <radialGradient id="radialGradient4702" xlink:href="#linearGradient9633" gradientUnits="userSpaceOnUse" cy="17" cx="0" gradientTransform="matrix(4.0958 0 0 3.1013 38.21 -10.9)" r="2"/>
  <linearGradient id="linearGradient4704" y2="13.979" gradientUnits="userSpaceOnUse" x2="9.8995" gradientTransform="matrix(2.0479 0 0 2.0675 1.3476 6.6737)" y1="20" x1="9.8995">
   <stop id="stop2902" style="stop-color:black;stop-opacity:0;" offset="0"/>
   <stop id="stop2908" style="stop-color:black;" offset=".5"/>
   <stop id="stop2904" style="stop-color:black;stop-opacity:0;" offset="1"/>
  </linearGradient>
  <linearGradient id="linearGradient4711" y2="36.377" xlink:href="#linearGradient2909" gradientUnits="userSpaceOnUse" x2="20.329" gradientTransform="matrix(1 0 0 1.4229 10.5 -14.957)" y1="33.062" x1="15.335"/>
  <linearGradient id="linearGradient4713" y2="36.377" xlink:href="#linearGradient2909" gradientUnits="userSpaceOnUse" x2="20.329" gradientTransform="matrix(1 0 0 1.4229 -.875 -15.046)" y1="33.062" x1="15.335"/>
  <linearGradient id="linearGradient4715" y2="36.377" xlink:href="#linearGradient2909" gradientUnits="userSpaceOnUse" x2="20.329" gradientTransform="matrix(.45983 0 -.39116 1.3701 40.625 -13.299)" y1="33.062" x1="15.335"/>
  <radialGradient id="radialGradient5748" gradientUnits="userSpaceOnUse" cy="16.48" cx="25.252" gradientTransform="matrix(1.033 -.59640 .57512 .99614 -12.235 11.554)" r="21.98">
   <stop id="stop5742" style="stop-color:#d0d0cb;" offset="0"/>
   <stop id="stop5744" style="stop-color:#babdb6;" offset="1"/>
  </radialGradient>
  <linearGradient id="linearGradient5790" y2="12.143" gradientUnits="userSpaceOnUse" x2="22.212" gradientTransform="matrix(.94022 0 0 .93163 1.3318 1.4015)" y1="25.461" x1="18.049">
   <stop id="stop2066" style="stop-color:white;" offset="0"/>
   <stop id="stop2070" style="stop-color:#555753;stop-opacity:0.60000002;" offset=".5"/>
   <stop id="stop2068" style="stop-color:#555753;stop-opacity:0;" offset="1"/>
  </linearGradient>
  <linearGradient id="linearGradient5865" y2="6.8315" gradientUnits="userSpaceOnUse" x2="25.818" y1="36.638" x1="24">
   <stop id="stop8633" style="stop-color:#eeeeec;" offset="0"/>
   <stop id="stop8637" style="stop-color:#eeeeec;" offset=".2"/>
   <stop id="stop8635" style="stop-color:#babdb6;" offset="1"/>
  </linearGradient>
  <linearGradient id="linearGradient7658" y2="31.22" gradientUnits="userSpaceOnUse" x2="32.043" y1="12.669" x1="27.058">
   <stop id="stop2841" style="stop-color:white;stop-opacity:0.25773194;" offset="0"/>
   <stop id="stop2847" style="stop-color:white;" offset=".54730"/>
   <stop id="stop2849" style="stop-color:white;stop-opacity:0.24705882;" offset=".66244"/>
   <stop id="stop2851" style="stop-color:white;stop-opacity:0.83505154;" offset=".875"/>
   <stop id="stop2843" style="stop-color:white;stop-opacity:0;" offset="1"/>
  </linearGradient>
  <linearGradient id="linearGradient8603" y2="40.647" gradientUnits="userSpaceOnUse" x2="18.498" y1="24.036" x1="20.304">
   <stop id="stop5692" style="stop-color:white;" offset="0"/>
   <stop id="stop5694" style="stop-color:#888a85;stop-opacity:0.59848487;" offset="1"/>
  </linearGradient>
  <radialGradient id="radialGradient8619" xlink:href="#linearGradient9633" gradientUnits="userSpaceOnUse" cy="30.574" cx="7.5178" gradientTransform="matrix(1.6625 0 0 1.6136 -4.9892 -18.656)" r=".53125"/>
  <radialGradient id="radialGradient8623" gradientUnits="userSpaceOnUse" cy="30.304" cx="7.5191" gradientTransform="matrix(1.3897 0 0 1.3489 -2.9198 -10.638)" r=".53125">
   <stop id="stop9615" style="stop-color:white;" offset="0"/>
   <stop id="stop9619" style="stop-color:white;" offset=".5"/>
   <stop id="stop9617" style="stop-color:#cccfca;" offset="1"/>
  </radialGradient>
  <radialGradient id="radialGradient8664" xlink:href="#linearGradient9633" gradientUnits="userSpaceOnUse" cy="30.308" cx="7.5336" gradientTransform="matrix(1.5695 0 0 1.5233 -4.2886 -15.921)" r=".53125"/>
  <radialGradient id="radialGradient8676" gradientUnits="userSpaceOnUse" cy="30.361" cx="7.4792" gradientTransform="matrix(1.6625 0 0 1.6136 -4.9892 -18.656)" r=".53125">
   <stop id="stop8627" style="stop-color:white;" offset="0"/>
   <stop id="stop8629" style="stop-color:#babdb6;" offset="1"/>
  </radialGradient>
  <radialGradient id="radialGradient8680" gradientUnits="userSpaceOnUse" cy="30.338" cx="7.4893" gradientTransform="matrix(1.6625 0 0 1.6136 -4.9892 -18.656)" r=".53125">
   <stop id="stop9643" style="stop-color:white;" offset="0"/>
   <stop id="stop9645" style="stop-color:#888a85;" offset="1"/>
  </radialGradient>
  <linearGradient id="linearGradient8716" y2="30.359" xlink:href="#linearGradient9633" gradientUnits="userSpaceOnUse" x2="40.711" y1="30.555" x1="40.617"/>
  <linearGradient id="linearGradient9605" y2="30.359" xlink:href="#linearGradient9633" gradientUnits="userSpaceOnUse" x2="40.711" gradientTransform="matrix(.60287 -.79784 .79784 .60287 -41.126 44.628)" y1="30.555" x1="40.617"/>
  <linearGradient id="linearGradient9649" y2="30.359" xlink:href="#linearGradient9633" gradientUnits="userSpaceOnUse" x2="40.711" gradientTransform="matrix(.86602 -.5 .5 .86602 -38.792 7.4034)" y1="30.555" x1="40.617"/>
  <linearGradient id="linearGradient9654" y2="30.359" xlink:href="#linearGradient9633" gradientUnits="userSpaceOnUse" x2="40.711" gradientTransform="matrix(.70711 .52756 -.70711 .52756 29.006 -24.092)" y1="30.555" x1="40.617"/>
  <linearGradient id="linearGradient2973" y2="34.046" gradientUnits="userSpaceOnUse" x2="12.5" y1="43.188" x1="12.5">
   <stop id="stop2969" style="stop-color:white;" offset="0"/>
   <stop id="stop2971" style="stop-color:white;stop-opacity:0;" offset="1"/>
  </linearGradient>
  <linearGradient id="linearGradient5655" y2="35.5" gradientUnits="userSpaceOnUse" x2="-2.8139" gradientTransform="translate(0,50)" y1="43.573" x1="53.813">
   <stop id="stop2901" style="stop-color:#555753;" offset="0"/>
   <stop id="stop2903" style="stop-color:#2e3436;" offset="1"/>
  </linearGradient>
  <linearGradient id="linearGradient2992" y2="37.996" gradientUnits="userSpaceOnUse" x2="21.938" y1="39" x1="21.938">
   <stop id="stop2988" style="stop-color:black;" offset="0"/>
   <stop id="stop2990" style="stop-color:black;stop-opacity:0;" offset="1"/>
  </linearGradient>
  <linearGradient id="linearGradient2910" y2="20.903" gradientUnits="userSpaceOnUse" x2="22.971" gradientTransform="translate(0,2)" y1="27.658" x1="22.101">
   <stop id="stop2905" style="stop-color:black;" offset="0"/>
   <stop id="stop2907" style="stop-color:black;stop-opacity:0;" offset="1"/>
  </linearGradient>
  <linearGradient id="linearGradient2922" y2="25.757" gradientUnits="userSpaceOnUse" x2="24.848" gradientTransform="translate(0,2)" y1="28.908" x1="24.848">
   <stop id="stop2918" style="stop-color:white;" offset="0"/>
   <stop id="stop2920" style="stop-color:white;stop-opacity:0;" offset="1"/>
  </linearGradient>
  <linearGradient id="linearGradient4351" y2="23.352" gradientUnits="userSpaceOnUse" x2="4.6975" y1="27.941" x1="4.4569">
   <stop id="stop4347" style="stop-color:#ffffff;" offset="0"/>
   <stop id="stop4349" style="stop-color:#ffffff;stop-opacity:0;" offset="1"/>
  </linearGradient>
  <linearGradient id="linearGradient4361" y2="20.339" xlink:href="#linearGradient9633" gradientUnits="userSpaceOnUse" x2="4.2384" y1="25.137" x1="4.172"/>
  <radialGradient id="radialGradient4369" fy="28.48" gradientUnits="userSpaceOnUse" cy="27.76" cx="8.5435" gradientTransform="matrix(1.3044 2.5975e-8 -2.7067e-8 1.2903 -2.6009 -8.1786)" r="5.4495">
   <stop id="stop4365" style="stop-color:#888a85;" offset="0"/>
   <stop id="stop4367" style="stop-color:#888a85;stop-opacity:0;" offset="1"/>
  </radialGradient>
  <radialGradient id="radialGradient4397" gradientUnits="userSpaceOnUse" cy="26.688" cx="14.5" gradientTransform="matrix(1 0 0 .29375 0 18.848)" r="10">
   <stop id="stop5226" style="stop-color:#000000;" offset="0"/>
   <stop id="stop5228" style="stop-color:#000000;stop-opacity:0;" offset="1"/>
  </radialGradient>
 </defs>
 <metadata id="metadata7">
  <rdf:RDF>
   <cc:Work rdf:about="">
    <dc:format>image/svg+xml</dc:format>
    <dc:type rdf:resource="http://purl.org/dc/dcmitype/StillImage"/>
    <cc:license rdf:resource="http://creativecommons.org/licenses/GPL/2.0/"/>
    <dc:creator>
     <cc:Agent>
      <dc:title>Jakub Steiner, Lapo Calamandrei</dc:title>
     </cc:Agent>
    </dc:creator>
    <dc:contributor>
     <cc:Agent>
      <dc:title/>
     </cc:Agent>
    </dc:contributor>
    <dc:title>Drive Harddisk</dc:title>
    <dc:subject>
     <rdf:Bag>
      <rdf:li>hdd</rdf:li>
      <rdf:li>drive</rdf:li>
      <rdf:li>hard</rdf:li>
      <rdf:li>fixed</rdf:li>
      <rdf:li>media</rdf:li>
     </rdf:Bag>
    </dc:subject>
   </cc:Work>
   <cc:License rdf:about="http://creativecommons.org/licenses/GPL/2.0/">
    <cc:permits rdf:resource="http://web.resource.org/cc/Reproduction"/>
    <cc:permits rdf:resource="http://web.resource.org/cc/Distribution"/>
    <cc:requires rdf:resource="http://web.resource.org/cc/Notice"/>
    <cc:permits rdf:resource="http://web.resource.org/cc/DerivativeWorks"/>
    <cc:requires rdf:resource="http://web.resource.org/cc/ShareAlike"/>
    <cc:requires rdf:resource="http://web.resource.org/cc/SourceCode"/>
   </cc:License>
  </rdf:RDF>
 </metadata>
 <g id="layer1">
  <path id="path5328" style="opacity:0.80120479;enable-background:accumulate;marker-end:none;fill-rule:nonzero;marker-start:none;filter:url(#filter5296);marker-mid:none;fill:url(#radialGradient4397);" d="m24.5 26.688a10 2.9375 0 1 1 -20 0 10 2.9375 0 1 1 20 0z" transform="matrix(1.1698 0 0 .72987 11.681 26.287)"/>
  <g id="g3519" style="opacity:0.7;" transform="matrix(1.0308 0 0 1.1511 -.73609 -12.574)">
   <rect id="rect2884" style="fill:url(#radialGradient4700);" transform="scale(-1)" height="12.405" width="8.1916" y="-48.024" x="-9.5392"/>
   <rect id="rect2894" style="fill:url(#radialGradient4702);" height="12.405" width="8.1916" y="35.619" x="38.21"/>
   <rect id="rect2898" style="fill:url(#linearGradient4704);" height="12.405" width="28.671" y="35.619" x="9.5392"/>
  </g>
  <g id="g5672" transform="translate(0 -48.997)">
   <path id="rect2010" style="stroke-linejoin:round;marker-end:none;fill-rule:nonzero;color:black;marker-start:none;stroke-dashoffset:1.4;stroke:#2e3436;stroke-linecap:square;stroke-miterlimit:4;stroke-dasharray:none;stroke-width:1;marker-mid:none;fill:url(#linearGradient5655);" d="m4.5182 80.5h38.964c0.564 0 1.018 0.454 1.018 1.018v2.964c0 1.315-0.45 3.018-2.456 3.018h-1.544v1h-33v-1h-1.8568c-1.2712 0-2.1432-0.885-2.1432-2.256v-3.726c0-0.564 0.4541-1.018 1.0182-1.018z"/>
   <path id="path2076" style="opacity:0.1;stroke-linejoin:miter;marker-end:none;color:black;marker-start:none;stroke-dashoffset:1.4;stroke:url(#linearGradient2973);stroke-linecap:square;stroke-miterlimit:4;stroke-width:0.99999988;marker-mid:none;fill:none;" transform="translate(0,50)" d="m4.5938 31.594v3.729c0 0.6 0.3756 1.105 0.8863 1.105h36.946c0.513 0 0.98-0.507 0.98-1.016v-3.818h-38.812z"/>
   <g id="g4706" style="opacity:0.5;" transform="translate(0,50)">
    <path id="path2907" style="opacity:0.10952382;fill-rule:evenodd;fill:url(#linearGradient4711);" d="m26.145 32.089s-1.503 5.534-3.226 5.911l6.231-0.126c1.387-0.317 3.359-5.785 3.359-5.785h-6.364z"/>
    <path id="path2892" style="opacity:0.10952382;fill-rule:evenodd;fill:url(#linearGradient4713);" d="m14.77 32s-1.503 5.534-3.226 5.911l6.231-0.126c1.387-0.317 3.359-5.785 3.359-5.785h-6.364z"/>
    <path id="path2896" style="opacity:0.10952382;fill-rule:evenodd;fill:url(#linearGradient4715);" d="m34.886 32s-2.212 5.328-3.108 5.692l2.9-0.121c0.725-0.306 3.134-5.571 3.134-5.571h-2.926z"/>
   </g>
  </g>
  <path id="rect1879" style="stroke-linejoin:miter;stroke-dashoffset:0;stroke:#888a85;stroke-linecap:round;stroke-miterlimit:4;stroke-width:1.00000024;fill:url(#radialGradient5748);" d="m11.693 10.499h24.573c1.684 0 2.396 0.117 3.04 2.385l5.074 17.881c0.501 1.765-1.356 2.735-3.04 2.735h-34.721c-1.8688 0-3.4898-1.181-3.0404-2.735l5.2504-18.154c0.5683-1.964 1.18-2.112 2.864-2.112z"/>
  <path id="path5806" style="opacity:0.46240599;fill:url(#linearGradient7658);" d="m11.688 11c-0.827 0-1.285 0.065-1.563 0.25-0.2777 0.185-0.5402 0.559-0.8125 1.5l-5.25 18.125c-0.1708 0.591 0.0315 1.039 0.5 1.437 0.4685 0.399 1.235 0.688 2.0625 0.688h34.719c0.744 0 1.539-0.248 2.031-0.625s0.731-0.796 0.531-1.5l-5.062-17.875c-0.31-1.09-0.623-1.541-0.938-1.75-0.314-0.209-0.793-0.25-1.625-0.25h-24.593z"/>
  <path id="path8621" style="marker-end:none;fill-rule:nonzero;color:black;marker-start:none;marker-mid:none;fill:url(#radialGradient8623);" d="m8.1562 30.578a0.53125 0.51562 0 1 1 -1.0624 0 0.53125 0.51562 0 1 1 1.0624 0z" transform="matrix(-2.6286 0 0 1.7778 27.793 -23.777)"/>
  <path id="path2784" style="stroke-linejoin:round;stroke-dashoffset:0;stroke:url(#linearGradient5790);stroke-linecap:round;stroke-miterlimit:4;stroke-dasharray:none;stroke-width:1.00000012;fill:none;" d="m16.111 12.553c-0.574 0-1.028 0.432-1.028 0.99l-0.941 3.23c-2.86 1.277-4.642 3.1-4.642 5.124 0 3.857 6.479 6.988 14.485 6.988 8.007 0 14.515-3.131 14.515-6.988 0-2.039-1.836-3.875-4.73-5.153l-0.941-3.201c0-0.558-0.454-0.99-1.028-0.99h-15.69z"/>
  <path id="path3394" style="stroke-linejoin:miter;stroke-dashoffset:0;stroke:url(#linearGradient3474);stroke-linecap:round;stroke-miterlimit:4;stroke-width:1.00000036;fill:none;" d="m11.688 11.5c-0.804 0-1.098 0.071-1.219 0.156-0.122 0.085-0.358 0.402-0.6878 1.306l-5.25 18.138c-0.1337 0.367-0.0548 0.534 0.3126 0.84 0.3673 0.306 1.0666 0.56 1.7812 0.56h34.719c0.64 0 1.393-0.238 1.781-0.529s0.488-0.383 0.313-0.871l-5.063-17.858c-0.377-1.047-0.682-1.439-0.844-1.555-0.161-0.117-0.443-0.187-1.25-0.187h-24.593z"/>
  <g id="g5657" style="opacity:0.3028571;" transform="translate(7,-1)">
   <rect id="rect5641" style="stroke-linejoin:miter;marker-end:none;fill-rule:nonzero;color:black;marker-start:none;stroke-dashoffset:1.4;stroke:#eeeeec;stroke-linecap:square;stroke-miterlimit:4;stroke-dasharray:none;stroke-width:1.00000024;marker-mid:none;fill:white;" rx=".75130" ry=".74712" height="2" width="14" y="35.5" x="18.5"/>
   <rect id="rect5645" style="marker-end:none;fill-rule:nonzero;color:black;marker-start:none;marker-mid:none;fill:black;" height="1" width="1" y="36" x="19"/>
   <rect id="rect5647" style="marker-end:none;fill-rule:nonzero;color:black;marker-start:none;marker-mid:none;fill:black;" height="1" width="1" y="36" x="22"/>
   <rect id="rect5649" style="marker-end:none;fill-rule:nonzero;color:black;marker-start:none;marker-mid:none;fill:black;" height="1" width="1" y="36" x="24"/>
   <rect id="rect5651" style="marker-end:none;fill-rule:nonzero;color:black;marker-start:none;marker-mid:none;fill:black;" height="1" width="1" y="36" x="26"/>
   <rect id="rect5653" style="marker-end:none;fill-rule:nonzero;color:black;marker-start:none;marker-mid:none;fill:black;" height="1" width="2" y="36" x="29"/>
  </g>
  <path id="path5857" style="fill:url(#linearGradient5865);" d="m16.125 13c-0.363 0-0.594 0.215-0.594 0.531 0.006 0.042 0.006 0.084 0 0.125l-0.937 3.25c-0.038 0.127-0.129 0.23-0.25 0.282-1.39 0.62-2.499 1.378-3.25 2.187-0.752 0.809-1.1565 1.649-1.1565 2.531 0 1.681 1.4545 3.309 4.0005 4.532 2.545 1.222 6.116 2 10.062 2s7.517-0.778 10.062-2c2.546-1.223 4-2.851 4-4.532 0-0.888-0.393-1.747-1.156-2.562-0.762-0.816-1.905-1.567-3.312-2.188-0.121-0.052-0.213-0.155-0.25-0.281l-0.938-3.219c-0.006-0.041-0.006-0.083 0-0.125 0-0.316-0.231-0.531-0.594-0.531h-15.687z"/>
  <path id="path8595" style="opacity:0.9;stroke-linejoin:miter;marker-end:none;fill-rule:nonzero;color:black;marker-start:none;fill-opacity:0.05303028;stroke-dashoffset:1.4;stroke:url(#linearGradient8603);stroke-linecap:square;stroke-miterlimit:4;stroke-dasharray:none;stroke-width:2.52015233;marker-mid:none;fill:black;" d="m24.749 25.107a7.7782 4.2868 0 1 1 -15.557 0 7.7782 4.2868 0 1 1 15.557 0z" transform="matrix(.44998 0 0 .34991 16.364 12.215)"/>
  <path id="path8611" style="marker-end:none;fill-rule:nonzero;color:black;marker-start:none;marker-mid:none;fill:url(#radialGradient8619);" d="m8.1562 30.578a0.53125 0.51562 0 1 1 -1.0624 0 0.53125 0.51562 0 1 1 1.0624 0z" transform="matrix(1.4118 0 0 .96970 -3.0148 .84848)"/>
  <path id="path8660" style="marker-end:none;fill-rule:nonzero;color:black;marker-start:none;marker-mid:none;fill:url(#radialGradient8664);" d="m8.1562 30.578a0.53125 0.51562 0 1 1 -1.0624 0 0.53125 0.51562 0 1 1 1.0624 0z" transform="matrix(-2.6286 0 0 1.7778 60.793 -23.777)"/>
  <path id="path8662" style="marker-end:none;fill-rule:nonzero;color:black;marker-start:none;marker-mid:none;fill:url(#radialGradient8666);" d="m8.1562 30.578a0.53125 0.51562 0 1 1 -1.0624 0 0.53125 0.51562 0 1 1 1.0624 0z" transform="matrix(1.4118 0 0 .96970 29.985 .84848)"/>
  <path id="path8668" style="marker-end:none;fill-rule:nonzero;color:black;marker-start:none;marker-mid:none;fill:url(#radialGradient8676);" d="m8.1562 30.578a0.53125 0.51562 0 1 1 -1.0624 0 0.53125 0.51562 0 1 1 1.0624 0z" transform="matrix(-2.6286 0 0 1.7778 31.793 -40.777)"/>
  <path id="path8670" style="marker-end:none;fill-rule:nonzero;color:black;marker-start:none;marker-mid:none;fill:url(#radialGradient8678);" d="m8.1562 30.578a0.53125 0.51562 0 1 1 -1.0624 0 0.53125 0.51562 0 1 1 1.0624 0z" transform="matrix(1.4118 0 0 .96970 .98523 -16.152)"/>
  <path id="path8672" style="marker-end:none;fill-rule:nonzero;color:black;marker-start:none;marker-mid:none;fill:url(#radialGradient8680);" d="m8.1562 30.578a0.53125 0.51562 0 1 1 -1.0624 0 0.53125 0.51562 0 1 1 1.0624 0z" transform="matrix(-2.6286 0 0 1.7778 56.303 -40.777)"/>
  <path id="path8674" style="marker-end:none;fill-rule:nonzero;color:black;marker-start:none;marker-mid:none;fill:url(#radialGradient8682);" d="m8.1562 30.578a0.53125 0.51562 0 1 1 -1.0624 0 0.53125 0.51562 0 1 1 1.0624 0z" transform="matrix(1.4118 0 0 .96970 25.495 -16.152)"/>
  <path id="path8700" style="opacity:0.4;stroke-linejoin:miter;stroke:url(#linearGradient8716);stroke-linecap:round;stroke-miterlimit:4;stroke-dasharray:none;stroke-width:0.29999995;fill:none;" d="m40.328 30.261l0.875 0.431"/>
  <path id="path9603" style="opacity:0.4;stroke-linejoin:miter;stroke:url(#linearGradient9605);stroke-linecap:round;stroke-miterlimit:4;stroke-dasharray:none;stroke-width:0.29999995;fill:none;" d="m7.3302 30.696l0.8708-0.439"/>
  <path id="path9647" style="opacity:0.4;stroke-linejoin:miter;stroke:url(#linearGradient9649);stroke-linecap:round;stroke-miterlimit:4;stroke-dasharray:none;stroke-width:0.29999995;fill:none;" d="m11.264 13.446l0.972-0.064"/>
  <path id="path9652" style="opacity:0.4;stroke-linejoin:miter;stroke:url(#linearGradient9654);stroke-linecap:round;stroke-miterlimit:4;stroke-dasharray:none;stroke-width:0.29999998;fill:none;" d="m36.124 13.148l0.314 0.689"/>
  <rect id="rect2984" style="opacity:0.12000002;marker-end:none;fill-rule:nonzero;color:black;marker-start:none;marker-mid:none;fill:url(#linearGradient2992);" height="1" width="32.031" y="38" x="8"/>
  <path id="path1997" style="opacity:0.12000002;stroke-linejoin:round;marker-end:none;color:black;marker-start:none;stroke-dashoffset:0;stroke:url(#linearGradient2910);stroke-linecap:round;stroke-miterlimit:4;stroke-dasharray:none;stroke-width:1.00000036;marker-mid:none;fill:none;" d="m10.46 15.082l-3.6086 12.594c1.4469 0.7 3.7736 1.491 3.5786 3.857h26.87c0.569-1.892 2.575-3.158 4.046-3.283l-3.848-13.168-5.148-2.559h-18.031l-3.859 2.559z"/>
  <path id="path2912" style="opacity:0.83428572;stroke-linejoin:round;marker-end:none;color:black;marker-start:none;stroke-dashoffset:0;stroke:url(#linearGradient2922);stroke-linecap:round;stroke-miterlimit:4;stroke-dasharray:none;stroke-width:1.00000036;marker-mid:none;fill:none;" d="m7.9764 27.051c1.4469 0.7 3.1786 1.433 3.4256 3.357h25.456c0.569-1.892 2.017-2.908 3.488-3.033l-32.37-0.324z"/>
  <g id="Foreground" transform="matrix(.94183 0 0 .94183 6.2193 .75446)">
   <path id="path6" style="fill:#2e3436;" d="m38.316 2.146c-0.025-0.059-0.042-0.084-0.053-0.096-0.033-0.018-0.156-0.083-0.268-0.107-0.035-0.009-2.56-0.669-3.607-0.691-0.969-0.021-1.835 0.871-1.804 2.057 0.031 1.192 0.954 2.083 1.932 2.044 1.044-0.041 3.533-0.747 3.568-0.757 0.106-0.025 0.172-0.054 0.197-0.069 0.01-0.013 0.059-0.069 0.085-0.137l0.097-0.285c0.152-0.461 0.048-1.501-0.147-1.959zm1.15-0.49c0.317 0.744 0.434 2.082 0.184 2.84l-0.119 0.345c-0.206 0.53-0.568 0.823-1.117 0.959 0 0-0.652 0.186-1.449 0.378-0.775 0.187-1.759 0.397-2.399 0.422-1.793 0.071-3.185-1.497-3.231-3.26-0.046-1.769 1.273-3.377 3.08-3.34 1.271 0.027 2.63 0.403 3.86 0.723 0.559 0.123 0.963 0.397 1.191 0.933z"/>
   <path id="path8" style="fill:#2e3436;" d="m24.027 0.724c1.229-0.32 2.59-0.696 3.86-0.723 1.807-0.038 3.126 1.571 3.08 3.34-0.046 1.763-1.438 3.331-3.231 3.26-1.267-0.05-2.631-0.453-3.849-0.8-0.555-0.139-0.915-0.438-1.118-0.959l-0.118-0.345c-0.191-0.58-0.172-1.747 0.051-2.463 0.171-0.547 0.388-1.106 1.325-1.31zm-0.041 1.422c-0.195 0.458-0.299 1.499-0.147 1.958l0.097 0.285c0.026 0.068 0.076 0.125 0.085 0.137 0.024 0.015 0.091 0.043 0.197 0.069 0 0 0.643 0.183 1.412 0.369 0.791 0.19 1.658 0.369 2.156 0.388 0.979 0.039 1.901-0.852 1.933-2.044 0.031-1.186-0.834-2.078-1.804-2.057-1.179 0.024-2.468 0.392-3.607 0.691-0.111 0.024-0.234 0.089-0.268 0.107-0.011 0.012-0.029 0.038-0.054 0.097z"/>
   <g id="g10">
    <g id="g12">
     <g id="g14">
      <ellipse id="ellipse16" cx="8.592" rx="8.092" ry="3.98" cy="27.542"/>
     </g>
     <g id="g20" stroke-miterlimit="3.8637">
      <ellipse id="ellipse22" style="stroke:#2e3436;stroke-miterlimit:3.86369991;fill:#4c4f4c;" rx="8.092" ry="3.98" cy="27.542" cx="8.592"/>
     </g>
    </g>
    <g id="g26">
     <g id="g28">
      <ellipse id="ellipse30" style="fill:url(#linearGradient4351);" cx="8.592" rx="7.254" ry="3.456" cy="26.808"/>
     </g>
     <g id="g34" stroke-miterlimit="3.8637">
      <ellipse id="ellipse36" style="stroke:#2e3436;stroke-width:0.5474;stroke-miterlimit:3.86369991;fill:none;" rx="7.254" ry="3.456" cy="26.808" cx="8.592"/>
     </g>
    </g>
    <g id="g40">
     <path id="path42" style="fill:url(#radialGradient4369);" d="m12.299 26.854c0 0.619 0.724 1.137 1.694 1.271-0.998 0.852-3.064 1.437-5.451 1.437-2.384 0-4.448-0.583-5.448-1.433 0.985-0.129 1.771-0.725 1.771-1.349l7.434 0.074z"/>
    </g>
    <g id="g44">
     <g id="g46">
      <ellipse id="ellipse48" style="fill:#a7a9ac;" cx="8.592" rx="3.98" ry="1.99" cy="26.075"/>
     </g>
     <g id="g52" stroke-miterlimit="3.8637">
      <ellipse id="ellipse54" style="stroke:#2e3436;stroke-width:0.75;stroke-miterlimit:3.86369991;fill:none;" rx="3.98" ry="1.99" cy="26.075" cx="8.592"/>
     </g>
    </g>
    <g id="g58">
     <g id="g60">
      <path id="path62" style="fill:#ffffff;" d="m6.938 27.484c0-1.125 0.62-2.076 1.654-2.076s1.7 0.95 1.7 2.076c-0.543 0.16-1.013 0.227-1.7 0.227s-1.11-0.067-1.654-0.227z"/>
     </g>
    </g>
    <g id="g64">
     <g id="g66">
      <ellipse id="ellipse68" style="fill:#ffffff;" cx="8.592" rx="5.579" ry="2.828" cy="23.667"/>
     </g>
     <g id="g72" stroke-miterlimit="3.8637">
      <ellipse id="ellipse74" style="stroke:#2e3436;stroke-miterlimit:3.86369991;fill:url(#linearGradient4361);" rx="5.579" ry="2.828" cy="23.667" cx="8.592"/>
     </g>
    </g>
    <g id="g78">
     <g id="g80">
      <ellipse id="ellipse82" style="fill:#b5b8b2;" cx="8.645" rx="3.194" ry="1.047" cy="22.838"/>
     </g>
    </g>
    <g id="g86">
     <path id="path88" style="fill-rule:evenodd;fill:#2e3436;" clip-rule="evenodd" d="m4.738 22.891c0-0.839 1.75-1.519 3.908-1.519 2.159 0 3.908 0.68 3.908 1.519 0 0.838-1.75 1.519-3.908 1.519-2.158-0.001-3.908-0.681-3.908-1.519zm-0.964 0.157c0-1.273 2.157-2.304 4.818-2.304s4.818 1.031 4.818 2.304c0 1.272-2.157 2.304-4.818 2.304s-4.818-1.032-4.818-2.304z"/>
    </g>
    <g id="g90">
     <path id="path92" style="fill:#ffffff;" d="m9.449 22.733c0-0.301 0.704-0.5 1.432-0.644 0.592 0.19 0.958 0.455 0.958 0.748 0 0.217-0.201 0.418-0.545 0.585-0.968-0.112-1.845-0.328-1.845-0.689zm-1.647 0c0 0.356-0.783 0.607-1.743 0.72-0.383-0.173-0.609-0.385-0.609-0.615 0-0.307 0.403-0.583 1.044-0.774 0.697 0.148 1.308 0.386 1.308 0.669z"/>
    </g>
    <g id="g94">
     <g id="g96">
      <ellipse id="ellipse98" style="fill:#2e3436;" cx="8.645" rx="1.148" ry=".442" cy="22.789"/>
     </g>
    </g>
   </g>
   <path id="path102" style="fill:#2e3436;" d="m24.519 4.568s-0.227-0.018-0.561 0.023c-2.829 0.348-3.136 3.396-2.928 5.767 0.141 1.608 0.889 3.45 1.955 5.978 1.062 2.519 2.308 5.454 3.229 9.026l-2.663 0.687c-1.098-4.256-3.075-8.042-4.491-12.151-0.382-1.109-0.674-2.209-0.77-3.3-0.419-4.794 1.597-9.381 6.531-8.763l-0.302 2.733z"/>
   <path id="path104" style="fill:#8c8d8a;" d="m23.179 3.984c-2.678 0.757-3.127 3.795-2.896 6.44 0.153 1.75 0.959 3.709 2.01 6.204 0.758 1.797 1.611 3.809 2.37 6.118-0.421 0-0.845 0.137-1.19 0.381-0.747-2.27-1.587-4.247-2.332-6.014-1.027-2.437-1.93-4.594-2.104-6.58-0.302-3.455 0.576-7.094 4.16-7.841-0.063 0.433-0.067 0.929-0.018 1.292z"/>
   <g id="g106">
    <path id="path108" style="fill-rule:evenodd;fill:#e0bf66;" clip-rule="evenodd" d="m23.3 2.219c0.146-0.47 0.256-0.752 0.86-0.884 0 0 2.601-0.685 3.741-0.709 1.388-0.029 2.48 1.221 2.442 2.698-0.039 1.478-1.196 2.707-2.582 2.652-1.138-0.045-3.702-0.777-3.702-0.777-0.597-0.143-0.661-0.438-0.814-0.899-0.143-0.434-0.137-1.466 0.055-2.081z"/>
    <path id="path110" style="opacity:0.5;fill-rule:evenodd;fill:#ffffff;" clip-rule="evenodd" d="m23.998 1.779s3.024-0.879 3.217-0.236c0.123 0.411-3.571 1.976-3.627 1.339-0.072-0.806 0.41-1.103 0.41-1.103z"/>
    <path id="path112" style="fill:#c88823;" d="m23.777 4.472s-0.54-1.145 0.162-1.018c0.344 0.347 2.404 0.94 3.863 0.609 1.494-0.34 1.252-2.374 1.252-2.374s0.627 0.493 0.718 1.552c0.065 0.763-0.67 2.257-2.218 2.197-2.064-0.08-2.794-0.488-3.777-0.966z"/>
   </g>
   <path id="path114" style="fill:#2e3436;" d="m37.783 4.568s0.227-0.018 0.561 0.023c2.829 0.348 3.135 3.396 2.928 5.767-0.141 1.608-0.889 3.45-1.954 5.978-1.062 2.519-2.308 5.454-3.229 9.026l2.663 0.687c1.098-4.256 3.074-8.042 4.49-12.151 0.382-1.109 0.675-2.209 0.77-3.3 0.419-4.794-1.597-9.381-6.531-8.763l0.302 2.733z"/>
   <path id="path116" style="fill:#e0e1dd;" d="m39.105 2.691c3.584 0.747 4.462 4.386 4.16 7.841-0.174 1.986-1.077 4.143-2.104 6.58-0.744 1.767-1.585 3.744-2.332 6.014-0.345-0.244-0.769-0.381-1.19-0.381 0.759-2.309 1.613-4.32 2.37-6.118 1.051-2.494 1.857-4.454 2.011-6.204 0.231-2.645-0.218-5.683-2.896-6.44 0.048-0.362 0.044-0.858-0.019-1.292z"/>
   <g id="g118">
    <path id="path120" style="fill-rule:evenodd;fill:#e0bf66;" clip-rule="evenodd" d="m39.002 2.219c-0.146-0.47-0.256-0.752-0.861-0.884 0 0-2.6-0.685-3.74-0.709-1.388-0.029-2.48 1.221-2.442 2.698 0.039 1.478 1.196 2.707 2.582 2.652 1.139-0.045 3.702-0.777 3.702-0.777 0.598-0.143 0.662-0.438 0.814-0.899 0.143-0.434 0.137-1.466-0.055-2.081z"/>
    <path id="path122" style="opacity:0.5;fill-rule:evenodd;fill:#ffffff;" clip-rule="evenodd" d="m38.305 1.779s-3.025-0.879-3.217-0.236c-0.124 0.411 3.571 1.976 3.627 1.339 0.071-0.806-0.41-1.103-0.41-1.103z"/>
    <path id="path124" style="fill:#c88823;" d="m38.525 4.472s0.539-1.145-0.162-1.018c-0.344 0.346-2.404 0.94-3.863 0.608-1.494-0.34-1.253-2.374-1.253-2.374s-0.627 0.494-0.718 1.552c-0.066 0.763 0.67 2.257 2.218 2.197 2.065-0.079 2.795-0.487 3.778-0.965z"/>
   </g>
   <path id="path126" style="fill:#316203;" d="m26.369 23.998s0.23 0.639 0.478 1.481c0.757 2.581 0.411 5.841 4.383 5.841 3.877 0 3.485-3.315 4.227-5.841 0.247-0.842 0.477-1.481 0.477-1.481 0.847-2.353 4.375-1.083 3.529 1.27 0 0-0.196 0.547-0.408 1.267-0.225 0.766-0.421 1.579-0.467 2.127-0.127 1.526-1.555 6.409-7.358 6.409-5.738 0-7.38-4.793-7.515-6.409-0.094-1.128-0.493-2.33-0.875-3.394-0.846-2.353 2.682-3.623 3.529-1.27z"/>
   <path id="path128" style="fill:#2e3436;" d="m11.435 24.008s0.447-0.089 1.117-0.12c3.426-0.157 6.368 1.469 6.368 5.491 0 1.667-2.5 1.667-2.5 0 0-2.764-2.375-3.312-4.51-2.917-1.637 0.317-2.111-2.137-0.475-2.454z"/>
   <path id="path130" style="fill:#e0e1dd;" d="m11.578 24.745s0.403-0.079 1.009-0.107c3.008-0.138 5.583 1.164 5.583 4.742 0 0.667-1 0.667-1 0 0-3.285-2.819-4.145-5.402-3.653-0.655 0.126-0.845-0.856-0.19-0.982z"/>
   <path id="path132" style="fill:#316203;" d="m16.816 24.184c1.585 0.862 2.729 2.548 2.729 5.196 0 4.959-3.388 7.195-3.388 11.651 0 4.159 4.952 4.301 7.949 4.301 2.546 0 7.775-0.054 7.775-3.78 0-3.056-2.432-4.581-2.432-8.136 0-2.5 3.75-2.5 3.75 0 0 2.431 2.432 4.052 2.432 8.136 0 6.469-6.581 7.53-11.525 7.53-5.313 0-11.699-1.268-11.699-8.051 0-5.506 3.388-7.71 3.388-11.651 0-1.409-0.507-1.758-0.771-1.902-2.196-1.195-0.403-4.489 1.792-3.294z"/>
   <path id="path134" style="fill:#66ba13;" d="m16.338 25.063c1.233 0.67 2.207 2 2.207 4.317 0 4.312-3.388 7.319-3.388 11.651 0 4.277 3.933 5.301 8.949 5.301 5.06 0 8.775-1.036 8.775-4.78 0-2.837-2.104-4.817-2.398-7.514-4.391-0.388-5.666-4.174-5.772-5.459-0.102-1.216-0.518-2.503-0.93-3.649-0.395-1.098 1.251-1.69 1.646-0.593 0 0 0.222 0.615 0.459 1.424 0.891 3.036 0.653 6.56 5.343 6.56 4.627 0 4.31-3.574 5.186-6.56 0.237-0.809 0.458-1.424 0.458-1.424 0.395-1.098 2.042-0.505 1.647 0.593 0 0-0.206 0.572-0.426 1.324-0.227 0.774-0.449 1.67-0.504 2.326-0.102 1.221-1.169 4.917-5.354 5.432 0.306 2.422 2.395 3.956 2.395 7.542 0 5.654-5.856 6.53-10.525 6.53-4.712 0-10.699-0.904-10.699-7.051 0-5.264 3.388-7.402 3.388-11.651 0-1.739-0.677-2.445-1.293-2.78-1.024-0.56-0.188-2.097 0.836-1.539z"/>
   <path id="path136" style="fill:#e0e1dd;" d="m23.473 23.126c-0.747-2.27-1.587-4.247-2.332-6.014-1.027-2.437-1.93-4.594-2.104-6.58-0.302-3.455 0.576-7.094 4.16-7.841-0.026 0.177-0.042 0.365-0.048 0.55-2.955 0.906-3.731 3.893-3.461 6.983 0.157 1.79 0.885 3.59 1.883 5.98 0.763 1.827 1.663 3.956 2.537 6.619-0.227 0.065-0.443 0.168-0.635 0.303z"/>
   <path id="path138" style="fill:#8c8d8a;" d="m39.105 2.691c3.584 0.747 4.462 4.386 4.16 7.841-0.174 1.986-1.077 4.143-2.104 6.58-0.744 1.767-1.585 3.744-2.332 6.014-0.192-0.136-0.408-0.238-0.635-0.303 0.874-2.664 1.773-4.792 2.536-6.619 0.999-2.39 1.727-4.19 1.883-5.98 0.271-3.091-0.506-6.078-3.461-6.983-0.006-0.184-0.022-0.372-0.047-0.55z"/>
   <path id="path140" style="fill:#b0df82;" d="m38.03 23.823c-0.004 0.068-0.257 0.611-0.51 1.34-1.046 3.018-1.516 8.369-6.958 7.136 5.083 0.257 5.028-3.727 5.854-6.54 0.237-0.809 0.458-1.424 0.458-1.424 0.204-0.564 0.738-0.681 1.156-0.512z"/>
   <path id="path142" style="fill:#b0df82;" d="m15.502 26.6c-0.496-0.27-0.556-0.769-0.37-1.149 1.176 0.294 2.511 1.46 2.511 3.709 0 4.489-3.366 7.183-3.366 11.856 0 4.12 3.606 6.357 7.603 6.986-4.178-0.32-8.473-1.766-8.473-6.972 0-5.264 3.388-7.402 3.388-11.651 0-1.738-0.677-2.444-1.293-2.779z"/>
   <path id="path144" style="fill:#b0df82;" d="m24.906 25.632c0.952 3.27 0.816 7.72 5.708 7.72 0.238 0 0.479 0.224 0.499 0.46 0.214 2.682 2.583 4.01 2.583 7.931 0 4.769-5.411 5.026-7.811 4.539 4.129-0.242 6.998-1.441 6.998-4.731 0-2.837-2.104-4.817-2.398-7.514-4.391-0.388-5.666-4.174-5.772-5.459-0.102-1.216-0.518-2.503-0.93-3.649-0.193-0.536 0.101-0.952 0.498-1.109 0.046 0.05 0.356 0.888 0.625 1.812z"/>
  </g>
 </g>
</svg>
