<?xml version="1.0" encoding="UTF-8" standalone="no"?>
<!-- Created with Inkscape (http://www.inkscape.org/) -->
<svg id="svg1872" xmlns="http://www.w3.org/2000/svg" height="48" width="48" version="1.0" xmlns:xlink="http://www.w3.org/1999/xlink">
 <defs id="defs1874">
  <radialGradient id="radialGradient2812" gradientUnits="userSpaceOnUse" cy="2.4916" cx="5.2732" gradientTransform="matrix(1.5357 -.014212 .012489 1.3495 5.049 7.0469)" r="24">
   <stop id="stop2808" style="stop-color:#d3d7cf" offset="0"/>
   <stop id="stop2810" style="stop-color:#555753" offset="1"/>
  </radialGradient>
  <radialGradient id="radialGradient5510" gradientUnits="userSpaceOnUse" cy="14.457" cx="15.577" gradientTransform="matrix(1.5754 -.011949 .011143 1.4692 -7.4689 -4.5132)" r="23">
   <stop id="stop5506" style="stop-color:#eeeeec" offset="0"/>
   <stop id="stop5508" style="stop-color:#eeeeec;stop-opacity:0" offset="1"/>
  </radialGradient>
  <radialGradient id="radialGradient4349" gradientUnits="userSpaceOnUse" cy="45.626" cx="24.244" gradientTransform="matrix(1 0 0 .078723 0 42.034)" r="23.739">
   <stop id="stop4345" style="stop-color:#2e3436" offset="0"/>
   <stop id="stop4347" style="stop-color:#2e3436;stop-opacity:0" offset="1"/>
  </radialGradient>
 </defs>
 <g id="layer1">
  <path id="path3456" style="fill:url(#radialGradient4349)" d="m47.982 45.626a23.739 1.8688 0 1 1 -47.477 0 23.739 1.8688 0 1 1 47.477 0z" transform="matrix(1.0106 0 0 1.4216 -.51045 -19.204)"/>
  <path id="path1880" style="stroke:#2e3436;stroke-linecap:round;fill:url(#radialGradient2812)" d="m21.625 0.5c-0.596 0-1.094 0.4666-1.094 1.0625v3.9375c0 0.0921 0.041 0.1648 0.063 0.25-2.793 0.5174-5.36 1.662-7.563 3.2812-0.05-0.1625-0.121-0.3084-0.25-0.4374l-2.75-2.7813c-0.4211-0.4214-1.1096-0.4214-1.531 0l-2.6875 2.6875c-0.4214 0.4214-0.4214 1.1099 0 1.531l2.75 2.75c0.1302 0.13 0.3046 0.232 0.4687 0.281-1.7909 2.453-2.998 5.344-3.4062 8.5-0.0445-0.005-0.079-0.031-0.125-0.031h-3.9062c-0.59595 0-1.0938 0.498-1.0938 1.094v3.781c0 0.596 0.49785 1.094 1.0938 1.094h3.9062c0.1138 0 0.2097-0.03 0.3125-0.062 0.5587 2.929 1.7991 5.608 3.5625 7.874-0.305-0.026-0.6406 0.079-0.875 0.313l-2.6875 2.687c-0.4214 0.422-0.4214 1.11 0 1.532l2.7813 2.75c0.4213 0.421 1.0786 0.421 1.5002 0l2.687-2.688c0.268-0.268 0.355-0.625 0.281-0.968 2.177 1.59 4.719 2.698 7.469 3.218-0.054 0.129-0.093 0.258-0.093 0.406v3.813c0 0.596 0.466 1.094 1.062 1.094h3.938c0.595 0 1.062-0.498 1.062-1.094v-3.813c0-0.092-0.041-0.164-0.062-0.25 3.179-0.422 6.103-1.645 8.562-3.468 0.037 0.21 0.119 0.4 0.281 0.562l2.781 2.782c0.422 0.421 1.11 0.421 1.532 0l2.687-2.688c0.422-0.421 0.422-1.11 0-1.531l-2.781-2.75c-0.17-0.171-0.373-0.28-0.594-0.313 1.61-2.188 2.758-4.729 3.282-7.5 0.102 0.033 0.198 0.063 0.312 0.063h3.938c0.595 0 1.062-0.498 1.062-1.094v-3.813c0-0.595-0.467-1.062-1.062-1.062h-3.938c-0.057 0-0.102 0.023-0.156 0.031-0.412-3.14-1.593-6.026-3.375-8.469 0.186-0.044 0.385-0.135 0.531-0.281l2.688-2.687c0.421-0.4216 0.421-1.0789 0-1.5002l-2.782-2.7813c-0.421-0.4214-1.078-0.4214-1.5 0l-2.687 2.6875c-0.146 0.1456-0.237 0.3455-0.281 0.5312-2.438-1.7918-5.329-2.9834-8.469-3.4062 0.005-0.0445 0.031-0.079 0.031-0.125v-3.9375c0-0.5959-0.467-1.0625-1.062-1.0625h-3.813z"/>
  <path id="path3703" style="stroke:url(#radialGradient5510);stroke-linecap:round;fill:none" d="m22.094 1.5312c-0.316 0-0.563 0.2465-0.563 0.5626v4.125c0 0.158 0.053 0.3031 0.157 0.4062-3.182 0.4175-6.093 1.7058-8.5 3.594l-3.3537-3.3535c-0.2235-0.2235-0.589-0.2235-0.8125 0l-2.0625 2.0625c-0.2235 0.2236-0.2235 0.589 0 0.8125l3.3527 3.3535c-2.1213 2.652-3.4934 5.915-3.7808 9.5-0.097-0.077-0.21-0.125-0.3437-0.125h-4.125c-0.3161 0-0.5625 0.246-0.5625 0.562v2.907c0 0.316 0.2464 0.562 0.5625 0.562h4.125c0.1824 0 0.3332-0.086 0.4375-0.219 0.4322 3.337 1.8063 6.368 3.844 8.844 0.005 0.006-0.006 0.025 0 0.031l-3.4378 3.406c-0.2235 0.224-0.2235 0.589 0 0.813l2.0313 2.063c0.2235 0.223 0.589 0.223 0.8125 0l3.5-3.5c2.379 1.815 5.231 3.034 8.344 3.437-0.133 0.104-0.219 0.255-0.219 0.437v4.126c0 0.316 0.246 0.562 0.562 0.562h2.907c0.316 0 0.562-0.246 0.562-0.562v-4.126c0-0.133-0.048-0.246-0.125-0.343 3.594-0.288 6.876-1.651 9.532-3.781l3.422 3.454c0.224 0.223 0.589 0.223 0.813 0l2.062-2.063c0.224-0.223 0.224-0.589 0-0.812l-3.454-3.455c1.887-2.406 3.145-5.32 3.563-8.5 0.104 0.141 0.28 0.219 0.468 0.219h4.126c0.316 0 0.562-0.246 0.562-0.562v-2.907c0-0.316-0.246-0.562-0.562-0.562h-4.126c-0.133 0-0.246 0.049-0.343 0.125-0.28-3.567-1.652-6.82-3.75-9.469l3.423-3.5237c0.223-0.2235 0.223-0.589 0-0.8125l-2.063-2.0625c-0.223-0.2235-0.589-0.2235-0.812 0l-3.423 3.5237c-2.633-2.0856-5.863-3.4594-9.406-3.7498 0.061-0.091 0.124-0.1939 0.124-0.3124v-4.125c0-0.3161-0.246-0.5626-0.562-0.5626h-2.906z"/>
 </g>
</svg>
