<?xml version="1.0" encoding="UTF-8" standalone="no"?>
<!-- Created with Inkscape (http://www.inkscape.org/) -->
<svg id="svg11300" xmlns="http://www.w3.org/2000/svg" height="48" width="48" version="1.0" xmlns:xlink="http://www.w3.org/1999/xlink">
 <defs id="defs3">
  <linearGradient id="linearGradient5158" y2="55.906" gradientUnits="userSpaceOnUse" x2="21.781" y1="21.406" x1="23.281">
   <stop id="stop5154" style="stop-color:#ffffff;" offset="0"/>
   <stop id="stop5156" style="stop-color:#ffffff;stop-opacity:0;" offset="1"/>
  </linearGradient>
  <radialGradient id="radialGradient5166" gradientUnits="userSpaceOnUse" cy="18.031" cx="25.906" gradientTransform="matrix(.73703 0 0 .73703 6.8126 4.7417)" r="19.005">
   <stop id="stop5162" style="stop-color:#ffffff;" offset="0"/>
   <stop id="stop5164" style="stop-color:#d3d7cf;" offset="1"/>
  </radialGradient>
  <radialGradient id="radialGradient5176" gradientUnits="userSpaceOnUse" cy="40.75" cx="25.312" gradientTransform="matrix(1 0 0 .35294 0 26.368)" r="18.062">
   <stop id="stop5172" style="stop-color:#000000;" offset="0"/>
   <stop id="stop5174" style="stop-color:#000000;stop-opacity:0;" offset="1"/>
  </radialGradient>
 </defs>
 <g id="layer1">
  <path id="path5168" style="opacity:0.23595503;marker-end:none;fill-rule:evenodd;color:#000000;marker-start:none;marker-mid:none;fill:url(#radialGradient5176);" d="m43.375 40.75a18.062 6.375 0 1 1 -36.125 0 18.062 6.375 0 1 1 36.125 0z" transform="matrix(1.1384 0 0 1.1384 -3.5035 -7.6401)"/>
  <path id="path4263" style="stroke-linejoin:miter;marker-end:none;fill-rule:evenodd;color:#000000;marker-start:none;stroke-dashoffset:0;stroke:#888a85;stroke-linecap:butt;stroke-miterlimit:4;stroke-dasharray:none;stroke-width:1.01015258;marker-mid:none;fill:url(#radialGradient5166);" d="m23.562 5.5312v5.1248c-2.568 0.358-4.916 1.418-6.843 2.969l-3.719-3.7188c-1.905-1.9049-3.954 0.2338-2.094 2.0938l3.719 3.719c-1.558 1.918-2.604 4.251-2.969 6.812h-5.1248c-2.7457 0-2.4764 2.969 0 2.969h5.0308c0.194 2.706 1.142 5.184 2.657 7.25l-3.313 3.312c-1.8122 1.813 0.412 3.776 2.094 2.094l3.188-3.187c2.017 1.797 4.568 2.988 7.374 3.375v4.187c0 2.653 2.969 2.658 2.969 0v-4.062c2.929-0.213 5.597-1.352 7.75-3.094l2.781 2.781c1.503 1.68 3.862-0.414 2.094-2.094l-2.781-2.781c1.75-2.165 2.854-4.838 3.063-7.781h4.093c2.035 0 2.305-2.969 0-2.969h-4.187c-0.392-2.795-1.585-5.333-3.375-7.343l3.187-3.188c1.591-1.768-0.503-3.5964-2.094-2.0938l-3.312 3.3128c-2.059-1.51-4.525-2.458-7.219-2.657v-5.0308c0-2.3881-2.969-2.2097-2.969 0z"/>
  <path id="path5150" style="opacity:0.64606742;stroke-linejoin:miter;marker-end:none;color:#000000;marker-start:none;stroke-dashoffset:0;stroke:url(#linearGradient5158);stroke-linecap:butt;stroke-miterlimit:4;stroke-dasharray:none;stroke-width:1;marker-mid:none;fill:none;" d="m25.094 4.6875c-0.291 0.0087-0.656 0.1431-0.656 0.8437v5.1248c0 0.437-0.319 0.809-0.75 0.875-2.406 0.335-4.599 1.327-6.407 2.781-0.353 0.289-0.867 0.262-1.187-0.062l-3.719-3.719c-0.724-0.7233-1.04-0.525-1.187-0.375-0.148 0.151-0.352 0.523 0.343 1.219l3.719 3.719c0.324 0.32 0.351 0.834 0.062 1.187-1.459 1.797-2.439 3.973-2.781 6.375-0.066 0.432-0.438 0.751-0.875 0.75h-5.1248c-0.5271 0-0.8092 0.139-0.9374 0.25-0.1283 0.111-0.1302 0.2-0.125 0.313 0.0102 0.225 0.1774 0.656 1.0624 0.656h5.0308c0.459 0.003 0.838 0.356 0.876 0.813 0.181 2.539 1.08 4.844 2.5 6.781 0.261 0.355 0.221 0.848-0.094 1.156l-3.313 3.313c-0.333 0.332-0.398 0.591-0.406 0.75-0.008 0.158 0.034 0.258 0.125 0.343 0.182 0.171 0.544 0.332 1.125-0.25l3.187-3.187c0.333-0.334 0.87-0.348 1.219-0.032 1.886 1.68 4.271 2.793 6.907 3.157 0.431 0.066 0.75 0.438 0.75 0.875v4.187c0 0.997 0.409 1.094 0.624 1.094 0.216 0 0.594-0.094 0.594-1.094v-4.062c0.003-0.458 0.356-0.838 0.813-0.875 2.74-0.2 5.227-1.27 7.25-2.906 0.353-0.289 0.867-0.262 1.187 0.062l2.782 2.781 0.031 0.031c0.476 0.533 0.772 0.371 1 0.157 0.113-0.107 0.189-0.23 0.187-0.375-0.001-0.146-0.039-0.336-0.344-0.625l-0.031-0.031-2.781-2.782c-0.324-0.32-0.351-0.834-0.062-1.187 1.64-2.03 2.679-4.52 2.874-7.281 0.038-0.457 0.417-0.81 0.876-0.813h4.093c0.588 0 0.736-0.343 0.75-0.656 0.007-0.157-0.039-0.286-0.125-0.375-0.086-0.09-0.238-0.188-0.625-0.188h-4.187c-0.437 0.001-0.809-0.318-0.875-0.75-0.368-2.623-1.482-4.995-3.157-6.875-0.316-0.349-0.302-0.886 0.032-1.219l3.156-3.156c0.015-0.017 0.017-0.015 0.031-0.031 0.511-0.591 0.333-0.835 0.157-1-0.182-0.17-0.507-0.308-1.032 0.187l-3.281 3.282c-0.308 0.315-0.801 0.355-1.156 0.094-1.93-1.415-4.223-2.314-6.75-2.5-0.457-0.038-0.81-0.417-0.813-0.876v-5.0308c0-0.4177-0.123-0.5893-0.218-0.6874-0.096-0.0982-0.199-0.1607-0.344-0.1563z"/>
 </g>
</svg>
