<?xml version="1.0" encoding="UTF-8" standalone="no"?>
<!-- Created with Inkscape (http://www.inkscape.org/) -->
<svg id="svg14603" xmlns:rdf="http://www.w3.org/1999/02/22-rdf-syntax-ns#" xmlns="http://www.w3.org/2000/svg" sodipodi:docname="system-installer.svg" xmlns:sodipodi="http://inkscape.sourceforge.net/DTD/sodipodi-0.dtd" height="48px" sodipodi:version="0.32" width="48px" xmlns:cc="http://web.resource.org/cc/" xmlns:xlink="http://www.w3.org/1999/xlink" sodipodi:docbase="/home/tigert/cvs/freedesktop.org/tango-icon-theme/scalable/apps" xmlns:dc="http://purl.org/dc/elements/1.1/">
 <defs id="defs3">
  <linearGradient id="linearGradient7844">
   <stop id="stop7846" style="stop-color:#000000;" offset="0"/>
   <stop id="stop7848" style="stop-color:#000000;stop-opacity:0;" offset="1"/>
  </linearGradient>
  <linearGradient id="linearGradient7676" y2="40.857" gradientUnits="userSpaceOnUse" y1="9.7143" gradientTransform="matrix(1.0085 0 0 1 -47.596 -.28571)" x2="72.857" x1="64.571">
   <stop id="stop7672" style="stop-color:#dfdfdf;" offset="0"/>
   <stop id="stop7674" style="stop-color:#c0c0c0;" offset="1"/>
  </linearGradient>
  <linearGradient id="linearGradient7840" y2=".50379" gradientUnits="userSpaceOnUse" y1="11.312" gradientTransform="translate(-2)" x2="19.324" x1="19.363">
   <stop id="stop7836" style="stop-color:#ffffff;" offset="0"/>
   <stop id="stop7838" style="stop-color:#ffffff;stop-opacity:0;" offset="1"/>
  </linearGradient>
  <radialGradient id="radialGradient7850" cx="24.547" xlink:href="#linearGradient7844" gradientUnits="userSpaceOnUse" cy="37.595" r="22.728" gradientTransform="matrix(1 0 0 .33333 1.2989e-16 25.064)"/>
  <radialGradient id="radialGradient10566" gradientUnits="userSpaceOnUse" xlink:href="#linearGradient7844" cx="24.547" cy="37.595" r="22.728" gradientTransform="matrix(1 0 0 .33333 1.1216e-14 25.064)"/>
  <linearGradient id="linearGradient10568" y2="34.308" gradientUnits="userSpaceOnUse" y1="11.188" gradientTransform="matrix(.68314 0 0 .68314 18.556 18.129)" x2="32.511" x1="14.997">
   <stop id="stop3034" style="stop-color:#EBEBEB;" offset="0"/>
   <stop id="stop3036" style="stop-color:#FFFFFF;" offset=".5"/>
   <stop id="stop3038" style="stop-color:#EBEBEB;" offset="1"/>
  </linearGradient>
  <linearGradient id="linearGradient10570" y2="14.203" gradientUnits="userSpaceOnUse" y1="32.416" gradientTransform="matrix(.70531 0 0 .70531 18.024 17.617)" x2="35.391" x1="12.274">
   <stop id="stop3043" style="stop-color:#FBFBFB;" offset="0"/>
   <stop id="stop3045" style="stop-color:#B6B6B6;" offset=".5"/>
   <stop id="stop3047" style="stop-color:#E4E4E4;" offset="1"/>
  </linearGradient>
  <linearGradient id="linearGradient10572" y2="28" xlink:href="#linearGradient7844" gradientUnits="userSpaceOnUse" y1="14.625" gradientTransform="matrix(.71730 0 0 .71730 17.736 18.069)" x2="29" x1="21.125"/>
  <linearGradient id="linearGradient10576" y2="54.698" gradientUnits="userSpaceOnUse" y1="3.61" gradientTransform="matrix(.57384 0 0 .57384 20.98 19.563)" x2="48.799" x1="10.502">
   <stop id="stop6038" style="stop-color:#ffffff;" offset="0"/>
   <stop id="stop6040" style="stop-color:#ffffff;stop-opacity:0;" offset="1"/>
  </linearGradient>
  <linearGradient id="linearGradient10578" y2="18.367" gradientUnits="userSpaceOnUse" y1="31.495" x2="17.743" x1="28.703">
   <stop id="stop6030" style="stop-color:#ffffff;" offset="0"/>
   <stop id="stop6032" style="stop-color:#ffffff;stop-opacity:0;" offset="1"/>
  </linearGradient>
  <radialGradient id="radialGradient10580" gradientUnits="userSpaceOnUse" cx="37.751" cy="27.569" r="21.333" gradientTransform="matrix(.44175 .49866 -.40710 .36062 32.008 10.213)">
   <stop id="stop3396" style="stop-color:#fff307;" offset="0"/>
   <stop id="stop3398" style="stop-color:#166eff;" offset=".5"/>
   <stop id="stop3400" style="stop-color:#ffffff;stop-opacity:0.0000000;" offset="1"/>
  </radialGradient>
 </defs>
 <sodipodi:namedview id="base" bordercolor="#666666" pagecolor="#ffffff" showgrid="false" borderopacity="0.26666667" fill="#a40000"/>
 <metadata id="metadata4">
  <rdf:RDF>
   <cc:Work rdf:about="">
    <dc:format>image/svg+xml</dc:format>
    <dc:type rdf:resource="http://purl.org/dc/dcmitype/StillImage"/>
    <dc:title>System - Installer</dc:title>
    <dc:creator>
     <cc:Agent>
      <dc:title>jakub Steiner</dc:title>
     </cc:Agent>
    </dc:creator>
    <dc:source>http://jimmac.musichall.cz</dc:source>
    <cc:license rdf:resource="http://creativecommons.org/licenses/by-sa/2.0/"/>
   </cc:Work>
   <cc:License rdf:about="http://creativecommons.org/licenses/by-sa/2.0/">
    <cc:permits rdf:resource="http://web.resource.org/cc/Reproduction"/>
    <cc:permits rdf:resource="http://web.resource.org/cc/Distribution"/>
    <cc:requires rdf:resource="http://web.resource.org/cc/Notice"/>
    <cc:requires rdf:resource="http://web.resource.org/cc/Attribution"/>
    <cc:permits rdf:resource="http://web.resource.org/cc/DerivativeWorks"/>
    <cc:requires rdf:resource="http://web.resource.org/cc/ShareAlike"/>
   </cc:License>
  </rdf:RDF>
 </metadata>
 <g id="layer1">
  <path id="path7822" sodipodi:nodetypes="ccccc" style="stroke-linejoin:round;marker-end:none;fill-rule:evenodd;color:#000000;marker-start:none;stroke-dashoffset:0.0000000;stroke:#606060;stroke-linecap:round;stroke-miterlimit:4.0000000;stroke-dasharray:none;stroke-width:1.0000000;marker-mid:none;fill:#6b6c69;" d="m7.0664 9.8326l4.0766-4.2612h23.571l4.321 4.3622-31.969-0.101z"/>
  <path id="path7842" sodipodi:rx="22.728432" sodipodi:ry="7.5761442" style="opacity:0.62566847;marker-end:none;fill-rule:evenodd;color:#000000;marker-start:none;marker-mid:none;fill:url(#radialGradient7850);" sodipodi:type="arc" d="m47.275 37.595a22.728 7.5761 0 1 1 -45.457 0 22.728 7.5761 0 1 1 45.457 0z" transform="matrix(.90222 0 0 .90222 .40012 3.676)" sodipodi:cy="37.595428" sodipodi:cx="24.546707"/>
  <rect id="rect6910" style="stroke-linejoin:miter;marker-end:none;fill-rule:evenodd;color:#000000;marker-start:none;stroke-dashoffset:0.0000000;stroke:#606060;stroke-linecap:butt;stroke-miterlimit:4.0000000;stroke-dasharray:none;stroke-width:1.0000001;marker-mid:none;fill:url(#linearGradient7676);" rx="1.4286" ry="1.4286" height="31.143" width="32.849" y="9.4286" x="6.5757"/>
  <path id="rect7826" sodipodi:nodetypes="cccccc" style="marker-end:none;fill-rule:evenodd;color:#000000;marker-start:none;marker-mid:none;fill:#a40000;" d="m38.857 22.756v16.429c0 0.475-0.363 0.857-0.814 0.857h-22.169l0.05-17.286h22.933z"/>
  <path id="path7824" sodipodi:nodetypes="cc" style="stroke-linejoin:miter;marker-end:none;color:#000000;marker-start:none;stroke-dashoffset:0.0000000;stroke:#606060;stroke-linecap:butt;stroke-miterlimit:4.0000000;stroke-dasharray:1.0000000 1.0000000;stroke-width:1.0000000;marker-mid:none;fill:none;" d="m15.38 11.286v28"/>
  <path id="path10582" sodipodi:nodetypes="cccccc" style="marker-end:none;fill-rule:evenodd;color:#000000;marker-start:none;marker-mid:none;fill:#f0f0f0;" d="m38.857 22.613v-11.143c0-0.474-0.363-0.857-0.814-0.857h-22.169l0.05 12h22.933z"/>
  <path id="rect7829" sodipodi:nodetypes="ccccccccs" style="opacity:0.62566847;stroke-linejoin:miter;marker-end:none;color:#000000;marker-start:none;stroke-dashoffset:0.0000000;stroke:url(#linearGradient7840);stroke-linecap:butt;stroke-miterlimit:4.0000000;stroke-width:0.99999994;marker-mid:none;fill:none;" d="m11.513 6.5275h22.772l4.257 4.2565v28.432c0 0.287-0.232 0.519-0.519 0.519h-30.046c-0.2874 0-0.519-0.232-0.519-0.519v-28.432l4.055-4.2565z"/>
  <g id="g10554" transform="translate(-1 -.28571)">
   <path id="path10170" sodipodi:rx="22.728432" sodipodi:ry="7.5761442" style="opacity:0.62566847;marker-end:none;fill-rule:evenodd;color:#000000;marker-start:none;marker-mid:none;fill:url(#radialGradient10566);" sodipodi:type="arc" d="m47.275 37.595a22.728 7.5761 0 1 1 -45.457 0 22.728 7.5761 0 1 1 45.457 0z" transform="matrix(.55024 0 0 .55024 19.897 20.623)" sodipodi:cy="37.595428" sodipodi:cx="24.546707"/>
   <g id="g10156" transform="translate(-1.6429 -2.6429)">
    <path id="path3040" style="fill-rule:nonzero;fill:url(#linearGradient10568);" d="m34.951 21.954c-6.626 0-11.955 5.329-11.955 11.956 0 6.626 5.329 11.955 11.955 11.955 6.627 0 11.955-5.329 11.955-11.955 0-6.627-5.328-11.956-11.955-11.956zm0 14.825c-1.571 0-2.869-1.298-2.869-2.869 0-1.572 1.298-2.87 2.869-2.87 1.572 0 2.869 1.298 2.869 2.87 0 1.571-1.297 2.869-2.869 2.869z"/>
    <path id="path3049" style="stroke:#808080;fill-rule:nonzero;stroke-miterlimit:4.0000000;fill:url(#linearGradient10570);" d="m34.951 21.567c-6.841 0-12.343 5.501-12.343 12.343 0 6.841 5.502 12.342 12.343 12.342 6.842 0 12.343-5.501 12.343-12.342 0-6.842-5.501-12.343-12.343-12.343zm0 15.305c-1.622 0-2.962-1.34-2.962-2.962 0-1.623 1.34-2.963 2.962-2.963 1.623 0 2.963 1.34 2.963 2.963 0 1.622-1.34 2.962-2.963 2.962z"/>
    <path id="path3051" style="opacity:0.10999996;fill-rule:nonzero;" d="m34.951 28.111c-3.238 0-5.798 2.636-5.798 5.799 0 3.237 2.636 5.798 5.798 5.798 3.238 0 5.798-2.636 5.798-5.798 0-3.238-2.635-5.799-5.798-5.799zm0 8.961c-1.732 0-3.162-1.431-3.162-3.162 0-1.732 1.43-3.163 3.162-3.163s3.163 1.431 3.163 3.163c0 1.731-1.431 3.162-3.163 3.162z"/>
    <path id="path3916" style="fill-rule:nonzero;fill:url(#linearGradient10572);" d="m38.151 22.817l-2.064 8.03c0.645 0.172 1.161 0.572 1.512 1.124l7.111-4.332c-1.455-2.37-3.79-4.113-6.559-4.822z"/>
    <path id="path4214" style="fill-rule:nonzero;fill:url(#linearGradient10574);" d="m30.912 44.678l2.717-7.834c-0.629-0.224-1.11-0.664-1.414-1.244l-7.444 3.733c1.255 2.481 3.439 4.411 6.141 5.345z"/>
    <path id="path5264" sodipodi:nodetypes="cccccc" style="opacity:0.54644811;stroke:url(#linearGradient10576);stroke-miterlimit:4.0000000;fill:none;" d="m34.951 22.549c-6.297 0-11.36 5.063-11.36 11.361 0 6.297 5.063 11.36 11.36 11.36s11.361-5.063 11.361-11.36c0-6.298-5.064-11.361-11.361-11.361z"/>
    <path id="path6026" sodipodi:rx="6.0987959" sodipodi:ry="6.0987959" style="opacity:0.67213112;stroke-linejoin:miter;marker-end:none;color:#000000;marker-start:none;stroke-dashoffset:0.0000000;stroke:url(#linearGradient10578);stroke-linecap:butt;stroke-miterlimit:4.0000000;stroke-width:1.6215941;marker-mid:none;fill:none;" sodipodi:type="arc" d="m30.406 24.931a6.0988 6.0988 0 1 1 -12.198 0 6.0988 6.0988 0 1 1 12.198 0z" transform="matrix(.57384 0 0 .57384 21.031 19.614)" sodipodi:cy="24.930641" sodipodi:cx="24.306795"/>
    <path id="path3390" style="opacity:0.11428566;fill-rule:nonzero;fill:url(#radialGradient10580);" d="m34.951 23.066c-6.01 0-10.844 4.833-10.844 10.844 0 6.01 4.834 10.843 10.844 10.843 6.011 0 10.844-4.833 10.844-10.843 0-6.011-4.833-10.844-10.844-10.844zm0 13.446c-1.425 0-2.602-1.177-2.602-2.602 0-1.426 1.177-2.603 2.602-2.603s2.603 1.177 2.603 2.603c0 1.425-1.178 2.602-2.603 2.602z"/>
   </g>
  </g>
 </g>
</svg>
