<?xml version="1.0" encoding="UTF-8" standalone="no"?>
<!-- Created with Inkscape (http://www.inkscape.org/) -->
<svg id="svg11300" xmlns:rdf="http://www.w3.org/1999/02/22-rdf-syntax-ns#" xmlns="http://www.w3.org/2000/svg" height="48px" width="48px" xmlns:cc="http://creativecommons.org/ns#" xmlns:xlink="http://www.w3.org/1999/xlink" xmlns:dc="http://purl.org/dc/elements/1.1/">
 <defs id="defs3">
  <linearGradient id="linearGradient15015">
   <stop id="stop15017" style="stop-color:#fff" offset="0"/>
   <stop id="stop15025" style="stop-color:#d4d6d2" offset=".13674"/>
   <stop id="stop15023" style="stop-color:#d4d6d2" offset=".79310"/>
   <stop id="stop15019" style="stop-color:#7e8478" offset="1"/>
  </linearGradient>
  <linearGradient id="linearGradient14973">
   <stop id="stop14975" style="stop-color:#747474" offset="0"/>
   <stop id="stop14977" style="stop-color:#b0b0b0" offset=".62069"/>
   <stop id="stop14979" style="stop-color:#3f3f3f" offset="1"/>
  </linearGradient>
  <linearGradient id="linearGradient14881">
   <stop id="stop14883" style="stop-color:#747474" offset="0"/>
   <stop id="stop14893" style="stop-color:#fff" offset=".62069"/>
   <stop id="stop14885" style="stop-color:#3f3f3f" offset="1"/>
  </linearGradient>
  <linearGradient id="linearGradient14780">
   <stop id="stop14782" style="stop-color:#ebff39" offset="0"/>
   <stop id="stop14784" style="stop-color:#ebff39;stop-opacity:0" offset="1"/>
  </linearGradient>
  <filter id="filter5416" height="2.0197" width="1.2249" y="-.50983" x="-.11246">
   <feGaussianBlur id="feGaussianBlur5418" stdDeviation="1.5932138"/>
  </filter>
  <filter id="filter5482" height="3.0474" width="1.2516" y="-1.0237" x="-.12582">
   <feGaussianBlur id="feGaussianBlur5484" stdDeviation="1.1730045"/>
  </filter>
  <filter id="filter6171" height="4.0438" width="1.2829" y="-1.5219" x="-.14144">
   <feGaussianBlur id="feGaussianBlur6173" stdDeviation="1.1889706"/>
  </filter>
  <filter id="filter6051" height="1.9436" width="1.15" y="-.47181" x="-.074990">
   <feGaussianBlur id="feGaussianBlur6053" stdDeviation="1.4154412"/>
  </filter>
  <filter id="filter5957" height="1.1647" width="1.9882" y="-.082353" x="-.49412">
   <feGaussianBlur id="feGaussianBlur5959" stdDeviation="0.69878785"/>
  </filter>
  <linearGradient id="linearGradient6075">
   <stop id="stop6077" offset="0"/>
   <stop id="stop6079" style="stop-opacity:0" offset="1"/>
  </linearGradient>
  <linearGradient id="linearGradient7644" y2="32.162" gradientUnits="userSpaceOnUse" x2="40.938" gradientTransform="matrix(.42865 0 0 .48493 28.778 24.423)" y1="32.162" x1="6.7268">
   <stop id="stop6217" style="stop-color:#ead200" offset="0"/>
   <stop id="stop6219" style="stop-color:#fff16a" offset="0.21"/>
   <stop id="stop6221" style="stop-color:#b5a300" offset="0.84"/>
   <stop id="stop6223" style="stop-color:#e8d000" offset="1"/>
  </linearGradient>
  <linearGradient id="linearGradient7646" y2="36.127" gradientUnits="userSpaceOnUse" x2="30.875" gradientTransform="matrix(.39358 0 0 .43820 29.624 26.447)" y1="25.002" x1="10.907">
   <stop id="stop9847" style="stop-color:#fff" offset="0"/>
   <stop id="stop9849" style="stop-color:#fff;stop-opacity:.49485" offset="1"/>
  </linearGradient>
  <linearGradient id="linearGradient7648" y2="17" gradientUnits="userSpaceOnUse" x2="24.75" gradientTransform="matrix(.41176 0 0 .69983 29.182 23.103)" y1="21" x1="24.875">
   <stop id="stop5883" style="stop-color:#fffac7" offset="0"/>
   <stop id="stop5885" style="stop-color:#fff8b2" offset="1"/>
  </linearGradient>
  <linearGradient id="linearGradient7650" y2="18.038" gradientUnits="userSpaceOnUse" x2="21.942" gradientTransform="matrix(.39394 0 0 .59271 29.61 25.349)" y1="21.551" x1="21.942">
   <stop id="stop12073" style="stop-color:#fff" offset="0"/>
   <stop id="stop12075" style="stop-color:#fff;stop-opacity:0" offset="1"/>
  </linearGradient>
  <radialGradient id="radialGradient7652" xlink:href="#linearGradient6075" gradientUnits="userSpaceOnUse" cy="20.312" cx="15.938" gradientTransform="matrix(1 0 0 .58491 0 8.4316)" r="3.3125"/>
  <linearGradient id="linearGradient7656" y2="20.094" gradientUnits="userSpaceOnUse" x2="34" gradientTransform="translate(79.784 -9.5557)" y1="20.094" x1="17.188">
   <stop id="stop6091" offset="0"/>
   <stop id="stop6097" style="stop-opacity:.17172" offset=".5"/>
   <stop id="stop6093" offset="1"/>
  </linearGradient>
  <radialGradient id="radialGradient7658" gradientUnits="userSpaceOnUse" cy="29.42" cx="36.125" gradientTransform="matrix(.88752 0 0 .62127 4.0633 12.066)" r="5">
   <stop id="stop7614" style="stop-color:#fff" offset="0"/>
   <stop id="stop7616" style="stop-color:#eeeeec" offset="1"/>
  </radialGradient>
  <radialGradient id="radialGradient7660" gradientUnits="userSpaceOnUse" cy="30.781" cx="35.375" gradientTransform="matrix(1 0 0 .91176 0 2.716)" r="1.0625">
   <stop id="stop7624" style="stop-color:#fff" offset="0"/>
   <stop id="stop7626" style="stop-color:#fff;stop-opacity:0" offset="1"/>
  </radialGradient>
  <radialGradient id="radialGradient7717" gradientUnits="userSpaceOnUse" cy="44.75" cx="21.5" gradientTransform="matrix(1 0 0 .22059 0 34.879)" r="17">
   <stop id="stop14995" offset="0"/>
   <stop id="stop14997" style="stop-opacity:0" offset="1"/>
  </radialGradient>
  <linearGradient id="linearGradient7719" y2="18.042" xlink:href="#linearGradient15015" gradientUnits="userSpaceOnUse" x2="43.683" gradientTransform="matrix(1 0 0 .39540 -.8125 14.196)" y1="8.8501" x1="43.692"/>
  <linearGradient id="linearGradient7721" y2="18.042" xlink:href="#linearGradient15015" gradientUnits="userSpaceOnUse" x2="43.683" gradientTransform="matrix(1 0 0 .39540 -.8125 21.146)" y1="8.8501" x1="43.692"/>
  <linearGradient id="linearGradient7723" y2="49.794" gradientUnits="userSpaceOnUse" x2="39.003" gradientTransform="translate(2,-3)" y1="22.747" x1="20.047">
   <stop id="stop14983" style="stop-color:#788600" offset="0"/>
   <stop id="stop14985" style="stop-color:#505900" offset="1"/>
  </linearGradient>
  <linearGradient id="linearGradient7725" y2="39.267" xlink:href="#linearGradient14780" gradientUnits="userSpaceOnUse" x2="6.2377" gradientTransform="matrix(1.9844 0 0 1 5.0938 -3.0136)" y1="42.891" x1="6.221"/>
  <linearGradient id="linearGradient7727" y2="39.267" xlink:href="#linearGradient14780" gradientUnits="userSpaceOnUse" x2="6.2377" gradientTransform="matrix(1.9844 0 0 1 8.0938 -3.0136)" y1="42.891" x1="6.221"/>
  <linearGradient id="linearGradient7729" y2="39.267" xlink:href="#linearGradient14780" gradientUnits="userSpaceOnUse" x2="6.2377" gradientTransform="matrix(1.9844 0 0 1 11.109 -3.0136)" y1="42.891" x1="6.221"/>
  <linearGradient id="linearGradient7731" y2="39.267" xlink:href="#linearGradient14780" gradientUnits="userSpaceOnUse" x2="6.2377" gradientTransform="matrix(1.9844 0 0 1 14.109 -3.0136)" y1="42.891" x1="6.221"/>
  <linearGradient id="linearGradient7733" y2="39.267" xlink:href="#linearGradient14780" gradientUnits="userSpaceOnUse" x2="6.2377" gradientTransform="matrix(1.9844 0 0 1 17.109 -3.0136)" y1="42.891" x1="6.221"/>
  <linearGradient id="linearGradient7735" y2="31.347" gradientUnits="userSpaceOnUse" x2="18.968" gradientTransform="matrix(.93474 0 0 1.1494 2.5188 -6.8596)" y1="20.166" x1="16.965">
   <stop id="stop14863" style="stop-color:#fff" offset="0"/>
   <stop id="stop14865" style="stop-color:#fff;stop-opacity:0" offset="1"/>
  </linearGradient>
  <linearGradient id="linearGradient7737" y2="19.5" xlink:href="#linearGradient14881" gradientUnits="userSpaceOnUse" x2="4.3284" gradientTransform="translate(2,-3)" y1="19.5" x1="8"/>
  <linearGradient id="linearGradient7743" y2="19.5" xlink:href="#linearGradient14881" gradientUnits="userSpaceOnUse" x2="27" gradientTransform="translate(1,-3)" y1="19.5" x1="24"/>
  <linearGradient id="linearGradient7745" y2="21.5" xlink:href="#linearGradient14881" gradientUnits="userSpaceOnUse" x2="27" gradientTransform="translate(1,-3)" y1="21.5" x1="24"/>
  <linearGradient id="linearGradient7747" y2="23.5" xlink:href="#linearGradient14881" gradientUnits="userSpaceOnUse" x2="27" gradientTransform="translate(1,-3)" y1="23.5" x1="24"/>
  <linearGradient id="linearGradient7749" y2="19.5" xlink:href="#linearGradient14881" gradientUnits="userSpaceOnUse" x2="4.3284" gradientTransform="translate(7,-31)" y1="19.5" x1="8"/>
  <linearGradient id="linearGradient7751" y2="19.5" xlink:href="#linearGradient14881" gradientUnits="userSpaceOnUse" x2="4.3284" gradientTransform="translate(7,-33)" y1="19.5" x1="8"/>
  <linearGradient id="linearGradient7753" y2="19.5" xlink:href="#linearGradient14881" gradientUnits="userSpaceOnUse" x2="4.3284" gradientTransform="translate(7,-35)" y1="19.5" x1="8"/>
  <linearGradient id="linearGradient7755" y2="19.5" xlink:href="#linearGradient14881" gradientUnits="userSpaceOnUse" x2="4.3284" gradientTransform="translate(7,-37)" y1="19.5" x1="8"/>
  <linearGradient id="linearGradient7757" y2="19.5" xlink:href="#linearGradient14881" gradientUnits="userSpaceOnUse" x2="4.3284" gradientTransform="translate(7,-39)" y1="19.5" x1="8"/>
  <linearGradient id="linearGradient7759" y2="19.5" xlink:href="#linearGradient14881" gradientUnits="userSpaceOnUse" x2="4.3284" gradientTransform="translate(7,-41)" y1="19.5" x1="8"/>
  <linearGradient id="linearGradient7761" y2="19.5" xlink:href="#linearGradient14881" gradientUnits="userSpaceOnUse" x2="4.3284" gradientTransform="translate(7,-43)" y1="19.5" x1="8"/>
  <linearGradient id="linearGradient7763" y2="11.5" xlink:href="#linearGradient14973" gradientUnits="userSpaceOnUse" x2="4.7127" gradientTransform="translate(17,-31)" y1="11.5" x1="7.1161"/>
  <linearGradient id="linearGradient7765" y2="13.5" xlink:href="#linearGradient14973" gradientUnits="userSpaceOnUse" x2="4.7127" gradientTransform="translate(17,-33)" y1="13.5" x1="7.1161"/>
  <linearGradient id="linearGradient7767" y2="15.5" xlink:href="#linearGradient14973" gradientUnits="userSpaceOnUse" x2="4.7127" gradientTransform="translate(17,-35)" y1="15.5" x1="7.1161"/>
  <linearGradient id="linearGradient7769" y2="17.5" xlink:href="#linearGradient14973" gradientUnits="userSpaceOnUse" x2="4.7127" gradientTransform="translate(17,-37)" y1="17.5" x1="7.1161"/>
  <linearGradient id="linearGradient7771" y2="19.5" xlink:href="#linearGradient14973" gradientUnits="userSpaceOnUse" x2="4.7127" gradientTransform="translate(17,-39)" y1="19.5" x1="7.1161"/>
  <linearGradient id="linearGradient7773" y2="21.5" xlink:href="#linearGradient14973" gradientUnits="userSpaceOnUse" x2="4.7127" gradientTransform="translate(17,-41)" y1="21.5" x1="7.1161"/>
  <linearGradient id="linearGradient7775" y2="23.5" xlink:href="#linearGradient14973" gradientUnits="userSpaceOnUse" x2="4.7127" gradientTransform="translate(17,-43)" y1="23.5" x1="7.1161"/>
 </defs>
 <metadata id="metadata4">
  <rdf:RDF>
   <cc:Work rdf:about="">
    <dc:format>image/svg+xml</dc:format>
    <dc:type rdf:resource="http://purl.org/dc/dcmitype/StillImage"/>
    <dc:creator>
     <cc:Agent>
      <dc:title>Lapo Calamandrei</dc:title>
     </cc:Agent>
    </dc:creator>
    <dc:source/>
    <cc:license rdf:resource="http://creativecommons.org/licenses/GPL/2.0/"/>
    <dc:title>Jockey</dc:title>
    <dc:subject>
     <rdf:Bag>
      <rdf:li>hardware</rdf:li>
      <rdf:li>pci</rdf:li>
      <rdf:li>board</rdf:li>
      <rdf:li>restricted</rdf:li>
      <rdf:li>lock</rdf:li>
     </rdf:Bag>
    </dc:subject>
    <dc:contributor>
     <cc:Agent>
      <dc:title>Jakub Steiner</dc:title>
     </cc:Agent>
    </dc:contributor>
   </cc:Work>
  </rdf:RDF>
 </metadata>
 <g id="layer1">
  <g id="g7662" transform="translate(-2,-2)">
   <rect id="rect5432" style="opacity:.46386;color:#000000;filter:url(#filter5482)" rx="1.375" ry="1.375" height="2.75" width="22.375" y="40.25" x="12.75"/>
   <path id="path14991" style="opacity:.28916;color:#000000;filter:url(#filter5416);display:block;fill:url(#radialGradient7717)" d="m38.5 44.75a17 3.75 0 1 1 -34 0 17 3.75 0 1 1 34 0z" transform="matrix(1.3529 0 0 1 -4.8382 -2.75)"/>
   <rect id="rect15011" style="stroke-linejoin:round;color:#000000;stroke:#555753;stroke-linecap:round;display:block;fill:url(#linearGradient7719)" height="3.9684" width="4.7361" y="17.55" x="39.844"/>
   <rect id="rect4743" style="stroke-linejoin:round;color:#000000;stroke:#555753;stroke-linecap:round;display:block;fill:url(#linearGradient7721)" height="3.9684" width="4.7361" y="24.5" x="39.844"/>
   <path id="rect14772" style="color:#000000;stroke:#3a3e00;display:block;fill:url(#linearGradient7723)" d="m3.501 10.63l0.0039 26.72c0 0.079 0.0888 0.15 0.1868 0.15l10.811 0.016-0.004 4.853c0 0.071 0.023 0.126 0.125 0.127l18.755-0.008c0.093-0.004 0.125-0.064 0.125-0.127l0.004-4.869 6.882 0.008c0.094 0 0.116-0.13 0.112-0.213v-26.657c0.004-0.082-0.045-0.122-0.128-0.127h-36.749c-0.0781 0.005-0.1318 0.053-0.124 0.127z"/>
   <path id="path14957" style="color:#000000;stroke:#98a332;display:block;fill:none" d="m27 20.472l0.064 0.531 2.425 1.892v4.604h-17.059v3.933"/>
   <path id="path14826" style="color:#000000;stroke:#98a332;display:block;fill:none" d="m17.504 39.961l0.055-5.645 1.901-2.791h14.01l2.044-2.025 0.044-3.033-8.043-5.962 8.11 0.047-0.187-3.99h-7.438"/>
   <g id="g14850" transform="translate(2,-3)">
    <path id="path14842" style="color:#000000;stroke:#98a332;display:block;fill:none" d="m19.5 42.961l0.055-5.781 1.901-2.666"/>
    <path id="path14844" style="color:#000000;stroke:#98a332;display:block;fill:none" d="m22.5 42.961l0.055-5.781 1.901-2.666"/>
    <path id="path14846" style="color:#000000;stroke:#98a332;display:block;fill:none" d="m25.544 42.961l0.055-5.781 1.901-2.666"/>
    <path id="path14848" style="color:#000000;stroke:#98a332;display:block;fill:none" d="m28.5 42.961l0.055-5.781 1.901-2.666"/>
   </g>
   <path id="path14796" style="color:#000000;display:block;fill:url(#linearGradient7725)" d="m17.992 36.58c0.8 0 0.992 0.629 0.992 0.906v4.42h-1.984v-4.42c0-0.277 0.208-0.906 0.992-0.906z"/>
   <path id="path14800" style="color:#000000;display:block;fill:url(#linearGradient7727)" d="m20.992 36.58c0.8 0 0.992 0.629 0.992 0.906v4.42h-1.984v-4.42c0-0.277 0.208-0.906 0.992-0.906z"/>
   <path id="path14804" style="color:#000000;display:block;fill:url(#linearGradient7729)" d="m24.008 36.58c0.799 0 0.992 0.629 0.992 0.906v4.42h-1.984v-4.42c0-0.277 0.208-0.906 0.992-0.906z"/>
   <path id="path14808" style="color:#000000;display:block;fill:url(#linearGradient7731)" d="m27.008 36.58c0.799 0 0.992 0.629 0.992 0.906v4.42h-1.984v-4.42c0-0.277 0.208-0.906 0.992-0.906z"/>
   <path id="path14812" style="color:#000000;display:block;fill:url(#linearGradient7733)" d="m30.008 36.58c0.799 0 0.992 0.629 0.992 0.906v4.42h-1.984v-4.42c0-0.277 0.208-0.906 0.992-0.906z"/>
   <path id="path15029" style="color:#000000;stroke:#98a332;display:block;fill:none" d="m7.4062 16.312l-1.875 1.25v1.876 10.062l6.9998 0.062"/>
   <rect id="rect14857" style="color:#000000;stroke:#2e3436;display:block;fill:#555753" rx=".94194" ry=".94194" height="7.9305" width="16.056" y="14.504" x="9.4722"/>
   <rect id="rect14859" style="opacity:.17045;color:#000000;stroke:url(#linearGradient7735);display:block;fill:none" rx="0" ry="0" height="5.8817" width="14.116" y="15.511" x="10.417"/>
   <rect id="rect14869" style="color:#000000;display:block;fill:url(#linearGradient7737)" height="1" width="3" y="16" x="7"/>
   <path id="path15031" style="color:#000000;stroke:#98a332;display:block;fill:none" d="m7.6406 18.5l-2.125 1.062v2.438"/>
   <rect id="rect14871" style="color:#000000;display:block;fill:url(#linearGradient7737)" height="1" width="3" y="18" x="7"/>
   <path id="path15033" style="color:#000000;stroke:#98a332;display:block;fill:none" d="m7.5 20.562l-2 1.438"/>
   <rect id="rect14873" style="color:#000000;display:block;fill:url(#linearGradient7737)" height="1" width="3" y="20" x="7"/>
   <rect id="rect14875" style="color:#000000;display:block;fill:url(#linearGradient7743)" height="1" width="3" y="16" x="25"/>
   <rect id="rect14877" style="color:#000000;display:block;fill:url(#linearGradient7745)" height="1" width="3" y="18" x="25"/>
   <rect id="rect14879" style="color:#000000;display:block;fill:url(#linearGradient7747)" height="1" width="3" y="20" x="25"/>
   <rect id="rect14901" style="color:#000000;display:block;fill:url(#linearGradient7749)" transform="rotate(90)" height="1" width="3" y="-12" x="12"/>
   <rect id="rect14905" style="color:#000000;display:block;fill:url(#linearGradient7751)" transform="rotate(90)" height="1" width="3" y="-14" x="12"/>
   <rect id="rect14909" style="color:#000000;display:block;fill:url(#linearGradient7753)" transform="rotate(90)" height="1" width="3" y="-16" x="12"/>
   <rect id="rect14913" style="color:#000000;display:block;fill:url(#linearGradient7755)" transform="rotate(90)" height="1" width="3" y="-18" x="12"/>
   <rect id="rect14917" style="color:#000000;display:block;fill:url(#linearGradient7757)" transform="rotate(90)" height="1" width="3" y="-20" x="12"/>
   <rect id="rect14921" style="color:#000000;display:block;fill:url(#linearGradient7759)" transform="rotate(90)" height="1" width="3" y="-22" x="12"/>
   <rect id="rect14925" style="color:#000000;display:block;fill:url(#linearGradient7761)" transform="rotate(90)" height="1" width="3" y="-24" x="12"/>
   <g id="g14967" transform="translate(2,-3)">
    <path id="path14959" style="color:#000000;stroke:#98a332;display:block;fill:none" d="m9.4576 27.582l1.0604 2.917h1.945l-1.061-2.961"/>
    <path id="path14961" style="color:#000000;stroke:#98a332;display:block;fill:none" d="m13.458 27.582l1.06 2.917h1.945l-1.061-2.961"/>
    <path id="path14963" style="color:#000000;stroke:#98a332;display:block;fill:none" d="m17.458 27.582l1.06 2.917h1.945l-1.061-2.961"/>
    <path id="path14965" style="color:#000000;stroke:#98a332;display:block;fill:none" d="m21.458 27.582l1.06 2.917"/>
   </g>
   <rect id="rect14929" style="color:#000000;display:block;fill:url(#linearGradient7763)" transform="rotate(90)" height="1" width="3" y="-12" x="22"/>
   <rect id="rect14931" style="color:#000000;display:block;fill:url(#linearGradient7765)" transform="rotate(90)" height="1" width="3" y="-14" x="22"/>
   <rect id="rect14933" style="color:#000000;display:block;fill:url(#linearGradient7767)" transform="rotate(90)" height="1" width="3" y="-16" x="22"/>
   <rect id="rect14935" style="color:#000000;display:block;fill:url(#linearGradient7769)" transform="rotate(90)" height="1" width="3" y="-18" x="22"/>
   <rect id="rect14937" style="color:#000000;display:block;fill:url(#linearGradient7771)" transform="rotate(90)" height="1" width="3" y="-20" x="22"/>
   <rect id="rect14939" style="color:#000000;display:block;fill:url(#linearGradient7773)" transform="rotate(90)" height="1" width="3" y="-22" x="22"/>
   <path id="path14989" style="opacity:.23864;color:#000000;stroke:#fff;display:block;fill:none" d="m4.5012 36.502h10.998l0.011 4.983 17.001-0.003-0.002-4.987 6.989 0.003c0.004-0.001 0.004-24.994 0.004-24.994l-34.997-0.003c0.0038 8.339-0.0038 25.001-0.0038 25.001z"/>
   <rect id="rect14941" style="color:#000000;display:block;fill:url(#linearGradient7775)" transform="rotate(90)" height="1" width="3" y="-24" x="22"/>
   <path id="path15001" style="stroke-linejoin:round;color:#000000;stroke:#555753;stroke-linecap:round;stroke-width:3;display:block;fill:none" d="m41.5 44v-38.5h5.5"/>
   <path id="path15003" style="stroke-linejoin:round;color:#000000;stroke:#d4d6d2;stroke-linecap:round;display:block;fill:none" d="m41.5 44v-38.5h5.5"/>
   <path id="path15005" style="stroke-linejoin:round;color:#000000;stroke:#204a87;stroke-linecap:round;stroke-width:.62468;display:block;fill:#3465a4" d="m36.946 12.998a0.92808 0.92808 0 1 1 -1.856 0 0.92808 0.92808 0 1 1 1.856 0z" transform="matrix(1.6008 0 0 1.6008 -21.659 -4.808)"/>
   <path id="path15007" style="stroke-linejoin:round;color:#000000;stroke:#204a87;stroke-linecap:round;stroke-width:.62468;display:block;fill:#3465a4" d="m36.946 12.998a0.92808 0.92808 0 1 1 -1.856 0 0.92808 0.92808 0 1 1 1.856 0z" transform="matrix(1.6008 0 0 1.6008 -21.659 .17774)"/>
   <path id="path15009" style="stroke-linejoin:round;color:#000000;stroke:#204a87;stroke-linecap:round;stroke-width:.62468;display:block;fill:#3465a4" d="m36.946 12.998a0.92808 0.92808 0 1 1 -1.856 0 0.92808 0.92808 0 1 1 1.856 0z" transform="matrix(1.6008 0 0 1.6008 -21.659 5.2063)"/>
  </g>
  <g id="g7630" transform="translate(0,-2)">
   <rect id="rect5961" ry="3.8598" style="opacity:.35430;fill-rule:evenodd;color:#000000;filter:url(#filter6051)" rx="6.7636" transform="matrix(.48123 0 0 .51163 26.992 23.59)" height="6" width="37.75" y="39.75" x="6.25"/>
   <path id="rect1314" style="stroke-linejoin:round;fill-rule:evenodd;stroke:#7d6400;stroke-linecap:round;fill:url(#linearGradient7644)" d="m32.522 34.483h13.084c0.531 0 0.958 0.447 0.958 1.004v10.009c0 0.556-0.455 0.924-0.958 1.004h-13.084c-0.613-0.188-0.958-0.448-0.958-1.004v-10.009c0-0.557 0.427-1.004 0.958-1.004z"/>
   <path id="rect6903" style="stroke-linejoin:round;stroke-opacity:.60109;stroke:url(#linearGradient7646);stroke-linecap:round;fill:none" d="m33.072 35.5h11.985c0.281 0 0.507 0.23 0.507 0.515v8.97c0 0.285-0.201 0.417-0.507 0.515h-11.985c-0.282-0.098-0.508-0.23-0.508-0.515v-8.97c0-0.285 0.226-0.515 0.508-0.515z"/>
   <path id="rect1460" style="color:#000000;fill-rule:evenodd;fill:url(#linearGradient7648)" d="m32.746 35h12.636c0.378 0 0.682 0.335 0.682 0.75v1.299c0 0.416-0.304 0.75-0.682 0.75-4.395 0.322-8.44 0.207-12.636 0-0.378 0-0.682-0.334-0.682-0.75v-1.299c0-0.415 0.304-0.75 0.682-0.75z"/>
   <path id="rect1593" style="stroke-linejoin:round;color:#000000;stroke:url(#linearGradient7650);stroke-linecap:round;fill:none" d="m33.037 35.722h12.054c0.262 0 0.473 0.304 0.473 0.683v0.412c0 0.378-0.211 0.683-0.473 0.683h-12.054c-0.262 0-0.473-0.305-0.473-0.683v-0.412c0-0.379 0.211-0.683 0.473-0.683z"/>
   <rect id="rect5887" ry="3.7931" style="opacity:.29412;fill-rule:evenodd;color:#000000;filter:url(#filter5957);fill:#fff" rx="3.7903" transform="matrix(.83658 0 0 .52629 21.237 24.435)" height="16.971" width="2.8284" y="23.226" x="14.594"/>
   <path id="path6073" style="opacity:.36471;fill-rule:evenodd;color:#000000;fill:url(#radialGradient7652)" d="m19.25 20.312a3.3125 1.9375 0 1 1 -6.625 0 3.3125 1.9375 0 1 1 6.625 0z" transform="matrix(.64630 0 0 .63734 24.449 23.082)"/>
   <path id="path6083" style="opacity:.34706;color:#000000;fill-rule:evenodd;fill:url(#radialGradient7652)" d="m19.25 20.312a3.3125 1.9375 0 1 1 -6.625 0 3.3125 1.9375 0 1 1 6.625 0z" transform="matrix(.64630 0 0 .63734 33.36 23.082)"/>
   <rect id="rect6087" ry="1.7003" style="opacity:.48235;fill-rule:evenodd;color:#000000;filter:url(#filter6171);fill:url(#linearGradient7656)" rx="1.6767" transform="matrix(.46593 0 0 .45947 -9.8506 30.856)" height="1.5625" width="16.812" y="9.7568" x="96.971"/>
   <path id="path5670" style="stroke:#888a85;stroke-linecap:round;stroke-width:3;fill:none" d="m34.5 35.5c0-3.531-0.023-6 4.5-6 4.492 0 4.5 2.5 4.5 6"/>
   <path id="path7610" style="stroke:url(#radialGradient7658);stroke-linecap:round;fill:none" d="m34.5 35.5c0-3.531-0.023-6 4.5-6 4.492 0 4.5 2.5 4.5 6"/>
   <path id="path7620" style="fill:url(#radialGradient7660)" d="m36.438 30.781a1.0625 0.96875 0 1 1 -2.126 0 1.0625 0.96875 0 1 1 2.126 0z" transform="matrix(1.1765 0 0 1.2903 -6.3677 -8.9678)"/>
  </g>
 </g>
</svg>
