<?xml version="1.0" encoding="UTF-8" standalone="no"?>
<!-- Created with Inkscape (http://www.inkscape.org/) -->
<svg id="svg1306" xmlns:rdf="http://www.w3.org/1999/02/22-rdf-syntax-ns#" xmlns="http://www.w3.org/2000/svg" height="48px" width="48px" xmlns:cc="http://creativecommons.org/ns#" xmlns:xlink="http://www.w3.org/1999/xlink" xmlns:dc="http://purl.org/dc/elements/1.1/">
 <defs id="defs1308">
  <linearGradient id="linearGradient5060">
   <stop id="stop5062" style="stop-color:black;" offset="0"/>
   <stop id="stop5064" style="stop-color:black;stop-opacity:0;" offset="1"/>
  </linearGradient>
  <linearGradient id="linearGradient2899" y2="17.47" gradientUnits="userSpaceOnUse" x2="9.0151" gradientTransform="matrix(1.1695 0 0 1.8668 -4.0885 -1.1907)" y1="17.289" x1="39.847">
   <stop id="stop3861" style="stop-color:#d3d7cf;" offset="0"/>
   <stop id="stop3037" style="stop-color:#eeeeec;" offset=".30973"/>
   <stop id="stop3039" style="stop-color:white;" offset=".88648"/>
   <stop id="stop3863" style="stop-color:#d3d7cf;" offset="1"/>
  </linearGradient>
  <linearGradient id="linearGradient2925" y2="30.106" gradientUnits="userSpaceOnUse" x2="31.26" gradientTransform="matrix(1.1684 0 0 .94012 -5.224 8.0106)" y1="28.921" x1="31.26">
   <stop id="stop3944" style="stop-color:#888a85;" offset="0"/>
   <stop id="stop3946" style="stop-color:#eeeeec;" offset="1"/>
  </linearGradient>
  <linearGradient id="linearGradient3883" y2="63.92" gradientUnits="userSpaceOnUse" x2="75" gradientTransform="matrix(1.1969 0 0 1.2326 -76.532 -35.47)" y1="56.938" x1="75">
   <stop id="stop3879" style="stop-color:black;" offset="0"/>
   <stop id="stop3881" style="stop-color:white;stop-opacity:0.77319586;" offset="1"/>
  </linearGradient>
  <linearGradient id="linearGradient3903" y2="609.51" gradientUnits="userSpaceOnUse" x2="302.86" gradientTransform="matrix(2.7744 0 0 1.9697 -1892.2 -872.89)" y1="366.65" x1="302.86">
   <stop id="stop5050" style="stop-color:black;stop-opacity:0;" offset="0"/>
   <stop id="stop5056" style="stop-color:black;" offset=".5"/>
   <stop id="stop5052" style="stop-color:black;stop-opacity:0;" offset="1"/>
  </linearGradient>
  <radialGradient id="radialGradient3905" xlink:href="#linearGradient5060" gradientUnits="userSpaceOnUse" cy="486.65" cx="605.71" gradientTransform="matrix(2.7744 0 0 1.9697 -1891.6 -872.89)" r="117.14"/>
  <radialGradient id="radialGradient3907" xlink:href="#linearGradient5060" gradientUnits="userSpaceOnUse" cy="486.65" cx="605.71" gradientTransform="matrix(-2.7744 0 0 1.9697 112.76 -872.89)" r="117.14"/>
  <linearGradient id="linearGradient3769" y2="32.024" gradientUnits="userSpaceOnUse" x2="35.239" gradientTransform="translate(1 6.3026)" y1="34.193" x1="36.052">
   <stop id="stop3765" style="stop-color:#888a85;" offset="0"/>
   <stop id="stop3767" style="stop-color:#babdb6;" offset="1"/>
  </linearGradient>
  <linearGradient id="linearGradient2815" y2="34" gradientUnits="userSpaceOnUse" x2="22.777" gradientTransform="matrix(1 0 0 1.1667 0 1.6359)" y1="32.072" x1="22.777">
   <stop id="stop2811" style="stop-color:#d3d7cf;" offset="0"/>
   <stop id="stop2813" style="stop-color:#eeeeec;stop-opacity:0;" offset="1"/>
  </linearGradient>
  <linearGradient id="linearGradient3715" y2="33.659" gradientUnits="userSpaceOnUse" x2="19.562" gradientTransform="matrix(1 0 0 1.3333 0 -4.0308)" y1="31.812" x1="19.562">
   <stop id="stop3711" style="stop-color:black;" offset="0"/>
   <stop id="stop3713" style="stop-color:black;stop-opacity:0;" offset="1"/>
  </linearGradient>
  <linearGradient id="linearGradient3731" y2="33.553" gradientUnits="userSpaceOnUse" x2="29.522" gradientTransform="matrix(1 0 0 1.3333 0 -4.0308)" y1="32.024" x1="29.522">
   <stop id="stop3727" style="stop-color:#eeeeec;" offset="0"/>
   <stop id="stop3729" style="stop-color:#eeeeec;stop-opacity:0;" offset="1"/>
  </linearGradient>
  <linearGradient id="linearGradient3343" y2="-3.3674" gradientUnits="userSpaceOnUse" x2="3.7297" y1="11.929" x1="14.715">
   <stop id="stop3292" style="stop-color:#dda0a0;" offset="0"/>
   <stop id="stop3294" style="stop-color:#f2c6c3;" offset="1"/>
  </linearGradient>
  <linearGradient id="linearGradient3345" y2="-3.3674" gradientUnits="userSpaceOnUse" x2="3.7297" y1="17.419" x1="18.561">
   <stop id="stop3300" style="stop-color:#b87b74;" offset="0"/>
   <stop id="stop3302" style="stop-color:#d09993;" offset="1"/>
  </linearGradient>
  <linearGradient id="linearGradient3347" y2="9.6173" gradientUnits="userSpaceOnUse" x2="16.702" y1="9.2838" x1="4.1692">
   <stop id="stop3329" style="stop-color:#ffffff;" offset="0"/>
   <stop id="stop3331" style="stop-color:#ffffff;stop-opacity:0;" offset="1"/>
  </linearGradient>
  <filter id="filter3397" height="2.2343" width="1.2979" y="-.61714" x="-.14897">
   <feGaussianBlur id="feGaussianBlur3399" stdDeviation="1.3579567"/>
  </filter>
  <radialGradient id="radialGradient3409" gradientUnits="userSpaceOnUse" cy="28.028" cx="24.809" gradientTransform="matrix(1.7672 1.8248e-8 .013228 .24138 -20.733 21.262)" r="10.939">
   <stop id="stop3403" style="stop-color:#000000;" offset="0"/>
   <stop id="stop3405" style="stop-color:#000000;stop-opacity:0;" offset="1"/>
  </radialGradient>
 </defs>
 <metadata id="metadata1311">
  <rdf:RDF>
   <cc:Work rdf:about="">
    <dc:format>image/svg+xml</dc:format>
    <dc:type rdf:resource="http://purl.org/dc/dcmitype/StillImage"/>
    <dc:title>Drive Removable Media</dc:title>
    <dc:creator>
     <cc:Agent>
      <dc:title>Lapo Calamandrei</dc:title>
     </cc:Agent>
    </dc:creator>
    <dc:description/>
    <cc:license rdf:resource="http://creativecommons.org/licenses/GPL/2.0/"/>
    <dc:source>http://www.gnome.org</dc:source>
    <dc:contributor>
     <cc:Agent>
      <dc:title>Jakub Steiner</dc:title>
     </cc:Agent>
    </dc:contributor>
    <dc:date>2006</dc:date>
    <dc:subject>
     <rdf:Bag>
      <rdf:li>drive</rdf:li>
      <rdf:li>removable</rdf:li>
      <rdf:li>media</rdf:li>
     </rdf:Bag>
    </dc:subject>
   </cc:Work>
   <cc:License rdf:about="http://creativecommons.org/licenses/GPL/2.0/">
    <cc:permits rdf:resource="http://web.resource.org/cc/Reproduction"/>
    <cc:permits rdf:resource="http://web.resource.org/cc/Distribution"/>
    <cc:requires rdf:resource="http://web.resource.org/cc/Notice"/>
    <cc:permits rdf:resource="http://web.resource.org/cc/DerivativeWorks"/>
    <cc:requires rdf:resource="http://web.resource.org/cc/ShareAlike"/>
    <cc:requires rdf:resource="http://web.resource.org/cc/SourceCode"/>
   </cc:License>
  </rdf:RDF>
 </metadata>
 <g id="layer1">
  <g id="g3895" transform="matrix(.023640 0 0 .036695 45.526 35.839)">
   <rect id="rect3897" style="opacity:0.40206185;marker-end:none;fill-rule:nonzero;marker-start:none;marker-mid:none;fill:url(#linearGradient3903);" height="478.36" width="1339.6" y="-150.7" x="-1559.3"/>
   <path id="path3899" style="opacity:0.40206185;marker-end:none;fill-rule:nonzero;marker-start:none;marker-mid:none;fill:url(#radialGradient3905);" d="m-219.62-150.68v478.33c142.88 0.9 345.4-107.17 345.4-239.2 0-132.02-159.44-239.13-345.4-239.13z"/>
   <path id="path3901" style="opacity:0.40206185;marker-end:none;fill-rule:nonzero;marker-start:none;marker-mid:none;fill:url(#radialGradient3907);" d="m-1559.3-150.68v478.33c-142.8 0.9-345.4-107.17-345.4-239.2 0-132.02 159.5-239.13 345.4-239.13z"/>
  </g>
  <path id="path2897" style="stroke-linejoin:round;fill-rule:evenodd;stroke:#888a85;stroke-linecap:butt;stroke-width:1.06704879px;fill:url(#linearGradient2899);" d="m12.844 12.834c-2.612 0-4.3543 1.798-5.3128 4.812 0.0001 0-3.75 17.063-3.75 17.063-0.2431 1.016-0.2499 2.06-0.2812 3.094 0 3.872 3.1277 7 7 7h28c3.872 0 7-3.128 7-7-0.032-1.394-0.107-2.719-0.406-4.094l-4.282-16.375c-0.933-2.578-2.684-4.5-5.187-4.5h-22.781z"/>
  <path id="path3925" style="opacity:0.4;stroke-linejoin:miter;stroke:#ffffff;stroke-linecap:round;stroke-width:0.99999964px;fill:none;" d="m39.663 30.514l-3.106-15.657"/>
  <path id="path2960" style="opacity:0.7;stroke-linejoin:round;stroke:#ffffff;stroke-linecap:butt;stroke-miterlimit:4;stroke-dasharray:none;stroke-width:1;fill:none;" d="m12.816 13.935c-2.059 0-3.3799 1.238-4.1313 3.804l-3.6843 17.067c-0.4943 2.939 0.9859 7.629 5.6366 8.693h27.735c5.364-0.205 6.969-4.986 5.75-9.069l-4.332-16.473c-0.794-2.44-2.336-4.143-4.307-4.143l-22.667 0.121z"/>
  <rect id="rect2909" style="stroke-linejoin:round;marker-end:none;fill-rule:nonzero;marker-start:none;stroke-dashoffset:1.20000057;stroke:#ffffff;stroke-linecap:round;stroke-miterlimit:4;stroke-dasharray:none;stroke-width:0.99999911;marker-mid:none;fill:#d3d7cf;" rx="5.8864" ry="5.9896" height="11.979" width="39.994" y="31.823" x="4.5061"/>
  <rect id="rect2898" style="opacity:0.3;stroke-linejoin:round;marker-end:none;fill-rule:nonzero;marker-start:none;stroke-dashoffset:1.20000057;stroke:url(#linearGradient3883);stroke-linecap:round;stroke-miterlimit:4;stroke-dasharray:none;stroke-width:0.99999976;marker-mid:none;fill:#babdb6;" rx="4.7875" ry="4.9306" height="10" width="38" y="32.803" x="5.5"/>
  <rect id="rect1949" style="stroke-linejoin:round;stroke-dashoffset:0;stroke:url(#linearGradient3769);stroke-linecap:round;stroke-miterlimit:4;stroke-dasharray:none;stroke-width:0.99999988;fill:#babdb6;" rx="1" ry="1" height="2" width="6" y="38.83" x="34.561"/>
  <rect id="rect1916" style="fill:#d3d7cf;" rx="1.0938" ry="1.0938" height="4" width="31" y="34.303" x="9"/>
  <rect id="rect2807" style="opacity:0.8;fill:url(#linearGradient2815);" rx="0" ry="0" height="7" width="11" y="34.303" x="19"/>
  <rect id="rect3704" style="opacity:0.5;fill:url(#linearGradient3731);" height="4" width="1" y="37.303" x="29"/>
  <rect id="rect3706" style="opacity:0.1;fill:url(#linearGradient3715);" height="4" width="1" y="37.303" x="19"/>
  <path id="rect1951" style="stroke-linejoin:round;stroke-dashoffset:0;stroke:url(#linearGradient2925);stroke-linecap:round;stroke-miterlimit:4;stroke-width:1.00000024;fill:#babdb6;" d="m10.126 34.803h28.748c0.347 0 0.626 0.224 0.626 0.503v0.987c0 0.279-0.279 0.504-0.626 0.504h-8.874l-1.5 1.006h-8l-1.5-1.006h-8.874c-0.3468 0-0.626-0.225-0.626-0.504v-0.987c0-0.279 0.2792-0.503 0.626-0.503z"/>
  <g id="g1933" transform="translate(-1 7.3026)">
   <rect id="rect1965" style="stroke-linejoin:round;stroke-dashoffset:0;stroke:#eeeeec;stroke-linecap:round;stroke-miterlimit:4;stroke-dasharray:none;stroke-width:0.99999934;fill:#eeeeec;" rx=".51535" ry=".5" height="1" width="3" y="32.533" x="9.5884"/>
   <path id="path3893" style="marker-end:none;fill-rule:nonzero;marker-start:none;marker-mid:none;fill:#ffffff;" d="m73.078 61.469a0.48438 0.35938 0 1 1 -0.969 0 0.48438 0.35938 0 1 1 0.969 0z" transform="matrix(1.6787 0 0 2.1718 -111.83 -100.66)"/>
  </g>
  <path id="path3921" style="stroke-linejoin:miter;stroke:#ffffff;stroke-linecap:round;stroke-width:0.99999964px;fill:none;" d="m8.4628 30.779l3.2142-15.62"/>
  <path id="path3923" style="opacity:0.7;stroke-linejoin:miter;stroke:#ffffff;stroke-linecap:round;stroke-width:1.15657115px;fill:none;" d="m12.542 30.646l1.341-15.933"/>
  <path id="path3927" style="opacity:0.4;stroke-linejoin:miter;stroke:#ffffff;stroke-linecap:round;stroke-width:1.15657115px;fill:none;" d="m36.468 30.557l-2.111-15.848"/>
  <rect id="rect3391" style="opacity:0.35;fill-rule:evenodd;filter:url(#filter3397);fill:url(#radialGradient3409);" transform="matrix(1 0 .071429 1 -2.002 0)" rx="8" ry="4.0245" height="5.2809" width="21.878" y="25.387" x="14.994"/>
  <g id="g3335" transform="translate(24)">
   <rect id="rect2518" style="stroke-linejoin:miter;fill-rule:evenodd;stroke:url(#linearGradient3345);stroke-linecap:butt;stroke-width:1px;fill:url(#linearGradient3343);" transform="matrix(.70711 .70711 -.70711 .70711 0 0)" rx="2.9556" ry="2.9556" height="27.065" width="16.692" y="-4.3153" x="3.6571"/>
   <path id="rect3306" style="opacity:0.52314818;fill-rule:evenodd;fill:#ffffff;" d="m-6.6875 12.594l-4.6565 4.656c-0.783 0.783-0.783 2.029 0 2.812l8.1565 8.157c0.7835 0.783 2.0603 0.783 2.8438 0l4.6562-4.657-11-10.968z"/>
   <path id="rect3311" style="opacity:0.41666667;fill-rule:evenodd;fill:#b97d76;" d="m14.75 9.3438l-18.594 18.625 0.6878 0.687c0.7818 0.784 2.0619 0.784 2.8437 0l15.75-15.812c0.781-0.784 0.781-2.029 0-2.813l-0.688-0.6872z"/>
   <path id="path3323" style="opacity:0.83796297;fill-rule:evenodd;fill:#cc8b85;" d="m2.5 21.688l12.281-12.313-0.719-0.75-12.312 12.313 0.75 0.75z"/>
   <path id="rect3318" style="opacity:0.5462963;fill-rule:evenodd;fill:#cc8b85;" d="m2.5 21.688l-0.75-0.75-6.0938 6.093 0.7188 0.75 6.125-6.093z"/>
   <rect id="rect3325" ry="2" style="opacity:0.45;stroke-linejoin:miter;stroke:url(#linearGradient3347);stroke-linecap:butt;stroke-width:0.92327225px;fill:none;" rx="2" transform="matrix(.70711 .70711 -.70711 .70711 0 0)" height="24.988" width="15.411" y="-3.2103" x="4.6308"/>
  </g>
 </g>
</svg>
