<?xml version="1.0" encoding="UTF-8" standalone="no"?>
<!-- Created with onBoard -->
<svg id="svg2" xmlns:rdf="http://www.w3.org/1999/02/22-rdf-syntax-ns#" xmlns="http://www.w3.org/2000/svg" sodipodi:docname="onboard.svg" height="50.4pt" sodipodi:version="0.32" width="79.2pt" version="1.0" xmlns:cc="http://web.resource.org/cc/" xmlns:dc="http://purl.org/dc/elements/1.1/" sodipodi:docbase="/home/tortoise/Documents/code/bzr/main/onboard" xmlns:sodipodi="http://inkscape.sourceforge.net/DTD/sodipodi-0.dtd">
 <metadata id="metadata68">
  <rdf:RDF>
   <cc:Work rdf:about="">
    <dc:format>image/svg+xml</dc:format>
    <dc:type rdf:resource="http://purl.org/dc/dcmitype/StillImage"/>
   </cc:Work>
  </rdf:RDF>
 </metadata>
 <sodipodi:namedview id="base" bordercolor="#666666" pagecolor="#ffffff" borderopacity="1.0"/>
 <g id="g1367" style="fill-opacity:0.46625767;fill:#ffffff;" transform="matrix(1 0 1.0146 1 58.92 31.527)">
  <rect id="RALT" style="stroke:#000000;fill-opacity:0.46625767;fill:#ffffff;" transform="matrix(1 0 -.87745 .47966 0 0)" height="10.13" width="6.2085" y="44.328" x="14.841"/>
  <rect id="AB01" style="stroke:#000000;fill-opacity:0.46625767;fill:#ffffff;" transform="matrix(1 0 -.87745 .47966 0 0)" height="10.13" width="4.8588" y="33.635" x="-24.3"/>
  <rect id="AE02" style="stroke:#000000;fill-opacity:0.46625767;fill:#ffffff;" transform="matrix(1 0 -.87745 .47966 0 0)" height="10.13" width="4.8588" y="1.5577" x="-26.189"/>
  <rect id="AE03" style="stroke:#000000;fill-opacity:0.46625767;fill:#ffffff;" transform="matrix(1 0 -.87745 .47966 0 0)" height="10.13" width="4.8588" y="1.5577" x="-21.061"/>
  <rect id="AD09" style="stroke:#000000;fill-opacity:0.46625767;fill:#ffffff;" transform="matrix(1 0 -.87745 .47966 0 0)" height="10.13" width="4.8588" y="12.25" x="12.411"/>
  <rect id="AE01" style="stroke:#000000;fill-opacity:0.46625767;fill:#ffffff;" transform="matrix(1 0 -.87745 .47966 0 0)" height="10.13" width="4.8588" y="1.5577" x="-31.318"/>
  <rect id="AE06" style="stroke:#000000;fill-opacity:0.46625767;fill:#ffffff;" transform="matrix(1 0 -.87745 .47966 0 0)" height="10.13" width="4.8588" y="1.5577" x="-5.6744"/>
  <rect id="AE07" style="stroke:#000000;fill-opacity:0.46625767;fill:#ffffff;" transform="matrix(1 0 -.87745 .47966 0 0)" height="10.13" width="4.8588" y="1.5577" x="-.54561"/>
  <rect id="AE04" style="stroke:#000000;fill-opacity:0.46625767;fill:#ffffff;" transform="matrix(1 0 -.87745 .47966 0 0)" height="10.13" width="4.8588" y="1.5577" x="-15.932"/>
  <rect id="AE05" style="stroke:#000000;fill-opacity:0.46625767;fill:#ffffff;" transform="matrix(1 0 -.87745 .47966 0 0)" height="10.13" width="4.8588" y="1.5577" x="-10.803"/>
  <rect id="AD03" style="stroke:#000000;fill-opacity:0.46625767;fill:#ffffff;" transform="matrix(1 0 -.87745 .47966 0 0)" height="10.13" width="4.8588" y="12.25" x="-18.361"/>
  <rect id="AD02" style="stroke:#000000;fill-opacity:0.46625767;fill:#ffffff;" transform="matrix(1 0 -.87745 .47966 0 0)" height="10.13" width="4.8588" y="12.25" x="-23.49"/>
  <rect id="AD01" style="stroke:#000000;fill-opacity:0.46625767;fill:#ffffff;" transform="matrix(1 0 -.87745 .47966 0 0)" height="10.13" width="4.8588" y="12.25" x="-28.619"/>
  <rect id="AE09" style="stroke:#000000;fill-opacity:0.46625767;fill:#ffffff;" transform="matrix(1 0 -.87745 .47966 0 0)" height="10.13" width="4.8588" y="1.5577" x="9.7119"/>
  <rect id="AD07" style="stroke:#000000;fill-opacity:0.46625767;fill:#ffffff;" transform="matrix(1 0 -.87745 .47966 0 0)" height="10.13" width="4.8588" y="12.25" x="2.1537"/>
  <rect id="AD06" style="stroke:#000000;fill-opacity:0.46625767;fill:#ffffff;" transform="matrix(1 0 -.87745 .47966 0 0)" height="10.13" width="4.8588" y="12.25" x="-2.975"/>
  <rect id="AD05" style="stroke:#000000;fill-opacity:0.46625767;fill:#ffffff;" transform="matrix(1 0 -.87745 .47966 0 0)" height="10.13" width="4.8588" y="12.25" x="-8.1038"/>
  <rect id="AD04" style="stroke:#000000;fill-opacity:0.46625767;fill:#ffffff;" transform="matrix(1 0 -.87745 .47966 0 0)" height="10.13" width="4.8588" y="12.25" x="-13.233"/>
  <rect id="AB10" style="stroke:#000000;fill-opacity:0.46625767;fill:#ffffff;" transform="matrix(1 0 -.87745 .47966 0 0)" height="10.13" width="4.8588" y="33.635" x="21.859"/>
  <rect id="AC11" style="stroke:#000000;fill-opacity:0.46625767;fill:#ffffff;" transform="matrix(1 0 -.87745 .47966 0 0)" height="10.13" width="4.8588" y="22.943" x="24.019"/>
  <rect id="AC10" style="stroke:#000000;fill-opacity:0.46625767;fill:#ffffff;" transform="matrix(1 0 -.87745 .47966 0 0)" height="10.13" width="4.8588" y="22.943" x="18.89"/>
  <rect id="RCTL" style="stroke:#000000;fill-opacity:0.46625767;fill:#ffffff;" transform="matrix(1 0 -.87745 .47966 0 0)" height="10.13" width="6.2085" y="44.328" x="34.276"/>
  <rect id="LCTL" style="stroke:#000000;fill-opacity:0.46625767;fill:#ffffff;" transform="matrix(1 0 -.87745 .47966 0 0)" height="10.13" width="7.2883" y="44.328" x="-36.447"/>
  <rect id="TAB" style="stroke:#000000;fill-opacity:0.46625767;fill:#ffffff;" transform="matrix(1 0 -.87745 .47966 0 0)" height="10.13" width="7.5582" y="12.25" x="-36.447"/>
  <rect id="LALT" style="stroke:#000000;fill-opacity:0.46625767;fill:#ffffff;" transform="matrix(1 0 -.87745 .47966 0 0)" height="10.13" width="6.2085" y="44.328" x="-22.41"/>
  <rect id="TLDE" style="stroke:#000000;fill-opacity:0.46625767;fill:#ffffff;" transform="matrix(1 0 -.87745 .47966 0 0)" height="10.13" width="4.8588" y="1.5577" x="-36.447"/>
  <rect id="LSGT" style="stroke:#000000;fill-opacity:0.46625767;fill:#ffffff;" transform="matrix(1 0 -.87745 .47966 0 0)" height="10.13" width="4.8588" y="33.635" x="-29.429"/>
  <rect id="LFSH" style="stroke:#000000;fill-opacity:0.46625767;fill:#ffffff;" transform="matrix(1 0 -.87745 .47966 0 0)" height="10.13" width="6.7484" y="33.635" x="-36.447"/>
  <rect id="BKSP" style="stroke:#000000;fill-opacity:0.46625767;fill:#ffffff;" transform="matrix(1 0 -.87745 .47966 0 0)" height="10.13" width="10.258" y="1.5577" x="30.227"/>
  <rect id="CAPS" style="stroke:#000000;fill-opacity:0.46625767;fill:#ffffff;" transform="matrix(1 0 -.87745 .47966 0 0)" height="10.13" width="8.9079" y="22.943" x="-36.447"/>
  <rect id="BKSL" style="stroke:#000000;fill-opacity:0.46625767;fill:#ffffff;" transform="matrix(1 0 -.87745 .47966 0 0)" height="10.13" width="7.5582" y="12.25" x="32.926"/>
  <rect id="RTRN" style="stroke:#000000;fill-opacity:0.46625767;fill:#ffffff;" transform="matrix(1 0 -.87745 .47966 0 0)" height="10.13" width="11.337" y="22.943" x="29.147"/>
  <rect id="MENU" style="stroke:#000000;fill-opacity:0.46625767;fill:#ffffff;" transform="matrix(1 0 -.87745 .47966 0 0)" height="10.13" width="6.2085" y="44.328" x="27.798"/>
  <rect id="AD10" style="stroke:#000000;fill-opacity:0.46625767;fill:#ffffff;" transform="matrix(1 0 -.87745 .47966 0 0)" height="10.13" width="4.8588" y="12.25" x="17.54"/>
  <rect id="AD11" style="stroke:#000000;fill-opacity:0.46625767;fill:#ffffff;" transform="matrix(1 0 -.87745 .47966 0 0)" height="10.13" width="4.8588" y="12.25" x="22.669"/>
  <rect id="AD12" style="stroke:#000000;fill-opacity:0.46625767;fill:#ffffff;" transform="matrix(1 0 -.87745 .47966 0 0)" height="10.13" width="4.8588" y="12.25" x="27.798"/>
  <rect id="AB08" style="stroke:#000000;fill-opacity:0.46625767;fill:#ffffff;" transform="matrix(1 0 -.87745 .47966 0 0)" height="10.13" width="4.8588" y="33.635" x="11.601"/>
  <rect id="AE11" style="stroke:#000000;fill-opacity:0.46625767;fill:#ffffff;" transform="matrix(1 0 -.87745 .47966 0 0)" height="10.13" width="4.8588" y="1.5577" x="19.969"/>
  <rect id="AE10" style="stroke:#000000;fill-opacity:0.46625767;fill:#ffffff;" transform="matrix(1 0 -.87745 .47966 0 0)" height="10.13" width="4.8588" y="1.5577" x="14.841"/>
  <rect id="AE12" style="stroke:#000000;fill-opacity:0.46625767;fill:#ffffff;" transform="matrix(1 0 -.87745 .47966 0 0)" height="10.13" width="4.8588" y="1.5577" x="25.098"/>
  <rect id="AC04" style="stroke:#000000;fill-opacity:0.46625767;fill:#ffffff;" transform="matrix(1 0 -.87745 .47966 0 0)" height="10.13" width="4.8588" y="22.943" x="-11.883"/>
  <rect id="AC05" style="stroke:#000000;fill-opacity:0.46625767;fill:#ffffff;" transform="matrix(1 0 -.87745 .47966 0 0)" height="10.13" width="4.8588" y="22.943" x="-6.7541"/>
  <rect id="AC06" style="stroke:#000000;fill-opacity:0.46625767;fill:#ffffff;" transform="matrix(1 0 -.87745 .47966 0 0)" height="10.13" width="4.8588" y="22.943" x="-1.6254"/>
  <rect id="AC07" style="stroke:#000000;fill-opacity:0.46625767;fill:#ffffff;" transform="matrix(1 0 -.87745 .47966 0 0)" height="10.13" width="4.8588" y="22.943" x="3.5034"/>
  <rect id="AB09" style="stroke:#000000;fill-opacity:0.46625767;fill:#ffffff;" transform="matrix(1 0 -.87745 .47966 0 0)" height="10.13" width="4.8588" y="33.635" x="16.73"/>
  <rect id="AC01" style="stroke:#000000;fill-opacity:0.46625767;fill:#ffffff;" transform="matrix(1 0 -.87745 .47966 0 0)" height="10.13" width="4.8588" y="22.943" x="-27.269"/>
  <rect id="AC02" style="stroke:#000000;fill-opacity:0.46625767;fill:#ffffff;" transform="matrix(1 0 -.87745 .47966 0 0)" height="10.13" width="4.8588" y="22.943" x="-22.14"/>
  <rect id="AC03" style="stroke:#000000;fill-opacity:0.46625767;fill:#ffffff;" transform="matrix(1 0 -.87745 .47966 0 0)" height="10.13" width="4.8588" y="22.943" x="-17.012"/>
  <rect id="AB05" style="stroke:#000000;fill-opacity:0.46625767;fill:#ffffff;" transform="matrix(1 0 -.87745 .47966 0 0)" height="10.13" width="4.8588" y="33.635" x="-3.7848"/>
  <rect id="AB04" style="stroke:#000000;fill-opacity:0.46625767;fill:#ffffff;" transform="matrix(1 0 -.87745 .47966 0 0)" height="10.13" width="4.8588" y="33.635" x="-8.9136"/>
  <rect id="AE08" style="stroke:#000000;fill-opacity:0.46625767;fill:#ffffff;" transform="matrix(1 0 -.87745 .47966 0 0)" height="10.13" width="4.8588" y="1.5577" x="4.5832"/>
  <rect id="AB06" style="stroke:#000000;fill-opacity:0.46625767;fill:#ffffff;" transform="matrix(1 0 -.87745 .47966 0 0)" height="10.13" width="4.8588" y="33.635" x="1.3439"/>
  <rect id="AC08" style="stroke:#000000;fill-opacity:0.46625767;fill:#ffffff;" transform="matrix(1 0 -.87745 .47966 0 0)" height="10.13" width="4.8588" y="22.943" x="8.6322"/>
  <rect id="AC09" style="stroke:#000000;fill-opacity:0.46625767;fill:#ffffff;" transform="matrix(1 0 -.87745 .47966 0 0)" height="10.13" width="4.8588" y="22.943" x="13.761"/>
  <rect id="AB03" style="stroke:#000000;fill-opacity:0.46625767;fill:#ffffff;" transform="matrix(1 0 -.87745 .47966 0 0)" height="10.13" width="4.8588" y="33.635" x="-14.042"/>
  <rect id="AB02" style="stroke:#000000;fill-opacity:0.46625767;fill:#ffffff;" transform="matrix(1 0 -.87745 .47966 0 0)" height="10.13" width="4.8588" y="33.635" x="-19.171"/>
  <rect id="AD08" style="stroke:#000000;fill-opacity:0.46625767;fill:#ffffff;" transform="matrix(1 0 -.87745 .47966 0 0)" height="10.13" width="4.8588" y="12.25" x="7.2825"/>
  <rect id="RWIN" style="stroke:#000000;fill-opacity:0.46625767;fill:#ffffff;" transform="matrix(1 0 -.87745 .47966 0 0)" height="10.13" width="6.2085" y="44.328" x="21.319"/>
  <rect id="SPCE" style="stroke:#000000;fill-opacity:0.46625767;fill:#ffffff;" transform="matrix(1 0 -.87745 .47966 0 0)" height="10.13" width="30.503" y="44.328" x="-15.932"/>
  <rect id="RTSH" style="stroke:#000000;fill-opacity:0.46625767;fill:#ffffff;" transform="matrix(1 0 -.87745 .47966 0 0)" height="10.13" width="13.497" y="33.635" x="26.988"/>
  <rect id="LWIN" style="stroke:#000000;fill-opacity:0.46625767;fill:#ffffff;" transform="matrix(1 0 -.87745 .47966 0 0)" height="10.13" width="6.2085" y="44.328" x="-28.889"/>
  <rect id="AB07" style="stroke:#000000;fill-opacity:0.46625767;fill:#ffffff;" transform="matrix(1 0 -.87745 .47966 0 0)" height="10.13" width="4.8588" y="33.635" x="6.4727"/>
 </g>
 <text id="text1431" style="font-size:66.39041138px;stroke-width:0;writing-mode:lr-tb;fill:#000000;text-anchor:start;line-height:125%;font-stretch:normal;stroke-miterlimit:0;font-family:Bitstream Vera Sans;font-variant:normal;font-weight:normal;font-style:normal;text-align:start;" xml:space="preserve" transform="scale(1.0552 .94772)" y="54.328526" x="1.1919776" sodipodi:linespacing="125%"><tspan id="tspan1433" sodipodi:role="line" x="1.1919776" y="54.328526">oB</tspan></text>
</svg>
