<?xml version="1.0" encoding="UTF-8" standalone="no"?>
<!-- Created with Inkscape (http://www.inkscape.org/) -->
<svg id="svg2" xmlns:rdf="http://www.w3.org/1999/02/22-rdf-syntax-ns#" xmlns="http://www.w3.org/2000/svg" height="48" width="48" version="1.0" xmlns:cc="http://creativecommons.org/ns#" xmlns:xlink="http://www.w3.org/1999/xlink" xmlns:dc="http://purl.org/dc/elements/1.1/">
 <defs id="defs4">
  <linearGradient id="linearGradient8710">
   <stop id="stop8712" style="stop-color:black;" offset="0"/>
   <stop id="stop8714" style="stop-color:white;" offset="1"/>
  </linearGradient>
  <linearGradient id="linearGradient2909">
   <stop id="stop2911" style="stop-color:white;stop-opacity:0;" offset="0"/>
   <stop id="stop2917" style="stop-color:white;" offset=".5"/>
   <stop id="stop2913" style="stop-color:white;stop-opacity:0;" offset="1"/>
  </linearGradient>
  <linearGradient id="linearGradient3474" y2="14.998" gradientUnits="userSpaceOnUse" x2="24.999" gradientTransform="matrix(1 0 0 .99556 0 -3.9311)" y1="35.355" x1="24.749">
   <stop id="stop3470" style="stop-color:#fdfdfc;" offset="0"/>
   <stop id="stop3472" style="stop-color:white;stop-opacity:0.37121212;" offset="1"/>
  </linearGradient>
  <radialGradient id="radialGradient4700" xlink:href="#linearGradient8710" gradientUnits="userSpaceOnUse" cy="17" cx="0" gradientTransform="matrix(4.0958 0 0 3.1013 -9.5392 -94.543)" r="2"/>
  <radialGradient id="radialGradient4702" xlink:href="#linearGradient8710" gradientUnits="userSpaceOnUse" cy="17" cx="0" gradientTransform="matrix(4.0958 0 0 3.1013 38.21 -10.9)" r="2"/>
  <linearGradient id="linearGradient4704" y2="13.979" gradientUnits="userSpaceOnUse" x2="9.8995" gradientTransform="matrix(2.0479 0 0 2.0675 1.3476 6.6737)" y1="20" x1="9.8995">
   <stop id="stop2902" style="stop-color:black;stop-opacity:0;" offset="0"/>
   <stop id="stop2908" style="stop-color:black;" offset=".5"/>
   <stop id="stop2904" style="stop-color:black;stop-opacity:0;" offset="1"/>
  </linearGradient>
  <linearGradient id="linearGradient4711" y2="36.377" xlink:href="#linearGradient2909" gradientUnits="userSpaceOnUse" x2="20.329" gradientTransform="matrix(1 0 0 1.4229 10.5 -14.957)" y1="33.062" x1="15.335"/>
  <linearGradient id="linearGradient4713" y2="36.377" xlink:href="#linearGradient2909" gradientUnits="userSpaceOnUse" x2="20.329" gradientTransform="matrix(1 0 0 1.4229 -.875 -15.046)" y1="33.062" x1="15.335"/>
  <linearGradient id="linearGradient4715" y2="36.377" xlink:href="#linearGradient2909" gradientUnits="userSpaceOnUse" x2="20.329" gradientTransform="matrix(.45983 0 -.39116 1.3701 40.625 -13.299)" y1="33.062" x1="15.335"/>
  <radialGradient id="radialGradient5748" gradientUnits="userSpaceOnUse" cy="16.48" cx="25.252" gradientTransform="matrix(1.033 -.59640 .57512 .99614 -12.235 11.554)" r="21.98">
   <stop id="stop5742" style="stop-color:#d0d0cb;" offset="0"/>
   <stop id="stop5744" style="stop-color:#babdb6;" offset="1"/>
  </radialGradient>
  <linearGradient id="linearGradient5790" y2="12.143" gradientUnits="userSpaceOnUse" x2="22.212" gradientTransform="matrix(.94022 0 0 .93163 1.3318 1.4015)" y1="25.461" x1="18.049">
   <stop id="stop2066" style="stop-color:white;" offset="0"/>
   <stop id="stop2070" style="stop-color:#555753;stop-opacity:0.60000002;" offset=".5"/>
   <stop id="stop2068" style="stop-color:#555753;stop-opacity:0;" offset="1"/>
  </linearGradient>
  <linearGradient id="linearGradient5865" y2="6.8315" gradientUnits="userSpaceOnUse" x2="25.818" y1="36.638" x1="24">
   <stop id="stop8633" style="stop-color:#eeeeec;" offset="0"/>
   <stop id="stop8637" style="stop-color:#eeeeec;" offset=".2"/>
   <stop id="stop8635" style="stop-color:#babdb6;" offset="1"/>
  </linearGradient>
  <linearGradient id="linearGradient7658" y2="31.22" gradientUnits="userSpaceOnUse" x2="32.043" y1="12.669" x1="27.058">
   <stop id="stop2841" style="stop-color:white;stop-opacity:0.25773194;" offset="0"/>
   <stop id="stop2847" style="stop-color:white;" offset=".54730"/>
   <stop id="stop2849" style="stop-color:white;stop-opacity:0.24705882;" offset=".66244"/>
   <stop id="stop2851" style="stop-color:white;stop-opacity:0.83505154;" offset=".875"/>
   <stop id="stop2843" style="stop-color:white;stop-opacity:0;" offset="1"/>
  </linearGradient>
  <linearGradient id="linearGradient8603" y2="40.647" gradientUnits="userSpaceOnUse" x2="18.498" y1="24.036" x1="20.304">
   <stop id="stop5692" style="stop-color:white;" offset="0"/>
   <stop id="stop5694" style="stop-color:#888a85;stop-opacity:0.59848487;" offset="1"/>
  </linearGradient>
  <radialGradient id="radialGradient8619" xlink:href="#linearGradient8710" gradientUnits="userSpaceOnUse" cy="30.574" cx="7.5178" gradientTransform="matrix(1.6625 0 0 1.6136 -4.9892 -18.656)" r=".53125"/>
  <radialGradient id="radialGradient8623" gradientUnits="userSpaceOnUse" cy="30.304" cx="7.5191" gradientTransform="matrix(1.3897 0 0 1.3489 -2.9198 -10.638)" r=".53125">
   <stop id="stop9615" style="stop-color:white;" offset="0"/>
   <stop id="stop9619" style="stop-color:white;" offset=".5"/>
   <stop id="stop9617" style="stop-color:#cccfca;" offset="1"/>
  </radialGradient>
  <radialGradient id="radialGradient8664" gradientUnits="userSpaceOnUse" cy="30.308" cx="7.5336" gradientTransform="matrix(1.5695 0 0 1.5233 -4.2886 -15.921)" r=".53125">
   <stop id="stop9635" style="stop-color:#eeeeec;" offset="0"/>
   <stop id="stop9639" style="stop-color:#888a85;" offset="1"/>
  </radialGradient>
  <radialGradient id="radialGradient8676" gradientUnits="userSpaceOnUse" cy="30.361" cx="7.4792" gradientTransform="matrix(1.6625 0 0 1.6136 -4.9892 -18.656)" r=".53125">
   <stop id="stop8627" style="stop-color:white;" offset="0"/>
   <stop id="stop8629" style="stop-color:#babdb6;" offset="1"/>
  </radialGradient>
  <radialGradient id="radialGradient8680" gradientUnits="userSpaceOnUse" cy="30.338" cx="7.4893" gradientTransform="matrix(1.6625 0 0 1.6136 -4.9892 -18.656)" r=".53125">
   <stop id="stop9643" style="stop-color:white;" offset="0"/>
   <stop id="stop9645" style="stop-color:#888a85;" offset="1"/>
  </radialGradient>
  <linearGradient id="linearGradient8716" y2="30.359" xlink:href="#linearGradient8710" gradientUnits="userSpaceOnUse" x2="40.711" y1="30.555" x1="40.617"/>
  <linearGradient id="linearGradient9605" y2="30.359" xlink:href="#linearGradient8710" gradientUnits="userSpaceOnUse" x2="40.711" gradientTransform="matrix(.60287 -.79784 .79784 .60287 -41.126 44.628)" y1="30.555" x1="40.617"/>
  <linearGradient id="linearGradient9649" y2="30.359" xlink:href="#linearGradient8710" gradientUnits="userSpaceOnUse" x2="40.711" gradientTransform="matrix(.86602 -.5 .5 .86602 -38.792 7.4034)" y1="30.555" x1="40.617"/>
  <linearGradient id="linearGradient9654" y2="30.359" xlink:href="#linearGradient8710" gradientUnits="userSpaceOnUse" x2="40.711" gradientTransform="matrix(.70711 .52756 -.70711 .52756 29.006 -24.092)" y1="30.555" x1="40.617"/>
  <linearGradient id="linearGradient2973" y2="34.046" gradientUnits="userSpaceOnUse" x2="12.5" y1="43.188" x1="12.5">
   <stop id="stop2969" style="stop-color:white;" offset="0"/>
   <stop id="stop2971" style="stop-color:white;stop-opacity:0;" offset="1"/>
  </linearGradient>
  <linearGradient id="linearGradient5655" y2="35.5" gradientUnits="userSpaceOnUse" x2="-2.8139" gradientTransform="translate(0,50)" y1="43.573" x1="53.813">
   <stop id="stop2901" style="stop-color:#555753;" offset="0"/>
   <stop id="stop2903" style="stop-color:#2e3436;" offset="1"/>
  </linearGradient>
  <linearGradient id="linearGradient2992" y2="37.996" gradientUnits="userSpaceOnUse" x2="21.938" y1="39" x1="21.938">
   <stop id="stop2988" style="stop-color:black;" offset="0"/>
   <stop id="stop2990" style="stop-color:black;stop-opacity:0;" offset="1"/>
  </linearGradient>
  <linearGradient id="linearGradient2910" y2="20.903" gradientUnits="userSpaceOnUse" x2="22.971" gradientTransform="translate(0,2)" y1="27.658" x1="22.101">
   <stop id="stop2905" style="stop-color:black;" offset="0"/>
   <stop id="stop2907" style="stop-color:black;stop-opacity:0;" offset="1"/>
  </linearGradient>
  <linearGradient id="linearGradient2922" y2="25.757" gradientUnits="userSpaceOnUse" x2="24.848" gradientTransform="translate(0,2)" y1="28.908" x1="24.848">
   <stop id="stop2918" style="stop-color:white;" offset="0"/>
   <stop id="stop2920" style="stop-color:white;stop-opacity:0;" offset="1"/>
  </linearGradient>
  <linearGradient id="linearGradient62231" y2="46.127" gradientUnits="userSpaceOnUse" x2="15.758" y1="2.5918" x1="15.758">
   <stop id="stop62237" style="stop-color:#ead499;" offset="0"/>
   <stop id="stop62239" style="stop-color:#a47217;" offset=".41189"/>
   <stop id="stop62241" style="stop-color:#936514;" offset=".59998"/>
   <stop id="stop62243" style="stop-color:#ead499;" offset="1"/>
  </linearGradient>
 </defs>
 <metadata id="metadata7">
  <rdf:RDF>
   <cc:Work rdf:about="">
    <dc:format>image/svg+xml</dc:format>
    <dc:type rdf:resource="http://purl.org/dc/dcmitype/StillImage"/>
    <cc:license rdf:resource="http://creativecommons.org/licenses/GPL/2.0/"/>
    <dc:creator>
     <cc:Agent>
      <dc:title>Jakub Steiner, Lapo Calamandrei</dc:title>
     </cc:Agent>
    </dc:creator>
    <dc:contributor>
     <cc:Agent>
      <dc:title/>
     </cc:Agent>
    </dc:contributor>
    <dc:title>Drive Harddisk</dc:title>
    <dc:subject>
     <rdf:Bag>
      <rdf:li>hdd</rdf:li>
      <rdf:li>drive</rdf:li>
      <rdf:li>hard</rdf:li>
      <rdf:li>fixed</rdf:li>
      <rdf:li>media</rdf:li>
     </rdf:Bag>
    </dc:subject>
   </cc:Work>
   <cc:License rdf:about="http://creativecommons.org/licenses/GPL/2.0/">
    <cc:permits rdf:resource="http://web.resource.org/cc/Reproduction"/>
    <cc:permits rdf:resource="http://web.resource.org/cc/Distribution"/>
    <cc:requires rdf:resource="http://web.resource.org/cc/Notice"/>
    <cc:permits rdf:resource="http://web.resource.org/cc/DerivativeWorks"/>
    <cc:requires rdf:resource="http://web.resource.org/cc/ShareAlike"/>
    <cc:requires rdf:resource="http://web.resource.org/cc/SourceCode"/>
   </cc:License>
  </rdf:RDF>
 </metadata>
 <g id="layer1">
  <g id="g61751" transform="matrix(.22594 0 0 .22594 1.0527 2.6632)"></g>
  <g id="g61753" transform="matrix(.22594 0 0 .22594 1.0527 2.6632)"></g>
  <path id="path61740" style="stroke:#b8731b;stroke-dasharray:none;stroke-miterlimit:4;stroke-width:0.97882371999999995;fill:url(#linearGradient62231);" d="m16.625 3.0312c-1.524 0.038-3.161 0.2285-4.656 0.2813-0.077 0.6738-0.305 1.6007-0.375 2.6563-0.501-0.7604-1.6036-2.0019-1.844-2.8126-1.5417 0.0611-2.8384 0.3449-3.75 0.6563-0.0447 3.6581-0.2309 22.286-4.75 40.438 2.8884 0.596 7.5756 0.867 12.594 1.062 1.051-0.601 1.578-1.092 1.687-1.348-0.206-0.14 1.223 1.353 1.313 1.161 0.52 0.352 2.671-2.581 2.492-2.379-0.097 0.444 0.274 1.938 0.414 2.785 2.385 0.06 4.219 0.094 4.219 0.094s2.45-0.071 5.469-0.156c0.111-1.534 0.391-1.377 0.312-2.907 0.962 0.863 1.215 1.88 1.82 2.991 3.442-0.124 7.837-0.444 10.961-0.741 0.31-0.905-0.747-1.33-0.962-2.102-1.917-1.297 3.786 2.216 2.865 0.535-0.911-1.664-0.716-2.306 1.757-1.241-5.16-17.724-4.213-34.216-4.253-37.535-1.083-0.6573-2.348-0.7872-3.532-0.844-0.052 0.1337-0.098 0.2742-0.125 0.4062-0.122 0.6123-0.541 1.0705-0.687 1.6563-0.235 0.9395-0.563 1.1453-0.563 1.125-0.293-1.4854-0.564-1.9175-1.25-3.625-4.256-0.1834-7.313-0.4194-11.739-0.4194-1.715 0-3.498 0.1495-5.198 0.1779-0.653 0.7022-1.813 2.2615-2.565 3.113-0.098 0.5014 0.325-1.4251 0.346-3.0278z"/>
  <g id="g61271" transform="matrix(.17716 0 0 .17716 -35.879 41.283)"></g>
  <g id="Guides" transform="matrix(.17716 0 0 .17716 -35.879 41.283)"></g>
  <path id="ink_left" d="m8.604 13.479c1.771-0.645 4.259-0.231 5.294 1.696-0.115 0.399-0.265 0.876-0.444 1.413-0.44-2.736-3.631-2.976-5.1413-2.001 0.1014-0.364 0.1991-0.735 0.2913-1.108zm-0.5875 2.123c0.2785-0.08 0.5423-0.128 0.7677-0.143 1.8558-0.122 3.4268 0.397 4.4118 1.887-0.121 0.352-0.253 0.722-0.39 1.107-0.753-1.693-2.143-2.242-3.9644-2.122-0.3341 0.021-0.7628 0.14-1.1628 0.323 0.1142-0.34 0.2272-0.692 0.3377-1.052zm-0.6956 2.075c0.3573-0.082 0.6932-0.122 0.9509-0.121 1.8282 0.008 3.2272 0.711 4.0632 2.2-0.139 0.38-0.283 0.769-0.429 1.163-0.622-1.754-1.874-2.482-3.6379-2.489-0.2516-0.001-0.8214 0.104-1.3405 0.281 0.1277-0.324 0.2602-0.669 0.3933-1.034zm-0.9124 2.267c0.4464-0.097 0.8611-0.144 1.1469-0.143 1.8719 0.008 3.1966 0.619 3.9706 2.131l-0.454 1.206c-0.558-1.842-1.6844-2.455-3.5208-2.463-0.4202-0.002-1.056 0.113-1.6105 0.308 0.1557-0.337 0.3127-0.683 0.4678-1.039zm-0.943 2.038c0.5918-0.1 1.1653-0.114 1.525-0.075 1.7919 0.197 3.0195 0.896 3.6545 2.359l-0.506 1.332c-0.3605-1.893-1.4177-2.622-3.2438-2.822-0.494-0.055-1.3032 0.023-1.9372 0.221 0.168-0.326 0.3372-0.665 0.5075-1.015zm-1.2507 2.422c0.6785-0.179 1.3875-0.227 1.8352-0.178 1.9183 0.21 3.0231 1.14 3.5501 2.796-0.2009 0.53-0.3933 1.039-0.5722 1.516-0.2718-2.265-1.1897-3.238-3.0732-3.444-0.6522-0.072-1.8291 0.129-2.419 0.531 0.218-0.384 0.4452-0.791 0.6791-1.221z" style="display:none;fill:#bcbec0;" display="none"/>
  <path id="ink_right" d="m45.084 26.569c-1.994-2.549-6.247-1.007-6.294 1.334-0.171-0.456-0.352-0.935-0.54-1.432 0.952-1.817 3.714-2.532 5.82-1.692 0.365 0.661 0.706 1.255 1.014 1.79zm-1.66-2.987c-0.493-0.299-1.112-0.504-1.562-0.533-1.882-0.124-3.303 0.466-4.037 2.294l-0.421-1.114c0.976-1.617 2.594-2.178 4.516-2.052 0.255 0.017 0.559 0.077 0.878 0.175 0.211 0.43 0.421 0.84 0.626 1.23zm-2.267-4.872c-0.519-0.177-1.089-0.281-1.341-0.281-1.77 0.008-3.025 0.741-3.645 2.508-0.146-0.397-0.29-0.787-0.429-1.17 0.835-1.497 2.237-2.203 4.07-2.211 0.258-0.001 0.594 0.038 0.951 0.12 0.132 0.366 0.265 0.711 0.394 1.034zm0.982 2.268c-1.972-0.819-4.443-0.02-5.152 2.143l-0.438-1.169c1.042-1.777 3.193-2.454 5.118-2.022 0.158 0.36 0.315 0.71 0.472 1.048zm-1.755-4.385c-0.558-0.225-1.213-0.37-1.645-0.383-1.755-0.054-2.881 0.469-3.519 2.106-0.143-0.402-0.277-0.788-0.402-1.153 0.833-1.361 2.146-1.881 3.947-1.826 0.318 0.01 0.791 0.083 1.289 0.223 0.108 0.354 0.219 0.699 0.33 1.033zm-0.566-1.837c-0.569-0.347-1.365-0.598-1.876-0.632-1.599-0.104-2.927 0.692-3.478 1.972-0.14-0.437-0.256-0.825-0.343-1.149 0.846-1.143 2.276-1.798 3.878-1.693 0.39 0.026 0.96 0.156 1.521 0.383 0.094 0.378 0.194 0.752 0.298 1.119z" style="display:none;fill:#bcbec0;" display="none"/>
  <g id="g62070" transform="translate(-.26973 -1.0788)">
   <g id="g3519" style="opacity:0.7;" transform="matrix(1.0308 0 0 1.1511 -.73609 -12.574)">
    <rect id="rect2884" style="fill:url(#radialGradient4700);" transform="scale(-1)" height="12.405" width="8.1916" y="-48.024" x="-9.5392"/>
    <rect id="rect2894" style="fill:url(#radialGradient4702);" height="12.405" width="8.1916" y="35.619" x="38.21"/>
    <rect id="rect2898" style="fill:url(#linearGradient4704);" height="12.405" width="28.671" y="35.619" x="9.5392"/>
   </g>
   <g id="g5672" transform="translate(0 -48.997)">
    <path id="rect2010" style="stroke-linejoin:round;marker-end:none;fill-rule:nonzero;marker-start:none;stroke-dashoffset:1.4;stroke:#2e3436;stroke-linecap:square;stroke-miterlimit:4;stroke-dasharray:none;stroke-width:1;marker-mid:none;fill:url(#linearGradient5655);" d="m4.5182 80.5h38.964c0.564 0 1.018 0.454 1.018 1.018v2.964c0 1.315-0.45 3.018-2.456 3.018h-1.544v1h-33v-1h-1.8568c-1.2712 0-2.1432-0.885-2.1432-2.256v-3.726c0-0.564 0.4541-1.018 1.0182-1.018z"/>
    <path id="path2076" style="opacity:0.1;stroke-linejoin:miter;marker-end:none;marker-start:none;stroke-dashoffset:1.4;stroke:url(#linearGradient2973);stroke-linecap:square;stroke-miterlimit:4;stroke-width:0.99999988;marker-mid:none;fill:none;" transform="translate(0,50)" d="m4.5938 31.594v3.729c0 0.6 0.3756 1.105 0.8863 1.105h36.946c0.513 0 0.98-0.507 0.98-1.016v-3.818h-38.812z"/>
    <g id="g4706" style="opacity:0.5;" transform="translate(0,50)">
     <path id="path2907" style="opacity:0.10952382;fill-rule:evenodd;fill:url(#linearGradient4711);" d="m26.145 32.089s-1.503 5.534-3.226 5.911l6.231-0.126c1.387-0.317 3.359-5.785 3.359-5.785h-6.364z"/>
     <path id="path2892" style="opacity:0.10952382;fill-rule:evenodd;fill:url(#linearGradient4713);" d="m14.77 32s-1.503 5.534-3.226 5.911l6.231-0.126c1.387-0.317 3.359-5.785 3.359-5.785h-6.364z"/>
     <path id="path2896" style="opacity:0.10952382;fill-rule:evenodd;fill:url(#linearGradient4715);" d="m34.886 32s-2.212 5.328-3.108 5.692l2.9-0.121c0.725-0.306 3.134-5.571 3.134-5.571h-2.926z"/>
    </g>
   </g>
   <path id="rect1879" style="stroke-linejoin:miter;stroke-dashoffset:0;stroke:#888a85;stroke-linecap:round;stroke-miterlimit:4;stroke-width:1.00000024;fill:url(#radialGradient5748);" d="m11.693 10.499h24.573c1.684 0 2.396 0.117 3.04 2.385l5.074 17.881c0.501 1.765-1.356 2.735-3.04 2.735h-34.721c-1.8688 0-3.4898-1.181-3.0404-2.735l5.2504-18.154c0.5683-1.964 1.18-2.112 2.864-2.112z"/>
   <path id="path5806" style="opacity:0.46240599;fill:url(#linearGradient7658);" d="m11.688 11c-0.827 0-1.285 0.065-1.563 0.25-0.2777 0.185-0.5402 0.559-0.8125 1.5l-5.25 18.125c-0.1708 0.591 0.0315 1.039 0.5 1.437 0.4685 0.399 1.235 0.688 2.0625 0.688h34.719c0.744 0 1.539-0.248 2.031-0.625s0.731-0.796 0.531-1.5l-5.062-17.875c-0.31-1.09-0.623-1.541-0.938-1.75-0.314-0.209-0.793-0.25-1.625-0.25h-24.593z"/>
   <path id="path8621" style="marker-end:none;fill-rule:nonzero;marker-start:none;marker-mid:none;fill:url(#radialGradient8623);" d="m8.1562 30.578a0.53125 0.51562 0 1 1 -1.0624 0 0.53125 0.51562 0 1 1 1.0624 0z" transform="matrix(-2.6286 0 0 1.7778 27.793 -23.777)"/>
   <path id="path2784" style="stroke-linejoin:round;stroke-dashoffset:0;stroke:url(#linearGradient5790);stroke-linecap:round;stroke-miterlimit:4;stroke-dasharray:none;stroke-width:1.00000012;fill:none;" d="m16.111 12.553c-0.574 0-1.028 0.432-1.028 0.99l-0.941 3.23c-2.86 1.277-4.642 3.1-4.642 5.124 0 3.857 6.479 6.988 14.485 6.988 8.007 0 14.515-3.131 14.515-6.988 0-2.039-1.836-3.875-4.73-5.153l-0.941-3.201c0-0.558-0.454-0.99-1.028-0.99h-15.69z"/>
   <path id="path3394" style="stroke-linejoin:miter;stroke-dashoffset:0;stroke:url(#linearGradient3474);stroke-linecap:round;stroke-miterlimit:4;stroke-width:1.00000036;fill:none;" d="m11.688 11.5c-0.804 0-1.098 0.071-1.219 0.156-0.122 0.085-0.358 0.402-0.6878 1.306l-5.25 18.138c-0.1337 0.367-0.0548 0.534 0.3126 0.84 0.3673 0.306 1.0666 0.56 1.7812 0.56h34.719c0.64 0 1.393-0.238 1.781-0.529s0.488-0.383 0.313-0.871l-5.063-17.858c-0.377-1.047-0.682-1.439-0.844-1.555-0.161-0.117-0.443-0.187-1.25-0.187h-24.593z"/>
   <g id="g5657" style="opacity:0.3028571;" transform="translate(7,-1)">
    <rect id="rect5641" style="stroke-linejoin:miter;marker-end:none;fill-rule:nonzero;marker-start:none;stroke-dashoffset:1.4;stroke:#eeeeec;stroke-linecap:square;stroke-miterlimit:4;stroke-dasharray:none;stroke-width:1.00000024;marker-mid:none;fill:#ffffff;" rx=".75130" ry=".74712" height="2" width="14" y="35.5" x="18.5"/>
    <rect id="rect5645" style="marker-end:none;fill-rule:nonzero;marker-start:none;marker-mid:none;fill:#000000;" height="1" width="1" y="36" x="19"/>
    <rect id="rect5647" style="marker-end:none;fill-rule:nonzero;marker-start:none;marker-mid:none;fill:#000000;" height="1" width="1" y="36" x="22"/>
    <rect id="rect5649" style="marker-end:none;fill-rule:nonzero;marker-start:none;marker-mid:none;fill:#000000;" height="1" width="1" y="36" x="24"/>
    <rect id="rect5651" style="marker-end:none;fill-rule:nonzero;marker-start:none;marker-mid:none;fill:#000000;" height="1" width="1" y="36" x="26"/>
    <rect id="rect5653" style="marker-end:none;fill-rule:nonzero;marker-start:none;marker-mid:none;fill:#000000;" height="1" width="2" y="36" x="29"/>
   </g>
   <path id="path5857" style="fill:url(#linearGradient5865);" d="m16.125 13c-0.363 0-0.594 0.215-0.594 0.531 0.006 0.042 0.006 0.084 0 0.125l-0.937 3.25c-0.038 0.127-0.129 0.23-0.25 0.282-1.39 0.62-2.499 1.378-3.25 2.187-0.752 0.809-1.1565 1.649-1.1565 2.531 0 1.681 1.4545 3.309 4.0005 4.532 2.545 1.222 6.116 2 10.062 2s7.517-0.778 10.062-2c2.546-1.223 4-2.851 4-4.532 0-0.888-0.393-1.747-1.156-2.562-0.762-0.816-1.905-1.567-3.312-2.188-0.121-0.052-0.213-0.155-0.25-0.281l-0.938-3.219c-0.006-0.041-0.006-0.083 0-0.125 0-0.316-0.231-0.531-0.594-0.531h-15.687z"/>
   <path id="path8595" style="opacity:0.9;stroke-linejoin:miter;marker-end:none;fill-rule:nonzero;marker-start:none;fill-opacity:0.05303028;stroke-dashoffset:1.4;stroke:url(#linearGradient8603);stroke-linecap:square;stroke-miterlimit:4;stroke-dasharray:none;stroke-width:2.52015233;marker-mid:none;fill:#000000;" d="m24.749 25.107a7.7782 4.2868 0 1 1 -15.557 0 7.7782 4.2868 0 1 1 15.557 0z" transform="matrix(.44998 0 0 .34991 16.364 12.215)"/>
   <path id="path8611" style="marker-end:none;fill-rule:nonzero;marker-start:none;marker-mid:none;fill:url(#radialGradient8619);" d="m8.1562 30.578a0.53125 0.51562 0 1 1 -1.0624 0 0.53125 0.51562 0 1 1 1.0624 0z" transform="matrix(1.4118 0 0 .96970 -3.0148 .84848)"/>
   <path id="path8660" style="marker-end:none;fill-rule:nonzero;marker-start:none;marker-mid:none;fill:url(#radialGradient8664);" d="m8.1562 30.578a0.53125 0.51562 0 1 1 -1.0624 0 0.53125 0.51562 0 1 1 1.0624 0z" transform="matrix(-2.6286 0 0 1.7778 60.793 -23.777)"/>
   <path id="path8662" style="marker-end:none;fill-rule:nonzero;marker-start:none;marker-mid:none;fill:url(#radialGradient8666);" d="m8.1562 30.578a0.53125 0.51562 0 1 1 -1.0624 0 0.53125 0.51562 0 1 1 1.0624 0z" transform="matrix(1.4118 0 0 .96970 29.985 .84848)"/>
   <path id="path8668" style="marker-end:none;fill-rule:nonzero;marker-start:none;marker-mid:none;fill:url(#radialGradient8676);" d="m8.1562 30.578a0.53125 0.51562 0 1 1 -1.0624 0 0.53125 0.51562 0 1 1 1.0624 0z" transform="matrix(-2.6286 0 0 1.7778 31.793 -40.777)"/>
   <path id="path8670" style="marker-end:none;fill-rule:nonzero;marker-start:none;marker-mid:none;fill:url(#radialGradient8678);" d="m8.1562 30.578a0.53125 0.51562 0 1 1 -1.0624 0 0.53125 0.51562 0 1 1 1.0624 0z" transform="matrix(1.4118 0 0 .96970 .98523 -16.152)"/>
   <path id="path8672" style="marker-end:none;fill-rule:nonzero;marker-start:none;marker-mid:none;fill:url(#radialGradient8680);" d="m8.1562 30.578a0.53125 0.51562 0 1 1 -1.0624 0 0.53125 0.51562 0 1 1 1.0624 0z" transform="matrix(-2.6286 0 0 1.7778 56.303 -40.777)"/>
   <path id="path8674" style="marker-end:none;fill-rule:nonzero;marker-start:none;marker-mid:none;fill:url(#radialGradient8682);" d="m8.1562 30.578a0.53125 0.51562 0 1 1 -1.0624 0 0.53125 0.51562 0 1 1 1.0624 0z" transform="matrix(1.4118 0 0 .96970 25.495 -16.152)"/>
   <path id="path8700" style="opacity:0.4;stroke-linejoin:miter;stroke:url(#linearGradient8716);stroke-linecap:round;stroke-miterlimit:4;stroke-dasharray:none;stroke-width:0.29999995;fill:none;" d="m40.328 30.261l0.875 0.431"/>
   <path id="path9603" style="opacity:0.4;stroke-linejoin:miter;stroke:url(#linearGradient9605);stroke-linecap:round;stroke-miterlimit:4;stroke-dasharray:none;stroke-width:0.29999995;fill:none;" d="m7.3302 30.696l0.8708-0.439"/>
   <path id="path9647" style="opacity:0.4;stroke-linejoin:miter;stroke:url(#linearGradient9649);stroke-linecap:round;stroke-miterlimit:4;stroke-dasharray:none;stroke-width:0.29999995;fill:none;" d="m11.264 13.446l0.972-0.064"/>
   <path id="path9652" style="opacity:0.4;stroke-linejoin:miter;stroke:url(#linearGradient9654);stroke-linecap:round;stroke-miterlimit:4;stroke-dasharray:none;stroke-width:0.29999998;fill:none;" d="m36.124 13.148l0.314 0.689"/>
   <rect id="rect2984" style="opacity:0.12000002;marker-end:none;fill-rule:nonzero;marker-start:none;marker-mid:none;fill:url(#linearGradient2992);" height="1" width="32.031" y="38" x="8"/>
   <path id="path1997" style="opacity:0.12000002;stroke-linejoin:round;marker-end:none;marker-start:none;stroke-dashoffset:0;stroke:url(#linearGradient2910);stroke-linecap:round;stroke-miterlimit:4;stroke-dasharray:none;stroke-width:1.00000036;marker-mid:none;fill:none;" d="m10.46 15.082l-3.6086 12.594c1.4469 0.7 3.7736 1.491 3.5786 3.857h26.87c0.569-1.892 2.575-3.158 4.046-3.283l-3.848-13.168-5.148-2.559h-18.031l-3.859 2.559z"/>
   <path id="path2912" style="opacity:0.83428572;stroke-linejoin:round;marker-end:none;marker-start:none;stroke-dashoffset:0;stroke:url(#linearGradient2922);stroke-linecap:round;stroke-miterlimit:4;stroke-dasharray:none;stroke-width:1.00000036;marker-mid:none;fill:none;" d="m7.9764 27.051c1.4469 0.7 3.1786 1.433 3.4256 3.357h25.456c0.569-1.892 2.017-2.908 3.488-3.033l-32.37-0.324z"/>
  </g>
 </g>
</svg>
