<?xml version="1.0" encoding="UTF-8" standalone="no"?>
<!-- Created with Inkscape (http://www.inkscape.org/) -->
<svg id="svg2" xmlns:rdf="http://www.w3.org/1999/02/22-rdf-syntax-ns#" xmlns="http://www.w3.org/2000/svg" height="128" width="128" version="1.1" xmlns:cc="http://creativecommons.org/ns#" xmlns:xlink="http://www.w3.org/1999/xlink" xmlns:dc="http://purl.org/dc/elements/1.1/">
 <defs id="defs4">
  <linearGradient id="linearGradient5111" y2="17" gradientUnits="userSpaceOnUse" x2="3.8152" gradientTransform="matrix(-6.9297 0 0 5.7748 123.69 931.98)" y1="15" x1="3">
   <stop id="stop3667-1" style="stop-color:#674323" offset="0"/>
   <stop id="stop3669-7" style="stop-color:#c48752;stop-opacity:0" offset="1"/>
  </linearGradient>
  <linearGradient id="linearGradient5114" y2="17" gradientUnits="userSpaceOnUse" x2="3.8152" gradientTransform="matrix(6.9297 0 0 5.7748 1.263 931.98)" y1="15" x1="3">
   <stop id="stop3667" style="stop-color:#674323" offset="0"/>
   <stop id="stop3669" style="stop-color:#c48752;stop-opacity:0" offset="1"/>
  </linearGradient>
  <radialGradient id="radialGradient5117" gradientUnits="userSpaceOnUse" cy="7.9" cx="11" gradientTransform="matrix(12.147 0 0 1.7922 -71.141 952.47)" r="7.25">
   <stop id="stop3635" style="stop-color:#50331d" offset="0"/>
   <stop id="stop3637" style="stop-color:#9c7b5f" offset="1"/>
  </radialGradient>
  <linearGradient id="linearGradient8740">
   <stop id="stop8742" style="stop-color:#fff" offset="0"/>
   <stop id="stop8744" style="stop-color:#fff;stop-opacity:0" offset="1"/>
  </linearGradient>
  <linearGradient id="linearGradient3129" y2="52.564" gradientUnits="userSpaceOnUse" x2="35.079" y1="21.054" x1="11.579">
   <stop id="stop3125" style="stop-color:#888a85" offset="0"/>
   <stop id="stop3127" style="stop-color:#babdb6" offset="1"/>
  </linearGradient>
  <linearGradient id="linearGradient3099" y2="1.5624" gradientUnits="userSpaceOnUse" x2="8.125" y1="18.625" x1="8.125">
   <stop id="stop3095" style="stop-color:#2e3436" offset="0"/>
   <stop id="stop3097" style="stop-color:#555753" offset="1"/>
  </linearGradient>
  <linearGradient id="linearGradient3402" y2="22.625" gradientUnits="userSpaceOnUse" x2="9.1875" y1="4.9375" x1="7.625">
   <stop id="stop3398" style="stop-color:#fff" offset="0"/>
   <stop id="stop3400" style="stop-color:#fff;stop-opacity:0" offset="1"/>
  </linearGradient>
  <linearGradient id="linearGradient3121" y2="5.6207" gradientUnits="userSpaceOnUse" x2="10.25" gradientTransform="translate(0,1)" y1="11.062" x1="10.375">
   <stop id="stop3117" style="stop-color:#fff" offset="0"/>
   <stop id="stop3119" style="stop-color:#fff;stop-opacity:0" offset="1"/>
  </linearGradient>
  <linearGradient id="linearGradient3371" y2="24.906" xlink:href="#linearGradient8740" gradientUnits="userSpaceOnUse" x2="17.693" gradientTransform="translate(-.99999 .0000042915)" y1="20.82" x1="14.498"/>
  <linearGradient id="linearGradient3387" y2="22.249" xlink:href="#linearGradient8740" gradientUnits="userSpaceOnUse" x2="15.224" y1="20.82" x1="14.498"/>
  <linearGradient id="XMLID_34_" y2="62.023" gradientUnits="userSpaceOnUse" x2="73.504" y1="53.105" x1="64.586">
   <stop id="stop11629" style="stop-color:#F36600" offset="0"/>
   <stop id="stop11631" style="stop-color:#E69C2E" offset=".1798"/>
   <stop id="stop11633" style="stop-color:#D66628" offset=".5056"/>
   <stop id="stop11635" style="stop-color:#F36600" offset="1"/>
  </linearGradient>
  <linearGradient id="XMLID_35_" y2="124.85" gradientUnits="userSpaceOnUse" x2="80.866" gradientTransform="matrix(.9027 -.086 -.086 .9027 -18.48 -14.163)" y1="115.97" x1="71.991">
   <stop id="stop11644" style="stop-color:#E0E0E0" offset="0"/>
   <stop id="stop11646" style="stop-color:#fff" offset=".2921"/>
   <stop id="stop11648" style="stop-color:#636363" offset="1"/>
  </linearGradient>
  <linearGradient id="XMLID_36_" y2="118.62" gradientUnits="userSpaceOnUse" x2="17.506" y1="110.16" x1="9.0532">
   <stop id="stop11653" style="stop-color:#fff" offset="0"/>
   <stop id="stop11655" style="stop-color:#B1B1B1" offset="1"/>
  </linearGradient>
  <linearGradient id="XMLID_37_" y2="134.86" gradientUnits="userSpaceOnUse" x2="41.991" gradientTransform="matrix(.9204 -.0796 -.0796 .9204 -13.459 -13.458)" y1="153.61" x1="41.261">
   <stop id="stop11660" style="stop-color:#B9B9B9" offset="0"/>
   <stop id="stop11662" style="stop-color:#F0F0F0" offset="1"/>
  </linearGradient>
  <linearGradient id="linearGradient12557" y2="71.123" gradientUnits="userSpaceOnUse" x2="60.409" gradientTransform="matrix(.085982 0 0 .085982 42.444 1002.5)" y1="67.164" x1="56.451">
   <stop id="stop11737" style="stop-color:#ccc" offset="0"/>
   <stop id="stop11739" style="stop-color:#999" offset="1"/>
  </linearGradient>
  <linearGradient id="linearGradient12560" y2="61.442" gradientUnits="userSpaceOnUse" x2="61.152" gradientTransform="matrix(.085982 0 0 .085982 42.444 1002.5)" y1="57.064" x1="56.774">
   <stop id="stop11728" style="stop-color:#F36600" offset="0"/>
   <stop id="stop11730" style="stop-color:#fc3" offset=".4775"/>
   <stop id="stop11732" style="stop-color:#F36600" offset=".7865"/>
  </linearGradient>
  <linearGradient id="linearGradient12563" y2="6.715" gradientUnits="userSpaceOnUse" x2="73.695" gradientTransform="matrix(.092508 .0083059 .0083059 .092508 43.531 1003.9)" y1="2.6816" x1="69.661">
   <stop id="stop11719" style="stop-color:#F36600" offset="0"/>
   <stop id="stop11721" style="stop-color:#fc3" offset=".4775"/>
   <stop id="stop11723" style="stop-color:#F36600" offset=".7865"/>
  </linearGradient>
  <linearGradient id="linearGradient12566" y2="-11.609" gradientUnits="userSpaceOnUse" x2="-495.4" gradientTransform="matrix(-.084383 -.00018056 -.00018056 -.084383 6.7061 1007.5)" y1="-8.2593" x1="-492.05">
   <stop id="stop11704" style="stop-color:#F36600" offset=".2079"/>
   <stop id="stop11706" style="stop-color:#F77207" offset=".27"/>
   <stop id="stop11708" style="stop-color:#FC800E" offset=".3726"/>
   <stop id="stop11710" style="stop-color:#FE8813" offset=".5031"/>
   <stop id="stop11712" style="stop-color:#FF8A14" offset=".7528"/>
   <stop id="stop11714" style="stop-color:#F36600" offset=".9719"/>
  </linearGradient>
  <linearGradient id="linearGradient12569" y2="20.379" gradientUnits="userSpaceOnUse" x2="-527.37" gradientTransform="matrix(-.084383 -.00018056 -.00018056 -.084383 6.7061 1007.5)" y1="23.862" x1="-523.89">
   <stop id="stop11689" style="stop-color:#F36600" offset=".2079"/>
   <stop id="stop11691" style="stop-color:#F77207" offset=".27"/>
   <stop id="stop11693" style="stop-color:#FC800E" offset=".3726"/>
   <stop id="stop11695" style="stop-color:#FE8813" offset=".5031"/>
   <stop id="stop11697" style="stop-color:#FF8A14" offset=".7528"/>
   <stop id="stop11699" style="stop-color:#F36600" offset=".9719"/>
  </linearGradient>
  <linearGradient id="linearGradient12572" y2="-1099" gradientUnits="userSpaceOnUse" x2="1184.9" gradientTransform="matrix(.056241 .046061 .046061 .056241 32.176 1015.5)" y1="-1103.5" x1="1180.5">
   <stop id="stop11678" style="stop-color:#F36600" offset="0"/>
   <stop id="stop11680" style="stop-color:#AD5220" offset=".2697"/>
   <stop id="stop11682" style="stop-color:#D66628" offset=".6573"/>
   <stop id="stop11684" style="stop-color:#F36600" offset="1"/>
  </linearGradient>
  <linearGradient id="linearGradient12575" y2="-3.7261" gradientUnits="userSpaceOnUse" x2="52.301" gradientTransform="matrix(.10374 .016354 .016354 .10374 45.525 1005.1)" y1="-8.1499" x1="47.877">
   <stop id="stop11667" style="stop-color:#F36600" offset="0"/>
   <stop id="stop11669" style="stop-color:#AD5220" offset=".2697"/>
   <stop id="stop11671" style="stop-color:#D66628" offset=".6573"/>
   <stop id="stop11673" style="stop-color:#F36600" offset="1"/>
  </linearGradient>
  <filter id="filter4034" height="1.6208" width="1.0664" y="-.31039" x="-.033210">
   <feGaussianBlur id="feGaussianBlur4036" stdDeviation="1.4936906"/>
  </filter>
  <linearGradient id="linearGradient8918-0">
   <stop id="stop8920-9" style="stop-color:#8dff2d" offset="0"/>
   <stop id="stop8922-0" style="stop-color:#6bc500" offset="1"/>
  </linearGradient>
  <radialGradient id="radialGradient4398" gradientUnits="userSpaceOnUse" cy="-8.7256" cx="62.2" gradientTransform="matrix(3.1626 0 0 3.1627 -126.57 866.52)" r="9.7553">
   <stop id="stop8649" style="stop-color:#6ccdff" offset="0"/>
   <stop id="stop8651" style="stop-color:#004bab" offset="1"/>
  </radialGradient>
  <radialGradient id="radialGradient4400" xlink:href="#linearGradient8918-0" gradientUnits="userSpaceOnUse" cy="17.258" cx="25.969" gradientTransform="matrix(.081498 2.938 -1.9766 .054806 102.85 763.88)" r="9.8223"/>
  <radialGradient id="radialGradient4402" xlink:href="#linearGradient8740" gradientUnits="userSpaceOnUse" cy="-3.442" cx="62.225" gradientTransform="matrix(1.2131 0 0 1.1285 39.325 824.66)" r="10.081"/>
  <radialGradient id="radialGradient4424" fx="24.652" gradientUnits="userSpaceOnUse" cy="18.944" cx="24.653" gradientTransform="matrix(.090148 3.2499 -2.3187 .064325 110.7 760.45)" r="8.6174">
   <stop id="stop8926" style="stop-color:#cee14b" offset="0"/>
   <stop id="stop8928" style="stop-color:#63d900" offset="1"/>
  </radialGradient>
  <radialGradient id="radialGradient4426" xlink:href="#linearGradient8740" gradientUnits="userSpaceOnUse" cy="-3.442" cx="62.225" gradientTransform="matrix(1.1773 0 0 1.0951 39.945 825.48)" r="10.081"/>
  <radialGradient id="radialGradient4436" gradientUnits="userSpaceOnUse" cy="17.258" cx="25.969" gradientTransform="matrix(.081498 2.938 -1.9766 .054806 102.85 763.88)" r="9.8223">
   <stop id="stop8920" style="stop-color:#8dff2d" offset="0"/>
   <stop id="stop8922" style="stop-color:#6bc500" offset="1"/>
  </radialGradient>
  <radialGradient id="radialGradient4544" gradientUnits="userSpaceOnUse" cy="21.732" cx="15.902" gradientTransform="matrix(1.9597 0 0 1.6579 -14.976 -13.841)" r="3">
   <stop id="stop3247" style="stop-color:#babdb6" offset="0"/>
   <stop id="stop3249" style="stop-color:#888a85" offset="1"/>
  </radialGradient>
  <linearGradient id="linearGradient4548" y2="21.906" xlink:href="#linearGradient8740" gradientUnits="userSpaceOnUse" x2="15.005" gradientTransform="translate(-6)" y1="20.82" x1="14.498"/>
  <linearGradient id="linearGradient4550" y2="22.593" xlink:href="#linearGradient8740" gradientUnits="userSpaceOnUse" x2="14.911" gradientTransform="translate(-.99999 .0000042915)" y1="20.82" x1="14.498"/>
  <linearGradient id="linearGradient6771" y2="19" gradientUnits="userSpaceOnUse" x2="8" gradientTransform="matrix(5.7748 0 0 5.7748 -1.0469 4.73)" y1="7" x1="8">
   <stop id="stop3621" style="stop-color:#c2a286" offset="0"/>
   <stop id="stop3627" style="stop-color:#a6754a" offset=".58713"/>
   <stop id="stop3629" style="stop-color:#966941" offset=".74007"/>
   <stop id="stop3623" style="stop-color:#b48052" offset="1"/>
  </linearGradient>
  <linearGradient id="linearGradient6746-6" y2="1044.4" gradientUnits="userSpaceOnUse" x2="18.5" gradientTransform="matrix(5.7748 0 0 5.7748 -1.0469 -5003.9)" y1="1044.4" x1="3.5">
   <stop id="stop6441-76" style="stop-color:#fff;stop-opacity:.22143" offset="0"/>
   <stop id="stop6447-60" style="stop-color:#fff;stop-opacity:0" offset=".049778"/>
   <stop id="stop6449-8" style="stop-color:#fff;stop-opacity:0" offset=".93333"/>
   <stop id="stop6443-0" style="stop-color:#fff;stop-opacity:.22857" offset="1"/>
  </linearGradient>
  <linearGradient id="linearGradient8438" y2="-66.653" gradientUnits="userSpaceOnUse" x2="75.026" gradientTransform="translate(0 1024.4)" y1="-46.331" x1="75.026">
   <stop id="stop8434" offset="0"/>
   <stop id="stop8436" style="stop-opacity:0" offset="1"/>
  </linearGradient>
 </defs>
 <metadata id="metadata7">
  <rdf:RDF>
   <cc:Work rdf:about="">
    <dc:format>image/svg+xml</dc:format>
    <dc:type rdf:resource="http://purl.org/dc/dcmitype/StillImage"/>
    <dc:title/>
   </cc:Work>
  </rdf:RDF>
 </metadata>
 <g id="layer1" transform="translate(0 -924.36)">
  <path id="rect17154" style="opacity:0.13;filter:url(#filter4034)" transform="matrix(.91662 0 0 -1 5.2089 2087.7)" d="m8.5026 1038.8h107.95l-7 11.6h-93.947l-7.0004-11.6z"/>
  <path id="path3631" style="fill:url(#radialGradient5117)" d="m19.165 969.52 7.2185-8.6621 1.4437-8.6622h69.297l1.4437 8.6622 7.2185 8.6621h-86.621z"/>
  <g id="g6726" transform="matrix(.98894 -.57096 .57096 .98894 4.7765 951.71)">
   <rect id="rect2157" style="color:#000000;stroke-dashoffset:1.4;stroke:#555753;stroke-linecap:round;stroke-miterlimit:6;fill:url(#linearGradient3129)" rx="2.875" ry="2.875" height="36.459" width="37" y="8.0407" x="5.5"/>
   <rect id="rect3052" style="opacity:.3;color:#000000;stroke-dashoffset:1.4;stroke:#fff;stroke-linecap:round;stroke-miterlimit:6;fill:none" rx="1.9237" ry="1.9237" height="41" width="35" y="2.5" x="6.5"/>
   <path id="rect3047" style="color:#000000;stroke-dashoffset:1.4;stroke:#2e3436;stroke-linecap:round;stroke-miterlimit:6;fill:url(#linearGradient3099)" d="m42.5 17v-12.625c0-1.5928-1.282-2.875-2.875-2.875h-31.25c-1.5928 0-2.875 1.2823-2.875 2.875v12.625"/>
   <rect id="rect3045" style="color:#000000;fill:#8ae234" rx="1.1762" ry="1.1762" height="9" width="32" y="7" x="8"/>
   <path id="path3072" style="opacity:.2;color:#000000;stroke-dashoffset:1.4;stroke:url(#linearGradient3402);stroke-linecap:square;stroke-miterlimit:6;fill:none" d="m41.5 16.51v-12.162c0-1.0496-0.79796-1.8479-1.847-1.8479h-31.306c-1.0491 0-1.847 0.79832-1.847 1.8479v12.162"/>
   <rect id="rect3075" style="opacity:.6;color:#000000;fill:#fff" height="5" width="22" y="9" x="13"/>
   <path id="rect3555" style="opacity:.3;color:#000000" d="m13 9v0.5 4.5h0.5v-4.5h21.5v-0.5h-21.5-0.5z"/>
   <path id="rect3109" style="opacity:.4;color:#000000;fill:url(#linearGradient3121)" d="m9.1875 7c-0.6516 0-1.1875 0.5359-1.1875 1.1875v5.0312c11.702-4.6607 24.206-2.2269 32 1.3125v-6.3445c0-0.6516-0.536-1.1875-1.188-1.1875h-29.624z"/>
   <g id="g3253" transform="translate(4.887581e-6,4.172325e-6)">
    <rect id="rect3133" style="color:#000000;stroke-dashoffset:1.4;stroke:#555753;stroke-linecap:square;stroke-miterlimit:6;fill:url(#radialGradient4544)" rx="1.0469" ry="1.0469" height="4" width="5" y="19.5" x="13.5"/>
    <rect id="rect3211" style="opacity:.4;stroke-linejoin:round;color:#000000;stroke-dashoffset:1.4;stroke:url(#linearGradient3387);stroke-linecap:square;stroke-miterlimit:6;fill:none" rx="0" ry="0" height="2" width="3" y="20.5" x="14.5"/>
   </g>
   <g id="g3279">
    <rect id="rect3131" style="color:#000000;stroke-dashoffset:1.4;stroke:#2e3436;stroke-linecap:square;stroke-miterlimit:6;fill:#555753" rx="1.0165" ry="1.0165" height="4" width="4" y="19.5" x="7.5"/>
    <rect id="rect3229" style="opacity:.3;stroke-linejoin:round;color:#000000;stroke-dashoffset:1.4;stroke:url(#linearGradient4548);stroke-linecap:square;stroke-miterlimit:6;fill:none" rx="0" ry="0" height="2" width="2" y="20.5" x="8.5"/>
   </g>
   <use id="use3283" xlink:href="#g3279" transform="translate(0,6)" height="48" width="48" y="0" x="0"/>
   <use id="use3285" xlink:href="#use3283" transform="translate(0,6)" height="48" width="48" y="0" x="0"/>
   <use id="use3287" xlink:href="#use3285" transform="translate(0,6)" height="48" width="48" y="0" x="0"/>
   <use id="use3331" xlink:href="#g3253" transform="translate(-.0000048876 6)" height="48" width="48" y="0" x="0"/>
   <use id="use3333" xlink:href="#g3253" transform="translate(-4.887581e-6,12)" height="48" width="48" y="0" x="0"/>
   <use id="use3335" xlink:href="#g3253" transform="translate(7 -.0000041723)" height="48" width="48" y="0" x="0"/>
   <use id="use3337" xlink:href="#g3253" transform="translate(7 6)" height="48" width="48" y="0" x="0"/>
   <use id="use3339" xlink:href="#g3253" transform="translate(7 12)" height="48" width="48" y="0" x="0"/>
   <use id="use3341" xlink:href="#g3253" transform="translate(7 18)" height="48" width="48" y="0" x="0"/>
   <use id="use3343" xlink:href="#g3253" transform="translate(14,-4.172325e-6)" height="48" width="48" y="0" x="0"/>
   <use id="use3345" xlink:href="#g3253" transform="translate(14,12)" height="48" width="48" y="0" x="0"/>
   <use id="use3347" xlink:href="#g3253" transform="translate(14 6)" height="48" width="48" y="0" x="0"/>
   <g id="g3349" transform="translate(22)">
    <rect id="rect3351" style="color:#000000;stroke-dashoffset:1.4;stroke:#555753;stroke-linecap:square;stroke-miterlimit:6;fill:#888a85" rx="1.0469" ry="1.0469" height="4" width="6" y="19.5" x="12.5"/>
    <rect id="rect3353" style="opacity:.4;stroke-linejoin:round;color:#000000;stroke-dashoffset:1.4;stroke:url(#linearGradient4550);stroke-linecap:square;stroke-miterlimit:6;fill:none" rx="0" ry="0" height="2" width="4" y="20.5" x="13.5"/>
   </g>
   <use id="use3359" xlink:href="#g3349" transform="translate(0,6)" height="48" width="48" y="0" x="0"/>
   <g id="use3363" transform="translate(22,12)">
    <rect id="rect3367" style="color:#000000;stroke-dashoffset:1.4;stroke:#555753;stroke-linecap:square;stroke-miterlimit:6;fill:#888a85" rx="1.0469" ry="1.0469" height="10" width="6" y="19.5" x="12.5"/>
    <rect id="rect3369" style="opacity:.4;stroke-linejoin:round;color:#000000;stroke-dashoffset:1.4;stroke:url(#linearGradient3371);stroke-linecap:square;stroke-miterlimit:6;fill:none" rx="0" ry="0" height="8" width="4" y="20.5" x="13.5"/>
   </g>
   <use id="use3375" xlink:href="#g3253" transform="translate(-4.887581e-6,18)" height="48" width="48" y="0" x="0"/>
   <g id="use3377" transform="translate(14,18)">
    <rect id="rect3381" style="color:#000000;stroke-dashoffset:1.4;stroke:#555753;stroke-linecap:square;stroke-miterlimit:6;fill:#888a85" rx="1.0469" ry="1.0469" height="4" width="5" y="19.5" x="13.5"/>
    <rect id="rect3383" style="opacity:.4;stroke-linejoin:round;color:#000000;stroke-dashoffset:1.4;stroke:url(#linearGradient3387);stroke-linecap:square;stroke-miterlimit:6;fill:none" rx="0" ry="0" height="2" width="3" y="20.5" x="14.5"/>
   </g>
   <path id="text3390" style="fill:#eeeeec" transform="scale(.91068 1.0981)" d="m12.513 3.7387v0.45224c-0.07537-0.051625-0.15126-0.089828-0.22767-0.11461-0.07537-0.024779-0.15385-0.037169-0.23541-0.037171-0.15488 0.0000014-0.27568 0.045432-0.36241 0.13629-0.0857 0.08983-0.12855 0.2158-0.12855 0.3779 0 0.16211 0.04285 0.28859 0.12855 0.37945 0.08673 0.089829 0.20754 0.13474 0.36241 0.13474 0.08673 3e-7 0.16882-0.012906 0.24626-0.038719 0.07847-0.025813 0.15074-0.064016 0.21683-0.11461v0.45379c-0.08673 0.032008-0.17501 0.055756-0.26484 0.071244-0.0888 0.01652-0.17811 0.02478-0.26794 0.02478-0.31285-1e-7 -0.55756-0.08002-0.73412-0.24006-0.17656-0.16107-0.26484-0.38461-0.26484-0.67062-0.000001-0.28601 0.08828-0.50903 0.26484-0.66907 0.17656-0.16107 0.42127-0.24161 0.73412-0.24161 0.09086 0.0000018 0.18017 0.00826 0.26794 0.02478 0.08879 0.01549 0.17707 0.039237 0.26484 0.071244m1.3072 0.30046c-0.12287 0.0000014-0.21683 0.044399-0.28188 0.13319-0.06402 0.087765-0.09602 0.21476-0.09602 0.381s0.03201 0.29375 0.09602 0.38255c0.06505 0.087764 0.15901 0.13165 0.28188 0.13165 0.1208 3e-7 0.21321-0.043882 0.27723-0.13165 0.06401-0.088796 0.09602-0.21631 0.09602-0.38255-0.000002-0.16623-0.03201-0.29323-0.09602-0.381-0.064-0.0888-0.156-0.1332-0.277-0.1332m0-0.39649c0.2984 0.0000018 0.53123 0.080538 0.6985 0.24161 0.1683 0.16107 0.25245 0.3841 0.25245 0.66907-0.000002 0.28498-0.08415 0.508-0.25245 0.66907-0.16727 0.16107-0.4001 0.24161-0.6985 0.24161-0.29943-1e-7 -0.53381-0.080536-0.70314-0.24161-0.1683-0.16107-0.25245-0.3841-0.25245-0.66907-0.000001-0.28497 0.08415-0.508 0.25245-0.66907 0.16933-0.16107 0.40371-0.24161 0.70314-0.24161m2.7568 0.096024v0.45224c-0.07537-0.051625-0.15126-0.089828-0.22767-0.11461-0.07538-0.024779-0.15385-0.037169-0.23541-0.037171-0.15488 0.0000014-0.27568 0.045432-0.36241 0.13629-0.0857 0.08983-0.12855 0.2158-0.12855 0.3779-0.000001 0.16211 0.04285 0.28859 0.12855 0.37945 0.08673 0.089829 0.20754 0.13474 0.36241 0.13474 0.08673 3e-7 0.16882-0.012906 0.24626-0.038719 0.07847-0.025813 0.15075-0.064016 0.21683-0.11461v0.45379c-0.08673 0.032008-0.17501 0.055756-0.26484 0.071244-0.0888 0.01652-0.17811 0.02478-0.26794 0.02478-0.31285-1e-7 -0.55756-0.08002-0.73412-0.24006-0.17656-0.16107-0.26484-0.38461-0.26484-0.67062s0.08828-0.50903 0.26484-0.66907c0.17656-0.16107 0.42127-0.24161 0.73412-0.24161 0.09086 0.0000018 0.18017 0.00826 0.26794 0.02478 0.0888 0.01549 0.17708 0.039237 0.26484 0.071244m1.3072 0.30046c-0.12287 0.0000014-0.21683 0.044399-0.28188 0.13319-0.06402 0.087765-0.09603 0.21476-0.09602 0.381-0.000001 0.16624 0.03201 0.29375 0.09602 0.38255 0.06505 0.087764 0.15901 0.13165 0.28188 0.13165 0.1208 3e-7 0.21321-0.043882 0.27723-0.13165 0.06401-0.088796 0.09602-0.21631 0.09602-0.38255-0.000002-0.16623-0.03201-0.29323-0.09602-0.381-0.06402-0.088795-0.15643-0.13319-0.27723-0.13319m0-0.39649c0.2984 0.0000018 0.53123 0.080538 0.6985 0.24161 0.1683 0.16107 0.25245 0.3841 0.25245 0.66907-0.000002 0.28498-0.08415 0.508-0.25245 0.66907-0.16727 0.16107-0.4001 0.24161-0.6985 0.24161-0.29943-1e-7 -0.53381-0.080536-0.70314-0.24161-0.1683-0.16107-0.25245-0.3841-0.25245-0.66907s0.08415-0.508 0.25245-0.66907c0.16933-0.16107 0.40371-0.24161 0.70314-0.24161m2.1327 0.99586c-0.11564 8e-7 -0.20289 0.019619-0.26174 0.058853-0.05782 0.039236-0.08673 0.097057-0.08673 0.17346-0.000001 0.070212 0.02323 0.12545 0.06969 0.16572 0.0475 0.039236 0.11306 0.058854 0.19669 0.058853 0.10428 3e-7 0.19205-0.03717 0.26329-0.11151 0.07124-0.075373 0.10686-0.16933 0.10686-0.28188v-0.0635h-0.28807m0.84718-0.20908v0.98967h-0.55911v-0.2571c-0.07434 0.10532-0.15798 0.18224-0.2509 0.23077-0.09293 0.047496-0.20599 0.071244-0.33918 0.071244-0.17966-1e-7 -0.32576-0.052142-0.4383-0.15643-0.11151-0.10532-0.16727-0.24161-0.16727-0.40888-0.000001-0.2034 0.06969-0.3526 0.20908-0.4476 0.14042-0.09499 0.36035-0.14249 0.65978-0.14249h0.32679v-0.043366c-0.000001-0.087763-0.03459-0.15178-0.10377-0.19205-0.06918-0.041299-0.17708-0.06195-0.32369-0.061951-0.11874 0.0000014-0.22922 0.011875-0.33144 0.035622-0.10222 0.023749-0.19721 0.059371-0.28498 0.10687v-0.42282c0.11874-0.028909 0.238-0.050591 0.35777-0.065049 0.11977-0.015486 0.23954-0.02323 0.35932-0.023232 0.31285 0.0000018 0.53846 0.061953 0.67681 0.18585 0.13939 0.12287 0.20908 0.32318 0.20908 0.60092"/>
   <rect id="rect3394" style="opacity:.3;color:#000000;fill:#fcaf3e" height="2" width="8" y="4" x="31"/>
   <g id="g3522">
    <path id="text3443" style="fill:#fff" d="m16.5 34h-0.43634v-0.71942c-0.15942 0.06522-0.34731 0.11345-0.56367 0.1447v-0.17323c0.11387-0.0163 0.23758-0.0471 0.37112-0.09239 0.13354-0.04574 0.22516-0.09896 0.27485-0.15964h0.35404v0.99999"/>
    <path id="text3447" style="fill:#fff" d="m23.765 33.823v0.17731h-1.5295c0.01656-0.06703 0.06625-0.13043 0.14907-0.19022 0.08282-0.06024 0.24638-0.13994 0.49069-0.23913 0.19669-0.08016 0.31729-0.13451 0.3618-0.16304 0.06004-0.0394 0.09006-0.07835 0.09006-0.11685-0.000002-0.04257-0.0264-0.07518-0.07919-0.09783-0.05176-0.0231-0.12371-0.03465-0.21584-0.03465-0.0911 0.000001-0.16356 0.012-0.21739 0.03601-0.05383 0.024-0.08489 0.06386-0.09317 0.11956l-0.43479-0.01902c0.02588-0.10507 0.10714-0.18048 0.24379-0.22622s0.30746-0.06861 0.51243-0.06861c0.22464 0 0.40114 0.02649 0.52951 0.07948 0.12836 0.05299 0.19255 0.11888 0.19255 0.19769-0.000001 0.04484-0.01864 0.08764-0.0559 0.1284-0.03623 0.04031-0.09421 0.08265-0.17392 0.12704-0.0528 0.02944-0.14804 0.07178-0.28572 0.12704-0.13768 0.05525-0.22516 0.09194-0.26242 0.11005-0.03623 0.01812-0.06574 0.03578-0.08851 0.05299h0.86647"/>
    <path id="text3451" style="fill:#fff" d="m29.276 33.736 0.42236-0.02242c0.01346 0.0471 0.04969 0.08311 0.1087 0.10802 0.059 0.02491 0.13044 0.03736 0.21429 0.03736 0.09006 0 0.16563-0.01494 0.22671-0.04484 0.06211-0.02989 0.09317-0.0702 0.09317-0.12092-0.000002-0.04801-0.0295-0.08605-0.08851-0.11413s-0.13096-0.04212-0.21584-0.04212c-0.0559 0-0.12267 0.0048-0.20031 0.01427l0.04814-0.15557c0.11801 0.0014 0.20808-0.0097 0.27019-0.03329 0.06211-0.024 0.09317-0.0557 0.09317-0.09511 0-0.03351-0.02277-0.06023-0.06832-0.08016s-0.10611-0.02989-0.18168-0.02989c-0.07454 0.000001-0.1382 0.01132-0.191 0.03397s-0.08489 0.05571-0.09628 0.09918l-0.40218-0.02989c0.02795-0.06023 0.06987-0.10824 0.12578-0.14402 0.05693-0.03623 0.13561-0.06454 0.23603-0.08492 0.10145-0.02083 0.2148-0.03125 0.34007-0.03125 0.21429 0.000001 0.38613 0.02989 0.51553 0.08967 0.10663 0.04891 0.15994 0.10417 0.15994 0.16576-0.000002 0.08741-0.10922 0.15716-0.32764 0.20924 0.13044 0.01223 0.23447 0.03963 0.31212 0.0822 0.07867 0.04257 0.11801 0.09398 0.11801 0.15421-0.000002 0.08741-0.07298 0.16191-0.21895 0.2235s-0.32765 0.09239-0.54504 0.09239c-0.20601 0-0.37682-0.02582-0.51243-0.07745-0.13561-0.05208-0.21429-0.12002-0.23603-0.2038"/>
    <path id="text3455" style="fill:#fff" d="m30.77 27.248-0.42237 0.02038c-0.01035-0.03804-0.03727-0.06612-0.08075-0.08424s-0.0999-0.02717-0.16926-0.02717c-0.09213 0.000001-0.17029 0.01812-0.23448 0.05435-0.06315 0.03623-0.103 0.11164-0.11957 0.22622 0.1087-0.05616 0.24379-0.08424 0.40528-0.08424 0.1822 0.000001 0.338 0.03035 0.4674 0.09103 0.13043 0.06069 0.19565 0.13904 0.19565 0.23505-0.000001 0.1019-0.06833 0.18365-0.20497 0.24524-0.13665 0.06159-0.31212 0.09239-0.5264 0.09239-0.22982 0-0.41874-0.03895-0.56678-0.11685-0.14804-0.07835-0.22205-0.20652-0.22205-0.38451 0-0.18252 0.07712-0.31408 0.23137-0.3947 0.15425-0.08061 0.35456-0.12092 0.60094-0.12092 0.17288 0 0.31574 0.02129 0.42858 0.06386 0.11387 0.04212 0.18634 0.10349 0.2174 0.1841m-0.98914 0.41644c0 0.06205 0.03261 0.11006 0.09783 0.14402 0.06522 0.03352 0.13975 0.05027 0.22361 0.05027 0.08075 0 0.14803-0.01381 0.20187-0.04144 0.05383-0.02763 0.08074-0.07292 0.08075-0.13587-0.000002-0.06476-0.02899-0.11209-0.08696-0.14198-0.05797-0.03034-0.13044-0.04552-0.21739-0.04552-0.08385 0.000001-0.15476 0.01449-0.21274 0.04348-0.05797 0.02853-0.08696 0.07088-0.08696 0.12704"/>
    <path id="text3459" style="fill:#fff" d="m22.297 27.744 0.43479-0.0197c0.01242 0.04303 0.04917 0.07722 0.11025 0.10258 0.06108 0.02491 0.13147 0.03737 0.21118 0.03737 0.0911 0 0.16822-0.01608 0.23137-0.04823 0.06315-0.03261 0.09472-0.08152 0.09472-0.14674-0.000001-0.06114-0.03158-0.10688-0.09472-0.13723-0.06211-0.0308-0.14338-0.0462-0.24379-0.0462-0.12526 0.000001-0.23758 0.02423-0.33696 0.07269l-0.35404-0.02242 0.22361-0.51834h1.1537v0.17867h-0.82299l-0.06832 0.16916c0.09731-0.02129 0.19669-0.03193 0.29814-0.03193 0.19358 0.000001 0.35766 0.0308 0.49224 0.09239 0.13458 0.0616 0.20186 0.14153 0.20187 0.23981-0.000002 0.08197-0.05435 0.15512-0.16305 0.21943-0.14804 0.08786-0.35352 0.13179-0.61647 0.13179-0.21015 0-0.38148-0.02468-0.51398-0.07405-0.13251-0.04937-0.2117-0.11572-0.23758-0.19905"/>
    <path id="text3467" style="fill:#fff" d="m16.147 28v-0.20041h-0.93169v-0.16712l0.98759-0.63247h0.36646v0.63179h0.28261v0.1678h-0.28261v0.20041h-0.42237m0-0.3682v-0.34035l-0.5233 0.34035h0.5233"/>
    <path id="text3473" style="fill:#fff" d="m15.291 21.195v-0.17731h1.4923v0.13859c-0.12319 0.05299-0.24845 0.12908-0.37578 0.22826-0.12733 0.09919-0.22464 0.20471-0.29193 0.31658-0.06626 0.11141-0.09886 0.21105-0.09783 0.29891h-0.42081c0.0072-0.13768 0.07195-0.27808 0.1941-0.42119 0.12319-0.14312 0.28727-0.27106 0.49224-0.38383h-0.99225"/>
    <path id="text3477" style="fill:#fff" d="m22.666 21.463c-0.11284-0.02083-0.19514-0.04937-0.2469-0.0856-0.05073-0.03668-0.07609-0.07677-0.07609-0.12024 0-0.07428 0.05901-0.13564 0.17702-0.1841 0.11905-0.04846 0.28779-0.07269 0.50622-0.07269 0.21636 0.000002 0.38406 0.02423 0.50312 0.07269 0.12008 0.04846 0.18013 0.10983 0.18013 0.1841-0.000001 0.0462-0.02743 0.08741-0.0823 0.12364-0.05487 0.03578-0.13199 0.06318-0.23137 0.0822 0.1263 0.02219 0.22205 0.05457 0.28727 0.09715 0.06625 0.04257 0.09938 0.09171 0.09938 0.14742-0.000002 0.09194-0.06729 0.16667-0.20187 0.22419-0.13354 0.05752-0.3116 0.08628-0.53417 0.08628-0.20704 0-0.37941-0.02378-0.51709-0.07133-0.16253-0.05616-0.24379-0.13315-0.24379-0.23098 0-0.0539 0.03054-0.10326 0.09162-0.1481 0.06108-0.04529 0.15735-0.08016 0.28882-0.10462m0.09006-0.19226c-0.000002 0.03804 0.02433 0.06771 0.07298 0.089 0.04969 0.02129 0.11543 0.03193 0.19721 0.03193 0.08282 0.000001 0.14907-0.01064 0.19876-0.03193 0.04969-0.02174 0.07453-0.05163 0.07454-0.08967-0.000001-0.03578-0.02485-0.06431-0.07454-0.0856-0.04866-0.02174-0.11336-0.03261-0.1941-0.03261-0.08385 0.000001-0.15062 0.01087-0.20031 0.03261s-0.07454 0.0505-0.07454 0.08628m-0.04037 0.42663c-0.000002 0.05254 0.03054 0.09352 0.09162 0.12296 0.06211 0.02944 0.13924 0.04416 0.23137 0.04416 0.09006 0.000001 0.1646-0.01404 0.22361-0.04212 0.05901-0.02853 0.08851-0.06952 0.08851-0.12296-0.000002-0.04665-0.03002-0.08401-0.09006-0.11209-0.06004-0.02853-0.13613-0.0428-0.22826-0.0428-0.10663 0-0.18634 0.01608-0.23914 0.04823-0.05176 0.03216-0.07764 0.06703-0.07764 0.10462"/>
    <path id="text3481" style="fill:#fff" d="m29.301 21.77 0.42237-0.02038c0.01035 0.03759 0.03727 0.06544 0.08075 0.08356s0.10093 0.02717 0.17236 0.02717c0.09006 0 0.16667-0.01812 0.22982-0.05435s0.10352-0.11141 0.12112-0.22554c-0.10974 0.05571-0.2469 0.08356-0.4115 0.08356-0.17909 0.000001-0.33386-0.03012-0.46429-0.09035-0.1294-0.06069-0.1941-0.13949-0.1941-0.23641 0-0.101 0.06832-0.18229 0.20497-0.24389 0.13768-0.06205 0.31264-0.09307 0.52486-0.09307 0.23085 0.000001 0.4203 0.03918 0.56834 0.11753 0.14803 0.0779 0.22205 0.2063 0.22205 0.38519-0.000002 0.18207-0.07713 0.31341-0.23137 0.39402-0.15425 0.08062-0.35508 0.12092-0.6025 0.12092-0.17806 0-0.32195-0.02061-0.43169-0.06182-0.10973-0.04167-0.18013-0.10371-0.21118-0.18614m0.9876-0.41712c0-0.06159-0.03261-0.10937-0.09783-0.14334-0.06419-0.03397-0.13872-0.05095-0.22361-0.05095-0.08075 0-0.14804 0.01404-0.20187 0.04212-0.0528 0.02763-0.07919 0.07314-0.07919 0.13655 0 0.06431 0.02899 0.11164 0.08696 0.14198 0.05797 0.02989 0.13044 0.04484 0.2174 0.04484 0.08385 0.000001 0.15425-0.01449 0.21118-0.04348 0.05797-0.02899 0.08696-0.07156 0.08696-0.12772"/>
    <path id="text3485" style="fill:#fff" d="m23.029 39c0.2205 0.000001 0.39286 0.03442 0.51709 0.10326 0.14803 0.08152 0.22205 0.21671 0.22205 0.40557-0.000002 0.1884-0.07454 0.32382-0.2236 0.40625-0.12319 0.06793-0.29504 0.1019-0.51553 0.1019-0.22154 0-0.40011-0.03714-0.53572-0.11141-0.13561-0.07473-0.20342-0.20765-0.20342-0.39878 0-0.1875 0.07454-0.32246 0.22361-0.40489 0.12319-0.06793 0.29503-0.1019 0.51553-0.1019m0 0.15829c-0.0528 0.000001-0.0999 0.0075-0.14131 0.02242-0.04141 0.01449-0.0735 0.04076-0.09627 0.0788-0.03002 0.04937-0.04503 0.13247-0.04503 0.24932-0.000002 0.11685 0.01346 0.19724 0.04037 0.24117 0.02691 0.04348 0.06056 0.07246 0.10093 0.08696 0.04141 0.01449 0.08851 0.02174 0.14131 0.02174 0.05279 0 0.0999-0.0072 0.14131-0.02174 0.04141-0.01495 0.0735-0.04144 0.09627-0.07948 0.03002-0.04891 0.04503-0.13179 0.04503-0.24864-0.000001-0.11685-0.01346-0.19701-0.04037-0.24049-0.02692-0.04393-0.06108-0.07314-0.10249-0.08764-0.04037-0.01494-0.08696-0.02242-0.13975-0.02242"/>
   </g>
  </g>
  <g id="g4385" transform="translate(1,100)">
   <path id="path6495" style="stroke:#204a87;stroke-width:1.155;fill:url(#radialGradient4398)" d="m96.22 853.61c0 14.404-11.677 26.081-26.08 26.081-14.404 0-26.08-11.677-26.08-26.081s11.677-26.08 26.08-26.08c14.402 0 26.08 11.676 26.08 26.08z"/>
   <path id="path6534" style="stroke-width:1.3213;color:#000000;stroke:url(#radialGradient4402);fill:url(#radialGradient4400)" d="m71.308 834.65-0.09673 0.65197 0.67358 0.43888 1.151-0.76054-0.5754-0.65312-0.76897 0.43888-0.38316-0.10972"/>
   <path id="path6550" style="stroke-width:1.3213;color:#000000;stroke:url(#radialGradient4402);fill:url(#radialGradient4400)" d="m73.214 839.32-0.38448-0.97998-0.67358 0.21367 0.19357 1.1948 0.8645-0.42733"/>
   <path id="path6558" style="stroke-width:1.3213;color:#000000;stroke:url(#radialGradient4402);fill:url(#radialGradient4400)" d="m74.096 839.1-0.1923 1.3057 1.0567-0.21367 0.76778-0.75938-0.67226-0.65313c-0.22579-0.59999-0.4852-1.163-0.76778-1.7394h-0.57546v0.65198l0.38316 0.43888v0.97824"/>
   <path id="path6574" style="stroke-width:1.3213;color:#000000;stroke:url(#radialGradient4402);fill:url(#radialGradient4400)" d="m59.014 835.08 0.96003 0.65197h0.76898v-0.75996l-0.96003-0.43888-0.76898 0.54282"/>
   <path id="path6610" style="stroke-width:1.3213;color:#000000;stroke:url(#radialGradient4402);fill:url(#radialGradient4400)" d="m61.593 832.99 0.48069-0.43888 0.96069-0.21367c0.65798-0.31761 1.3186-0.53705 2.0168-0.76169l-0.38316-0.65197-1.24 0.17324-0.58581 0.58037-0.96585 0.14437-0.85869 0.40423-0.4174 0.20212-0.2549 0.34071 1.2477 0.21366"/>
   <path id="path6618" style="stroke-width:1.3213;color:#000000;stroke:url(#radialGradient4402);fill:url(#radialGradient4400)" d="m62.105 842.57 0.57673-0.86968-0.86517-0.65197 0.28839 1.5211"/>
   <path id="path6566" style="stroke:url(#radialGradient4426);stroke-width:1.3213;fill:url(#radialGradient4424)" d="m61.566 859.01-0.68517-1.3565-1.2836-0.28874-0.68458-1.8398-1.7113 0.19634-1.4544-1.0649-1.5412 1.3559v0.21367c-0.4662-0.1386-1.0393-0.15015-1.4544-0.40424l-0.34262-0.969v-1.0654l-1.0267 0.0982c0.0857-0.67796 0.1707-1.3553 0.25698-2.0333h-0.59958l-0.5984 0.77497-0.59958 0.28874-0.85599-0.48508-0.0857-1.066 0.17128-1.1619 1.2842-0.96901h1.0267l0.1707-0.58036 1.2836 0.28874 0.94158 1.1636 0.17128-1.938 1.6262-1.3565 0.59899-1.4529 1.198-0.48508 0.68458-0.96785 1.54-0.29451 0.77087-1.1607h-2.3109l1.4549-0.67854h1.0261l1.4555-0.48508 0.17128-0.58036-0.5139-0.48508-0.59899-0.19634 0.17128-0.58094-0.42774-0.87084-1.0273 0.38691 0.17128-0.77439-1.198-0.67796-0.94099 1.6458 0.08512 0.58094-0.94099 0.39268-0.59958 1.2589-0.2564-1.1625-1.6262-0.67796-0.25698-0.87141 2.1396-1.26 0.94158-0.87141 0.0857-1.0649-0.51326-0.29451-0.68459-0.0982-0.42774 1.0654s-0.71567 0.13859-0.89967 0.18479c-2.3499 2.165-7.0981 6.8396-8.2012 15.665 0.04371 0.20211 0.7996 1.3911 0.7996 1.3911l1.797 1.0643 1.797 0.48508 0.77088 0.96901 1.1974 0.87141 0.68459-0.0982 0.51326 0.23099v0.15592l-0.68412 1.8398-0.5139 0.77555 0.17128 0.39268-0.42774 1.4506 1.5406 2.81 1.54 1.3565 0.68517 0.96785-0.08616 2.035 0.5139 1.1613-0.5139 2.2285s-0.04042 0 0.02541 0.20789c0.06612 0.21944 2.742 1.7082 2.9121 1.5817 0.16949-0.13282 0.31444-0.24254 0.31444-0.24254l-0.1707-0.48508 0.68411-0.67796 0.25698-0.67911 1.1129-0.38691 0.8554-2.1309-0.2564-0.58094 0.59781-0.87141 1.2842-0.29451 0.68517-1.5494-0.17128-1.9357 1.0267-1.4535 0.17128-1.4535c-1.405-0.69644-2.7984-1.4142-4.1928-2.1315"/>
   <path id="path6542" style="stroke-width:1.3213;color:#000000;stroke:url(#radialGradient4402);fill:url(#radialGradient4400)" d="m72.738 831.66-2.498-0.97825-2.88 0.32916-3.5547 0.97825-0.67226 0.65255 2.209 1.5211v0.87026l-0.8645 0.8691 1.1535 2.2851 0.76647-0.43888 0.96254-1.5216c1.4838-0.45621 2.8142-0.97824 4.2245-1.6302l1.1535-2.9353"/>
   <path id="path6582" style="stroke-width:1.3213;color:#000000;stroke:url(#radialGradient4402);fill:url(#radialGradient4400)" d="m58.174 834.67-0.48069 1.1954h0.96069l0.48069-1.0868c0.41422-0.29451 0.82645-0.58729 1.2483-0.86967l0.96069 0.32916c0.64001 0.43888 1.28 0.86968 1.9206 1.3034l0.96122-0.86852-1.0574-0.43889-0.48069-0.97824-1.8245-0.21367-0.09621-0.54282-0.8645 0.21944-0.38368 0.76053-0.48069-0.97882-0.19155 0.43888 0.09621 1.0868-0.76844 0.65313"/>
   <path id="path6628" style="stroke:url(#radialGradient4402);stroke-width:1.3213;fill:url(#radialGradient4436)" d="m92.788 850.08v0l-0.66101 0.74841c-0.40516-0.47354-0.86009-0.87892-1.322-1.2982l-1.014 0.15014-0.92644-1.0475v1.2959l0.79373 0.6 0.52828 0.59999 0.70603-0.79807c0.17775 0.33494 0.35295 0.66583 0.52954 0.99846v0.99788l-0.79494 0.89739-1.4547 0.99846-1.1017 1.1001-0.70603-0.80096 0.35307-0.89855-0.70493-0.79807-1.1905-2.5444-1.014-1.1469-0.26547 0.30029 0.39806 1.4477 0.74872 0.84831c0.42756 1.2346 0.85062 2.4144 1.4122 3.5942 0.87076 0 1.6917-0.0924 2.5565-0.20212v0.69875l-1.0579 2.5952-0.97024 1.0972-0.79373 1.6989v2.7932l0.26547 1.0989-0.44073 0.49663-0.97145 0.59999-1.014 0.84832 0.83873 0.94764-1.1467 1.0002 0.22031 0.64562-1.7202 1.9472h-1.1455l-0.97024 0.6h-0.61842v-0.79807l-0.26298-1.599c-0.34123-1.0025-0.69656-1.9981-1.0579-2.9931 0-0.73455 0.04389-1.4616 0.08772-2.1962l0.44194-0.99787-0.61842-1.1988 0.04504-1.6464-0.83874-0.94822 0.41936-1.3715-0.68237-0.77382h-1.1918l-0.39678-0.45043-1.1905 0.74956-0.4845-0.5486-1.103 0.94821c-0.74872-0.84889-1.4987-1.6966-2.2485-2.5455l-0.88143-2.0968 0.79373-1.196-0.44067-0.50241 0.96903-2.2972c0.79616-0.99037 1.6277-1.9403 2.4689-2.8937l1.4998-0.39846 1.6752-0.19634 1.1467 0.30029 1.6313 1.6458 0.57343-0.64619 0.79252-0.0982 1.4998 0.49663h1.1467l0.79372-0.69817 0.35307-0.50241-0.79495-0.5024-1.3232-0.0982c-0.36722-0.50818-0.70845-1.0447-1.1444-1.4974l-0.44194 0.19634-0.17648 1.2982-0.79372-0.89798-0.17532-0.99961-0.88144-0.69643h-0.35422l0.88253 0.99672-0.35307 0.89855-0.70494 0.19635 0.44067-0.8974-0.79494-0.39846-0.70372-0.79807-1.3245 0.30028-0.17532 0.39846-0.79373 0.50241-0.44067 1.0978-1.1017 0.5486-0.48572-0.5486h-0.52828v-1.7971l1.1467-0.59999h0.88144l-0.17775-0.6976-0.70372-0.69932 1.1894-0.24831 0.66101-0.74726 0.52828-0.89971h0.97144l-0.26547-0.69701 0.61843-0.39846v0.79923l1.322 0.30028 1.322-1.0972 0.08876-0.5024 1.1455-0.79808c-0.41463 0.0635-0.82927 0.0924-1.2344 0.20212v-0.89971l0.44067-0.99788h-0.44067l-0.96853 0.89798-0.26547 0.5024 0.26547 0.6999-0.44194 1.196-0.70493-0.39846-0.61601-0.69759-0.97145 0.69759-0.35295-1.5956 1.6752-1.0978v-0.6l1.059-0.69875 1.6752-0.39845 1.1467 0.39845 2.1158 0.39846-0.52828 0.6h-1.1467l1.1467 1.1983 0.88144-0.99787 0.26772-0.43889s3.381 3.0306 5.3132 6.3453c1.9322 3.3159 2.8396 7.2242 2.8396 8.0177z"/>
  </g>
  <g id="g13114" transform="matrix(5.578 -1.4946 1.4946 5.578 -1682.7 -4576)">
   <path id="path11614" style="opacity:.2;fill:#333" d="m51.559 1003.1-3.2206 3.2206c-0.17085 0.1709-0.26027 0.3816-0.26027 0.6067 0 0.042 0.0069 0.085 0.01324 0.1286-0.04368 0.044-0.23164 0.2316-0.26603 0.266-0.05675 0.01-0.69044 0.063-0.69044 0.063-0.0046 0.0005-0.009 0-0.0135 0-0.092 0.023-0.15632 0.079-0.17652 0.1528-0.0044 0.016-0.0065 0.032-0.0065 0.049 0 0.059 0.02786 0.1201 0.08048 0.1726l1.3649 1.3647c0.06707 0.067 0.14789 0.094 0.2214 0.074 0.07369-0.02 0.12949-0.085 0.15305-0.1766 0.0011 0 0.0019-0.01 0.0023-0.014 0 0 0.05787-0.6335 0.06303-0.6903 0.03439-0.034 0.22235-0.2224 0.26603-0.266 0.27274 0.04 0.53266-0.044 0.73524-0.2472l3.2206-3.2207c0.17334-0.1732 0.26483-0.3862 0.26483-0.6159 0-0.2719-0.12674-0.5483-0.35674-0.7784-0.43756-0.4373-1.0111-0.4752-1.3945-0.092z"/>
   <path id="path11616" style="opacity:.2;fill:#333" d="m52.893 1003.2c-0.37531-0.3753-0.89748-0.4673-1.2729-0.092l-3.2206 3.2206c-0.20816 0.2081-0.26887 0.4601-0.21848 0.7067l-0.31659 0.3166-0.72139 0.066c-0.12854 0.033-0.15692 0.1365-0.06311 0.2303l1.3649 1.3647c0.09381 0.094 0.19742 0.066 0.23043-0.063l0.06595-0.7213 0.31659-0.3166c0.2466 0.05 0.49852-0.01 0.70669-0.2186l3.2206-3.2206c0.37514-0.3754 0.28314-0.8976-0.09209-1.2728z"/>
   <path id="path11618" style="opacity:.2;fill:#333" d="m52.893 1003.1c-0.37531-0.3753-0.89748-0.4673-1.2729-0.092l-3.2206 3.2206c-0.20816 0.2081-0.26887 0.4601-0.21848 0.7068l-0.31659 0.3165-0.72139 0.066c-0.12854 0.033-0.15692 0.1365-0.06311 0.2303l1.3649 1.3647c0.09381 0.094 0.19742 0.065 0.23043-0.063l0.06595-0.7213 0.31659-0.3166c0.2466 0.05 0.49852-0.01 0.70669-0.2185l3.2206-3.2207c0.37514-0.3754 0.28314-0.8975-0.09209-1.2728z"/>
   <path id="path11620" style="opacity:.8;fill:#993903" d="m51.465 1003-3.2206 3.2206c-0.17093 0.1709-0.26035 0.3817-0.26035 0.6067 0 0.042 0.0069 0.085 0.01324 0.1286-0.04359 0.044-0.23164 0.2316-0.26603 0.266-0.05675 0.01-0.69044 0.063-0.69044 0.063-0.0046 0.0004-0.009 0-0.0135 0-0.092 0.023-0.15632 0.079-0.17652 0.1528-0.0044 0.016-0.0065 0.033-0.0065 0.049 0 0.059 0.02786 0.1201 0.08048 0.1726l1.3649 1.3648c0.06715 0.067 0.14789 0.094 0.22149 0.074s0.12949-0.085 0.15296-0.1766c0.0012 0 0.002-0.01 0.0023-0.014 0 0 0.05795-0.6335 0.06302-0.6903 0.03439-0.034 0.22244-0.2223 0.26612-0.2659 0.27265 0.04 0.53258-0.044 0.73524-0.2472l3.2206-3.2207c0.17326-0.1732 0.26483-0.3862 0.26483-0.6159 0-0.2719-0.12682-0.5483-0.35683-0.7784-0.43756-0.4374-1.011-0.4753-1.3944-0.092z"/>
   <path id="path11622" style="opacity:.2;fill:#333" d="m47.363 1008l-3.4812 3.4811c-0.0423 0.01-0.39251 0.07-0.39251 0.07-0.04222 0.01-0.07893 0.035-0.10335 0.071l-0.67281 1.0329c0 0.0002-0.02975 0.096-0.02975 0.096 0 0.046 0.01788 0.089 0.05039 0.1216l0.39956 0.3996c0.0595 0.059 0.1527 0.067 0.2214 0.018l1.0329-0.7073c0.03585-0.026 0.06019-0.063 0.06879-0.1062 0 0 0.04497-0.3278 0.05383-0.3722 0.03628-0.036 3.479-3.479 3.479-3.479 0.0325-0.033 0.05039-0.076 0.05039-0.1216 0-0.046-0.01788-0.089-0.05039-0.1215l-0.38322-0.3833c-0.0325-0.033-0.07567-0.05-0.12158-0.05-0.04592 0-0.08899 0.018-0.12149 0.05z"/>
   <path id="path11624" style="opacity:.5;fill:#333" d="m47.424 1008l-3.4985 3.4985c-0.04265 0.01-0.4165 0.076-0.4165 0.076-0.02107 0-0.03947 0.018-0.05168 0.035l-0.67281 1.0328c-0.01 0.015-0.01488 0.031-0.01488 0.048 0 0.022 0.0086 0.044 0.02519 0.061l0.39956 0.3996c0.02966 0.03 0.07653 0.034 0.11075 0.01l1.0329-0.7073c0.0178-0.013 0.03009-0.032 0.03439-0.053 0 0 0.04996-0.3528 0.05898-0.3976 0.03637-0.036 3.4975-3.4974 3.4975-3.4974 0.01616-0.016 0.02519-0.038 0.02519-0.061s-0.009-0.045-0.02519-0.061l-0.38322-0.3833c-0.03371-0.034-0.08813-0.034-0.12166 0.0001z"/>
   <path id="path11626" style="opacity:.2;fill:#333" d="m47.424 1008.1l-3.4985 3.4985c-0.04265 0.01-0.4165 0.076-0.4165 0.076-0.02107 0-0.03947 0.018-0.05168 0.035l-0.67281 1.0328c-0.01 0.015-0.01488 0.031-0.01488 0.048 0 0.022 0.0086 0.044 0.02519 0.061l0.39956 0.3996c0.02966 0.03 0.07653 0.034 0.11075 0.01l1.0329-0.7073c0.0178-0.013 0.03009-0.032 0.03439-0.053 0 0 0.04996-0.3528 0.05898-0.3976 0.03637-0.036 3.4975-3.4975 3.4975-3.4975 0.01616-0.016 0.02519-0.038 0.02519-0.061s-0.009-0.045-0.02519-0.061l-0.38322-0.3833c-0.03371-0.034-0.08813-0.034-0.12166 0.0001z"/>
   <polygon id="polygon11637" style="fill:url(#XMLID_34_)" points="72.862 45.013 56.494 61.381 66.688 71.577 83.059 55.208" transform="matrix(.085982 0 0 .085982 42.444 1002.5)"/>
   <path id="path11639" style="fill:#f36600" d="m48.358 1008.9c0.09381 0.094 0.19742 0.065 0.23043-0.063l0.06595-0.7213-0.87668-0.8766-0.72139 0.066c-0.12854 0.033-0.15692 0.1365-0.06311 0.2303l1.3648 1.3647z"/>
   <path id="path11641" style="fill:#f36600" d="m49.678 1007.6 3.2206-3.2207c0.37531-0.3753 0.28331-0.8975-0.09192-1.2727-0.37531-0.3753-0.89748-0.4673-1.2729-0.092l-3.2206 3.2205c-0.37523 0.3753-0.27291 0.8928 0.09957 1.2652 0.37239 0.3725 0.88992 0.475 1.2652 0.1z"/>
   <polygon id="polygon11650" style="fill:url(#XMLID_35_)" points="58.191 65.423 17.622 105.99 22.077 110.45 62.648 69.88" transform="matrix(.085982 0 0 .085982 42.444 1002.5)"/>
   <polygon id="polygon11657" style="fill:url(#XMLID_36_)" points="22.185 110.34 21.44 115.26 9.427 123.49 4.78 118.84 12.605 106.83 17.728 105.89" transform="matrix(.085982 0 0 .085982 42.444 1002.5)"/>
   <polygon id="polygon11664" style="fill:url(#XMLID_37_)" points="21.886 110.04 20.841 114.66 9.098 123.16 5.19 119.25 13.317 107.54 18.139 106.3" transform="matrix(.085982 0 0 .085982 42.444 1002.5)"/>
   <path id="path11675" style="fill:url(#linearGradient12575)" d="m52.748 1003.3c0.13671 0.1367 0.11178 0.3853-0.05555 0.5526l-3.6064 3.6063c-0.16715 0.1673-0.41581 0.1922-0.55244 0.055-0.13671-0.1367-0.11178-0.3853 0.05554-0.5525l3.6064-3.6064c0.16715-0.1672 0.41581-0.1922 0.55244-0.055z"/>
   <path id="path11686" style="fill:url(#linearGradient12572)" d="m48.227 1007.8c0.11642 0.1164 0.10129 0.3222-0.03379 0.4571-0.13491 0.135-0.34058 0.1501-0.457 0.034-0.11642-0.1165-0.10129-0.3221 0.0337-0.4571s0.34058-0.1501 0.45708-0.034z"/>
   <path id="path11701" style="fill:url(#linearGradient12569)" d="m49.089 1007.7c-0.1147-0.061-0.0718-0.2472 0.09535-0.4145l3.4531-3.4529c0.16724-0.1673 0.35786-0.2143 0.42372-0.1046 0.06578 0.1096-0.01711 0.3362-0.18443 0.5033l-3.2751 3.2752c-0.16715 0.1672-0.39793 0.2542-0.51263 0.1935z"/>
   <path id="path11716" style="fill:url(#linearGradient12566)" d="m48.172 1008.7c-0.08624-0.089-0.05589-0.2522 0.06741-0.362 0.12338-0.1099 0.24359-0.1749 0.26723-0.1446 0.02356 0.03 0.04291 0.1436 0.04291 0.2516s-0.0497 0.2461-0.1104 0.3068c-0.0607 0.061-0.18099 0.037-0.26715-0.052z"/>
   <path id="path11725" style="fill:url(#linearGradient12563)" d="m52.2 1002.9c0.13155 0.078 0.10249 0.2779-0.06474 0.4452l-3.4531 3.4529c-0.16715 0.1673-0.37162 0.2005-0.45424 0.074-0.08272-0.1266-0.01359-0.3669 0.15365-0.5341l3.2752-3.2751c0.16715-0.1672 0.41168-0.2404 0.54324-0.1629z"/>
   <path id="path11734" style="fill:url(#linearGradient12560)" d="m47.305 1007.8c0.09862 0.095 0.26139 0.091 0.36164-0.01l0.07489-0.075c0.10034-0.1003 0.13998-0.2248 0.0883-0.2764-0.05176-0.052-0.17876-0.083-0.28219-0.07-0.10344 0.014-0.24066 0.077-0.30498 0.1409-0.06432 0.064-0.03628 0.1943 0.06234 0.2896z"/>
   <path id="path11741" style="fill:url(#linearGradient12557)" d="m47.448 1008.1 0.38322 0.3832-0.29939 0.2994s0.36087-0.2254-0.08383-0.6826z"/>
  </g>
  <path id="path6578-0" style="stroke:#000;fill:#3a2b1d;stroke-opacity:.61502" d="m22.5 967.86-2 2h3.5 0.5 3.5 3.5 3.5 3.5 3.5 3.5 3.5 3.5 3.5 3.5 3.5 3.5 3.5 3.5 3.5 3.5 3.5 3.5 3.5 3.5 3.5 3.5 3.5l-2-2-1.75 1.75-1.75-1.75-1.75 1.75-1.75-1.75-1.75 1.75-1.75-1.75-1.75 1.75-1.75-1.75-1.75 1.75-1.75-1.75-1.75 1.75-1.75-1.75-1.75 1.75-1.75-1.75-1.75 1.75-1.75-1.75-1.75 1.75-1.75-1.75-1.75 1.75-1.75-1.75-1.75 1.75-1.75-1.75-1.75 1.75-1.75-1.75-1.75 1.75-1.75-1.75-1.75 1.75-1.75-1.75-1.75 1.75-1.75-1.75-1.75 1.75-1.75-1.75-1.75 1.75-1.75-1.75-1.75 1.75-1.75-1.75-1.75 1.75-1.75-1.75-1.75 1.75-1.75-1.75-1.75 1.75-1.75-1.75-1.75 1.75-1.75-1.75-1.75 1.75-1.75-1.75z"/>
  <path id="rect2157-6" style="color:#000000;fill:url(#linearGradient8438)" d="m71.125 927.55c-7.6679 0-14.541 3.2944-19.312 8.5625l-2.5-4.3438c-0.9094-1.5751-2.9249-2.0969-4.5-1.1875l-30.907 17.84c-1.5751 0.9094-2.0969 2.8936-1.1875 4.4688l3.6875 6.375c0.01633 0.0304 0.01386 0.0636 0.03125 0.0937l3.5 6.0312 14.031 24.344c0.9094 1.5751 2.9249 2.0969 4.5 1.1875l22.844-13.14c3.037 1.2385 6.3303 1.9375 9.8125 1.9375 5.553 0 10.708-1.76 14.938-4.7188l1.9062 1.0938c-0.20411 0.3535-13.985 24.195-14.125 24.438-0.16111 0.087-0.98257 0.4652-1.5312 0.7187-0.13145 0.062-0.4375 0.2188-0.4375 0.2188-0.01275 0.01-0.125 0.062-0.125 0.062-0.22056 0.1188-0.38634 0.2939-0.46875 0.5312l-2.2188 6.7813c0.000299 0.0009 0 0.5625 0 0.5625 0.06875 0.2565 0.20744 0.4917 0.4375 0.625l2.8438 1.625c0.42007 0.2401 0.94003 0.1259 1.25-0.25l4.7188-5.4688c0.16111-0.1986 0.23535-0.4649 0.21875-0.7187 0 0-0.23306-1.8954-0.25-2.1563 0.14761-0.2534 13.916-24.129 14.094-24.438l2.3125 1.3438c0.1519 0.087 0.28645 0.1813 0.4375 0.2187l0.1875 0.094c0.47426 0.2735 0.96358 0.2839 1.3438 0.062 0.38115-0.2217 0.59924-0.6726 0.59375-1.2187 0.0061 0 0.0038-0.04 0-0.062 0 0-0.63139-3.613-0.6875-3.9375 0.14101-0.2411 0.91528-1.5978 1.0938-1.9063 1.5811-0.18451 2.8925-1.0325 3.7188-2.4688l13.156-22.781c0.70802-1.2252 0.90581-2.5312 0.5625-3.8125-0.40639-1.5167-1.5294-2.8728-3.1562-3.8125-0.37815-0.21817-0.74541-0.41627-1.125-0.5625-0.008-0.004-0.0229 0.004-0.0312 0-0.0215-0.008-0.041-0.0233-0.0625-0.0312-2.9131-1.3906-5.8759-0.66663-7.3438 1.875l-6.1875 10.75c-0.646-13.8-12.073-24.79-26.057-24.79z"/>
  <path id="path2818" style="fill:url(#linearGradient6771)" d="m22 43.5l-1.656 1.656h-1.188l2.906 49.094-2.906 25.97h86.624l-2.87-25.97 2.87-49.094h-1.62l-1.66-1.656-1.66 1.656h-0.18l-1.66-1.656-1.656 1.656h-0.188l-1.656-1.656-1.656 1.656h-0.188l-1.656-1.656-1.656 1.656h-0.188l-1.656-1.656-1.656 1.656h-0.188l-1.656-1.656-1.656 1.656h-0.188l-1.656-1.656-1.656 1.656h-0.188l-1.656-1.656-1.656 1.656h-0.188l-1.656-1.656-1.656 1.656h-0.188l-1.656-1.656-1.656 1.656h-0.188l-1.656-1.656-1.656 1.656h-0.188l-1.656-1.656-1.656 1.656h-0.188l-1.656-1.656-1.656 1.656h-0.188l-1.656-1.656-1.656 1.656h-0.188l-1.656-1.656-1.656 1.656h-0.188l-1.656-1.656-1.656 1.656h-0.188l-1.656-1.656-1.656 1.656h-0.188l-1.656-1.656-1.656 1.656h-0.188l-1.656-1.656-1.656 1.656h-0.188l-1.656-1.656-1.656 1.656h-0.188l-1.656-1.656-1.656 1.656h-0.188l-1.656-1.656-1.656 1.656h-0.188l-1.656-1.656-1.656 1.656h-0.188l-1.656-1.656z" transform="translate(0 924.36)"/>
  <path id="rect3663" style="color:#000000;fill:url(#linearGradient5114)" d="m22.052 1018.6h34.649v11.55l-36.401 1.1348 1.7527-12.684z"/>
  <path id="rect3663-7" style="color:#000000;fill:url(#linearGradient5111)" d="m102.9 1018.6h-34.649v11.55h35.783l-1.1347-11.55z"/>
  <path id="path2818-6" style="color:#000000;fill:url(#linearGradient6746-6)" d="m22 987.86-1.6562 1.6562h-1.1875l2.9062 49.094-2.9062 25.969h86.625l-2.875-25.969 2.875-49.094h-1.625l-1.6562-1.6562-1.6562 1.6562h-0.1875l-1.65-1.65-1.6562 1.6562h-0.1875l-1.6562-1.6562-1.6562 1.6562h-0.1875l-1.656-1.66-1.6562 1.6562h-0.1875l-1.6562-1.6562-1.6562 1.6562h-0.1875l-1.656-1.66-1.6562 1.6562h-0.1875l-1.6562-1.6562-1.6562 1.6562h-0.1875l-1.656-1.66-1.6562 1.6562h-0.1875l-1.6562-1.6562-1.6562 1.6562h-0.1875l-1.656-1.66-1.6562 1.6562h-0.1875l-1.6562-1.6562-1.6562 1.6562h-0.1875l-1.656-1.66-1.6562 1.6562h-0.1875l-1.6562-1.6562-1.6562 1.6562h-0.1875l-1.656-1.66-1.6562 1.6562h-0.1875l-1.6562-1.6562-1.6562 1.6562h-0.1875l-1.656-1.66-1.6562 1.6562h-0.1875l-1.6562-1.6562-1.6562 1.6562h-0.1875l-1.656-1.66-1.6562 1.6562h-0.1875l-1.6562-1.6562-1.6562 1.6562h-0.1875l-1.656-1.66-1.6562 1.6562h-0.1875l-1.6562-1.6562-1.6562 1.6562h-0.1875l-1.656-1.66-1.6562 1.6562h-0.1875l-1.6562-1.6562-1.6562 1.6562h-0.1875l-1.656-1.66z"/>
  <path id="circle4910" style="fill-opacity:.36752" d="m40 1018.5c1.3339 2.0679 3.1901 3.9583 5.4688 5.6261 1.1492 0.8407 2.3207 1.5965 3.625 2.2643l5.5938-7.0671c-0.45536-0.2623-0.89852-0.528-1.3125-0.8233h-13.375zm35.812 0c-2.904 2.084-6.8544 3.3848-11.219 3.3848-2.1121 0-4.1517-0.3709-6-0.9148l-5.593 7c3.5643 1.2294 7.5359 1.944 11.594 1.944 2.12 0 4.111-0.1612 6.125-0.5032 0.155-2.2306 1.7868-4.4271 4.625-5.6261 2.8347-1.1987 6.2237-1.1275 8.9375-0.1144 2.0021-1.5552 3.6075-3.3191 4.8125-5.2145h-13.281zm4.2812 6.4495c-3.5836 0-6.5625 2.1804-6.5625 4.8029 0 2.6228 2.9789 4.7113 6.5625 4.7113s6.4062-2.0885 6.4062-4.7113c0-2.6225-2.8227-4.8029-6.4062-4.8029z"/>
  <path id="path3631-4" style="stroke-linejoin:round;stroke-opacity:.45540;stroke:#000;stroke-linecap:round;stroke-width:1.5;fill:none" d="m71.125 927.55c-7.6679 0-14.541 3.2944-19.312 8.5625l-2.5-4.3438c-0.9094-1.5751-2.9249-2.0969-4.5-1.1875l-30.907 17.84c-1.5751 0.9094-2.0969 2.8936-1.1875 4.4688l3.6875 6.375c0.01633 0.0304 0.01386 0.0636 0.03125 0.0937l3.5 6.0312 1.0938 1.875-1.875 2.25 2.9062 49.094-2.9062 25.969h86.625l-2.875-25.969 2.875-49.094-2.1875-2.625 10.938-18.938c0.70802-1.2252 0.90581-2.5312 0.5625-3.8125-0.40639-1.5167-1.5294-2.8728-3.1562-3.8125-0.37815-0.21817-0.74541-0.41627-1.125-0.5625-0.008-0.004-0.0229 0.004-0.0312 0-0.0215-0.008-0.041-0.0233-0.0625-0.0312-2.9131-1.3906-5.8759-0.66663-7.3438 1.875l-6.1875 10.75c-0.646-13.81-12.073-24.8-26.057-24.8z"/>
  <path id="path2818-4-4-7" style="fill-opacity:.15493" d="m19.5 1041.1-0.34375 3h86.625l-0.34375-3h-85.938z"/>
  <path id="circle4910-1" style="fill-opacity:.36752" d="m80.094 973.67c-3.5836 0-6.5625 2.8224-6.5625 6.4062 0 3.5832 2.9789 6.5938 6.5625 6.5938s6.4062-3.0105 6.4062-6.5938c0-3.5838-2.8227-6.4062-6.4062-6.4062zm-15.5 6.2812c-4.0565 0-8.0287 0.8207-11.594 2.5l5.5938 9.6562c1.8483-0.74379 3.8893-1.125 6-1.125 8.0795 0 14.796 5.9095 15.906 13.688h11.031c-0.50494-6.112-3.0136-11.695-7.25-16.188-2.7131 1.3819-6.1035 1.353-8.9375-0.28125-2.8361-1.6377-4.4671-4.5186-4.625-7.5625-2.0133-0.46776-4.0065-0.6875-6.125-0.6875zm-15.5 4.75c-1.305 0.91126-2.4751 1.9127-3.625 3.0625-3.2201 3.2206-5.5729 7.2248-6.8438 11.469 2.5602 1.6585 4.1875 4.5347 4.1875 7.8125 0 3.2772-1.6273 6.1545-4.1875 7.8125 0.37156 1.2408 0.82387 2.4576 1.375 3.625h13.375c-2.9823-2.9067-4.8438-6.9472-4.8438-11.438 0-5.1159 2.4191-9.7765 6.1562-12.719l-5.5938-9.625zm-15.5 15.781c-3.5836 0-6.5625 2.9787-6.5625 6.5625 0 3.5832 2.9789 6.4375 6.5625 6.4375s6.4062-2.8543 6.4062-6.4375c0-3.5838-2.8227-6.5625-6.4062-6.5625zm46.906 8.8c-0.50932 3.5787-2.214 6.7621-4.6875 9.1875h13.281c1.3426-2.8856 2.1722-5.9677 2.4375-9.1875h-11.031z"/>
 </g>
</svg>
